<svg width="23" height="23" viewBox="0 0 23 23" fill="none" xmlns="http://www.w3.org/2000/svg">
<path fill-rule="evenodd" clip-rule="evenodd" d="M3.83333 7.66667C3.30406 7.66667 2.87499 8.09573 2.87499 8.625V18.2083C2.87499 18.7376 3.30406 19.1667 3.83333 19.1667H19.1667C19.6959 19.1667 20.125 18.7376 20.125 18.2083V8.625C20.125 8.09573 19.6959 7.66667 19.1667 7.66667H3.83333ZM0.958328 8.625C0.958328 7.03718 2.24551 5.75 3.83333 5.75H19.1667C20.7545 5.75 22.0417 7.03718 22.0417 8.625V18.2083C22.0417 19.7962 20.7545 21.0833 19.1667 21.0833H3.83333C2.24551 21.0833 0.958328 19.7962 0.958328 18.2083V8.625Z" fill="#13357F"/>
<path fill-rule="evenodd" clip-rule="evenodd" d="M7.5504 2.75873C8.08956 2.21957 8.82083 1.91667 9.58333 1.91667H13.4167C14.1792 1.91667 14.9104 2.21957 15.4496 2.75873C15.9888 3.2979 16.2917 4.02917 16.2917 4.79167V20.125C16.2917 20.6543 15.8626 21.0833 15.3333 21.0833C14.8041 21.0833 14.375 20.6543 14.375 20.125V4.79167C14.375 4.5375 14.274 4.29374 14.0943 4.11402C13.9146 3.9343 13.6708 3.83333 13.4167 3.83333H9.58333C9.32916 3.83333 9.08541 3.9343 8.90568 4.11402C8.72596 4.29374 8.62499 4.5375 8.62499 4.79167V20.125C8.62499 20.6543 8.19593 21.0833 7.66666 21.0833C7.13739 21.0833 6.70833 20.6543 6.70833 20.125V4.79167C6.70833 4.02917 7.01123 3.2979 7.5504 2.75873Z" fill="#13357F"/>
</svg>
