<svg width="23" height="23" viewBox="0 0 23 23" fill="none" xmlns="http://www.w3.org/2000/svg">
<path fill-rule="evenodd" clip-rule="evenodd" d="M3.83337 7.66666C3.3041 7.66666 2.87504 8.09572 2.87504 8.62499V18.2083C2.87504 18.7376 3.3041 19.1667 3.83337 19.1667H19.1667C19.696 19.1667 20.125 18.7376 20.125 18.2083V8.62499C20.125 8.09572 19.696 7.66666 19.1667 7.66666H3.83337ZM0.958374 8.62499C0.958374 7.03717 2.24556 5.74999 3.83337 5.74999H19.1667C20.7545 5.74999 22.0417 7.03717 22.0417 8.62499V18.2083C22.0417 19.7961 20.7545 21.0833 19.1667 21.0833H3.83337C2.24556 21.0833 0.958374 19.7961 0.958374 18.2083V8.62499Z" fill="#13357F"/>
<path fill-rule="evenodd" clip-rule="evenodd" d="M7.55044 2.75872C8.08961 2.21956 8.82088 1.91666 9.58337 1.91666H13.4167C14.1792 1.91666 14.9105 2.21956 15.4496 2.75872C15.9888 3.29789 16.2917 4.02916 16.2917 4.79166V20.125C16.2917 20.6543 15.8626 21.0833 15.3334 21.0833C14.8041 21.0833 14.375 20.6543 14.375 20.125V4.79166C14.375 4.53749 14.2741 4.29374 14.0943 4.11401C13.9146 3.93429 13.6709 3.83332 13.4167 3.83332H9.58337C9.32921 3.83332 9.08545 3.93429 8.90573 4.11401C8.72601 4.29374 8.62504 4.53749 8.62504 4.79166V20.125C8.62504 20.6543 8.19598 21.0833 7.66671 21.0833C7.13743 21.0833 6.70837 20.6543 6.70837 20.125V4.79166C6.70837 4.02916 7.01128 3.29789 7.55044 2.75872Z" fill="#13357F"/>
</svg>
