<svg width="25" height="23" viewBox="0 0 25 23" fill="none" xmlns="http://www.w3.org/2000/svg">
<path fill-rule="evenodd" clip-rule="evenodd" d="M4.74259 7.66667C4.19553 7.66667 3.75206 8.09573 3.75206 8.625V18.2083C3.75206 18.7376 4.19553 19.1667 4.74259 19.1667H20.5911C21.1381 19.1667 21.5816 18.7376 21.5816 18.2083V8.625C21.5816 8.09573 21.1381 7.66667 20.5911 7.66667H4.74259ZM1.771 8.625C1.771 7.03718 3.10142 5.75 4.74259 5.75H20.5911C22.2322 5.75 23.5627 7.03718 23.5627 8.625V18.2083C23.5627 19.7962 22.2322 21.0833 20.5911 21.0833H4.74259C3.10142 21.0833 1.771 19.7962 1.771 18.2083V8.625Z" fill="#13357F"/>
<path fill-rule="evenodd" clip-rule="evenodd" d="M8.58454 2.75873C9.14182 2.21957 9.89765 1.91667 10.6858 1.91667H14.6479C15.436 1.91667 16.1918 2.21957 16.7491 2.75873C17.3064 3.2979 17.6195 4.02917 17.6195 4.79167V20.125C17.6195 20.6543 17.176 21.0833 16.6289 21.0833C16.0819 21.0833 15.6384 20.6543 15.6384 20.125V4.79167C15.6384 4.5375 15.5341 4.29374 15.3483 4.11402C15.1625 3.9343 14.9106 3.83333 14.6479 3.83333H10.6858C10.4231 3.83333 10.1711 3.9343 9.98536 4.11402C9.7996 4.29374 9.69524 4.5375 9.69524 4.79167V20.125C9.69524 20.6543 9.25176 21.0833 8.70471 21.0833C8.15765 21.0833 7.71418 20.6543 7.71418 20.125V4.79167C7.71418 4.02917 8.02726 3.2979 8.58454 2.75873Z" fill="#13357F"/>
</svg>
