<svg width="121" height="61" viewBox="0 0 121 61" fill="none" xmlns="http://www.w3.org/2000/svg">
<rect width="119.242" height="59.6209" transform="translate(0.937744 0.762451)" fill="white"/>
<g clip-path="url(#clip0_347_32502)">
<path fill-rule="evenodd" clip-rule="evenodd" d="M7.94128 36.864L11.7135 33.9746C13.7166 36.5899 15.8439 37.7951 18.2144 37.7951C20.5717 37.7951 22.6405 36.6038 24.5539 34.0092L28.3781 36.8294C25.6193 40.5703 22.1871 42.5466 18.2144 42.5466C14.2548 42.5466 10.7908 40.5841 7.94128 36.864Z" fill="url(#paint0_linear_347_32502)"/>
<path fill-rule="evenodd" clip-rule="evenodd" d="M18.2023 24.3065L11.4884 30.0918L8.38672 26.4922L18.2157 18.0227L27.9682 26.4988L24.8513 30.0852L18.2023 24.3065Z" fill="url(#paint1_linear_347_32502)"/>
<path d="M54.1276 22.9067H50.3263V38.7454H54.1276V22.9067Z" fill="black"/>
<path fill-rule="evenodd" clip-rule="evenodd" d="M42.6439 38.8153C40.403 38.8153 38.5357 38.0891 37.021 36.6367C35.5064 35.1636 34.7594 33.2754 34.7594 30.9723C34.7594 28.6485 35.5271 26.7396 37.0418 25.2457C38.5772 23.7311 40.4445 22.9841 42.6647 22.9841C45.4034 22.9841 47.8311 24.1668 49.2418 26.0134L46.7728 28.607C45.5901 27.3413 44.3038 26.6981 42.9136 26.6981C41.7309 26.6981 40.7558 27.0923 39.9466 27.9016C39.1581 28.7108 38.7639 29.7274 38.7639 30.9516C38.7639 32.1343 39.1581 33.1302 39.9466 33.9394C40.7558 34.7279 41.7309 35.1221 42.8929 35.1221C44.4075 35.1221 45.7354 34.4581 46.835 33.151L49.408 35.62C48.7026 36.5537 47.748 37.3214 46.5652 37.9231C45.3829 38.5248 44.0755 38.8153 42.6439 38.8153Z" fill="black"/>
<path fill-rule="evenodd" clip-rule="evenodd" d="M59.829 24.1738C59.829 25.3109 58.9075 26.2328 57.7702 26.2328C56.6329 26.2328 55.7111 25.3109 55.7111 24.1738C55.7111 23.0366 56.6329 22.1147 57.7702 22.1147C58.9075 22.1147 59.829 23.0366 59.829 24.1738ZM59.6706 27.1831H55.8694V38.7453H59.6706V27.1831Z" fill="black"/>
<path fill-rule="evenodd" clip-rule="evenodd" d="M67.0186 38.8359C65.2135 38.8359 63.761 38.2757 62.62 37.1553C61.4995 36.0349 60.9391 34.6032 60.9391 32.8396C60.9391 31.076 61.4995 29.6443 62.6405 28.5239C63.7819 27.4035 65.2549 26.8433 67.0808 26.8433C69.4671 26.8433 71.5624 28.0052 72.5376 30.1838L69.6121 31.7192C69.0311 30.744 68.2222 30.246 67.1639 30.246C66.3963 30.246 65.7736 30.495 65.2758 30.993C64.7984 31.4909 64.5495 32.1134 64.5495 32.8396C64.5495 34.3542 65.6491 35.4747 67.1225 35.4747C68.1804 35.4747 69.1556 34.8937 69.5707 34.0015L72.4962 35.7444C71.5002 37.6533 69.4462 38.8359 67.0186 38.8359Z" fill="black"/>
<path fill-rule="evenodd" clip-rule="evenodd" d="M77.2521 22.9067H73.4509V38.7453H77.2521V34.7132L77.6974 34.2979L81.1722 38.7453H85.5942L80.2555 31.9124L85.327 27.1831H80.6822L77.2521 30.3819V22.9067Z" fill="black"/>
<path fill-rule="evenodd" clip-rule="evenodd" d="M86.2798 32.7603V22.9067H90.2397V32.5396C90.2397 34.2618 91.2432 35.0917 92.6946 35.0917C94.1248 35.0917 95.1495 34.2203 95.1495 32.5396V22.9067H99.1091V32.7603C99.1091 37.2834 95.9335 38.9848 92.6946 38.9848C89.4766 38.9848 86.2798 37.2834 86.2798 32.7603Z" fill="black"/>
<path fill-rule="evenodd" clip-rule="evenodd" d="M107.662 39.062C110.724 39.062 113.206 36.3674 113.206 33.0433C113.206 29.7193 110.724 27.0247 107.662 27.0247C106.414 27.0247 105.263 27.4724 104.336 28.2279V27.1831H100.693V43.4968H104.336V37.8588C105.263 38.6143 106.414 39.062 107.662 39.062ZM104.336 33.0495V33.0371C104.339 31.5529 105.508 30.3508 106.949 30.3508C108.393 30.3508 109.563 31.5563 109.563 33.0433C109.563 34.5304 108.393 35.7359 106.949 35.7359C105.508 35.7359 104.339 34.5337 104.336 33.0495Z" fill="black"/>
</g>
<defs>
<linearGradient id="paint0_linear_347_32502" x1="7.94128" y1="44.0901" x2="28.3781" y2="44.0901" gradientUnits="userSpaceOnUse">
<stop stop-color="#8930FD"/>
<stop offset="1" stop-color="#49CCF9"/>
</linearGradient>
<linearGradient id="paint1_linear_347_32502" x1="8.38672" y1="32.2649" x2="27.9682" y2="32.2649" gradientUnits="userSpaceOnUse">
<stop stop-color="#FF02F0"/>
<stop offset="1" stop-color="#FFC800"/>
</linearGradient>
<clipPath id="clip0_347_32502">
<rect width="105.827" height="25.7115" fill="white" transform="translate(7.64514 17.9036)"/>
</clipPath>
</defs>
</svg>
