<svg width="160" height="80" viewBox="0 0 160 80" fill="none" xmlns="http://www.w3.org/2000/svg">
<rect width="160" height="80" fill="white"/>
<g clip-path="url(#clip0_25_187)">
<path fill-rule="evenodd" clip-rule="evenodd" d="M9.39746 48.4414L14.4591 44.5644C17.1469 48.0736 20.0013 49.6908 23.182 49.6908C26.3451 49.6908 29.121 48.0923 31.6884 44.6108L36.8197 48.395C33.118 53.4146 28.5126 56.0665 23.182 56.0665C17.8691 56.0665 13.2209 53.4332 9.39746 48.4414Z" fill="url(#paint0_linear_25_187)"/>
<path fill-rule="evenodd" clip-rule="evenodd" d="M23.1658 31.5915L14.157 39.3543L9.99512 34.5244L23.1837 23.1599L36.2698 34.5332L32.0874 39.3454L23.1658 31.5915Z" fill="url(#paint1_linear_25_187)"/>
<path d="M71.3706 29.7135H66.27V50.966H71.3706V29.7135Z" fill="black"/>
<path fill-rule="evenodd" clip-rule="evenodd" d="M55.9618 51.0597C52.955 51.0597 50.4494 50.0853 48.417 48.1364C46.3846 46.1597 45.3823 43.6262 45.3823 40.5359C45.3823 37.4177 46.4125 34.8563 48.4448 32.8518C50.505 30.8194 53.0107 29.8172 55.9897 29.8172C59.6645 29.8172 62.922 31.4041 64.815 33.8819L61.502 37.362C59.915 35.6637 58.189 34.8007 56.3237 34.8007C54.7368 34.8007 53.4283 35.3296 52.3425 36.4154C51.2845 37.5012 50.7556 38.8655 50.7556 40.5081C50.7556 42.095 51.2845 43.4313 52.3425 44.5171C53.4283 45.575 54.7368 46.104 56.2959 46.104C58.3282 46.104 60.11 45.2131 61.5855 43.4592L65.038 46.7722C64.0915 48.025 62.8105 49.0551 61.2235 49.8625C59.637 50.6699 57.8828 51.0597 55.9618 51.0597Z" fill="black"/>
<path fill-rule="evenodd" clip-rule="evenodd" d="M79.021 31.4137C79.021 32.9395 77.7845 34.1765 76.2585 34.1765C74.7325 34.1765 73.4955 32.9395 73.4955 31.4137C73.4955 29.8878 74.7325 28.6509 76.2585 28.6509C77.7845 28.6509 79.021 29.8878 79.021 31.4137ZM78.8085 35.4516H73.708V50.9659H78.8085V35.4516Z" fill="black"/>
<path fill-rule="evenodd" clip-rule="evenodd" d="M88.668 51.0875C86.246 51.0875 84.297 50.3358 82.766 48.8324C81.2625 47.329 80.5105 45.408 80.5105 43.0415C80.5105 40.6751 81.2625 38.754 82.7935 37.2507C84.325 35.7473 86.3015 34.9956 88.7515 34.9956C91.9535 34.9956 94.765 36.5546 96.0735 39.4779L92.148 41.5381C91.3685 40.2296 90.283 39.5614 88.863 39.5614C87.833 39.5614 86.9975 39.8955 86.3295 40.5637C85.689 41.2319 85.355 42.0671 85.355 43.0415C85.355 45.0739 86.8305 46.5773 88.8075 46.5773C90.227 46.5773 91.5355 45.7977 92.0925 44.6006L96.018 46.9392C94.6815 49.5006 91.9255 51.0875 88.668 51.0875Z" fill="black"/>
<path fill-rule="evenodd" clip-rule="evenodd" d="M102.399 29.7135H97.299V50.9659H102.399V45.5556L102.997 44.9983L107.66 50.9659H113.593L106.429 41.7974L113.234 35.4516H107.002L102.399 39.7438V29.7135Z" fill="black"/>
<path fill-rule="evenodd" clip-rule="evenodd" d="M114.513 42.9351V29.7135H119.826V42.639C119.826 44.9498 121.173 46.0634 123.12 46.0634C125.039 46.0634 126.414 44.8941 126.414 42.639V29.7135H131.728V42.9351C131.728 49.0043 127.466 51.2873 123.12 51.2873C118.802 51.2873 114.513 49.0043 114.513 42.9351Z" fill="black"/>
<path fill-rule="evenodd" clip-rule="evenodd" d="M143.204 51.3909C147.312 51.3909 150.643 47.7753 150.643 43.315C150.643 38.8548 147.312 35.2391 143.204 35.2391C141.529 35.2391 139.984 35.8399 138.741 36.8536V35.4517H133.853V57.3416H138.741V49.7765C139.984 50.7902 141.529 51.3909 143.204 51.3909ZM138.741 43.3233V43.3067C138.745 41.3152 140.313 39.7021 142.247 39.7021C144.184 39.7021 145.755 41.3197 145.755 43.315C145.755 45.3104 144.184 46.9279 142.247 46.9279C140.313 46.9279 138.745 45.3148 138.741 43.3233Z" fill="black"/>
</g>
<defs>
<linearGradient id="paint0_linear_25_187" x1="9.39746" y1="58.1376" x2="36.8197" y2="58.1376" gradientUnits="userSpaceOnUse">
<stop stop-color="#8930FD"/>
<stop offset="1" stop-color="#49CCF9"/>
</linearGradient>
<linearGradient id="paint1_linear_25_187" x1="9.99512" y1="42.2702" x2="36.2698" y2="42.2702" gradientUnits="userSpaceOnUse">
<stop stop-color="#FF02F0"/>
<stop offset="1" stop-color="#FFC800"/>
</linearGradient>
<clipPath id="clip0_25_187">
<rect width="142" height="34.5" fill="white" transform="translate(9 23)"/>
</clipPath>
</defs>
</svg>
