<svg width="121" height="61" viewBox="0 0 121 61" fill="none" xmlns="http://www.w3.org/2000/svg">
<rect width="119.242" height="59.6209" transform="translate(0.937805 0.762451)" fill="white"/>
<g clip-path="url(#clip0_25_377)">
<path fill-rule="evenodd" clip-rule="evenodd" d="M7.94138 36.864L11.7136 33.9746C13.7167 36.5899 15.844 37.7951 18.2145 37.7951C20.5718 37.7951 22.6406 36.6038 24.554 34.0092L28.3782 36.8294C25.6194 40.5703 22.1872 42.5466 18.2145 42.5466C14.2549 42.5466 10.7909 40.5841 7.94138 36.864Z" fill="url(#paint0_linear_25_377)"/>
<path fill-rule="evenodd" clip-rule="evenodd" d="M18.2024 24.3065L11.4885 30.0918L8.38678 26.4922L18.2157 18.0227L27.9683 26.4988L24.8513 30.0852L18.2024 24.3065Z" fill="url(#paint1_linear_25_377)"/>
<path d="M54.1276 22.9067H50.3263V38.7454H54.1276V22.9067Z" fill="black"/>
<path fill-rule="evenodd" clip-rule="evenodd" d="M42.644 38.8153C40.4031 38.8153 38.5358 38.0891 37.0211 36.6367C35.5065 35.1636 34.7595 33.2754 34.7595 30.9723C34.7595 28.6485 35.5272 26.7396 37.0419 25.2457C38.5772 23.7311 40.4446 22.9841 42.6647 22.9841C45.4035 22.9841 47.8312 24.1668 49.2419 26.0134L46.7729 28.607C45.5902 27.3413 44.3039 26.6981 42.9137 26.6981C41.731 26.6981 40.7559 27.0923 39.9467 27.9016C39.1582 28.7108 38.764 29.7274 38.764 30.9516C38.764 32.1343 39.1582 33.1302 39.9467 33.9394C40.7559 34.7279 41.731 35.1221 42.893 35.1221C44.4076 35.1221 45.7355 34.4581 46.8351 33.151L49.4081 35.62C48.7027 36.5537 47.7481 37.3214 46.5653 37.9231C45.383 38.5248 44.0756 38.8153 42.644 38.8153Z" fill="black"/>
<path fill-rule="evenodd" clip-rule="evenodd" d="M59.8291 24.1738C59.8291 25.3109 58.9076 26.2328 57.7703 26.2328C56.6331 26.2328 55.7112 25.3109 55.7112 24.1738C55.7112 23.0366 56.6331 22.1147 57.7703 22.1147C58.9076 22.1147 59.8291 23.0366 59.8291 24.1738ZM59.6708 27.1831H55.8696V38.7453H59.6708V27.1831Z" fill="black"/>
<path fill-rule="evenodd" clip-rule="evenodd" d="M67.0187 38.8359C65.2137 38.8359 63.7611 38.2757 62.6201 37.1553C61.4996 36.0349 60.9392 34.6032 60.9392 32.8396C60.9392 31.076 61.4996 29.6443 62.6406 28.5239C63.782 27.4035 65.255 26.8433 67.0809 26.8433C69.4672 26.8433 71.5625 28.0052 72.5377 30.1838L69.6122 31.7192C69.0313 30.744 68.2223 30.246 67.164 30.246C66.3964 30.246 65.7737 30.495 65.2759 30.993C64.7985 31.4909 64.5496 32.1134 64.5496 32.8396C64.5496 34.3542 65.6493 35.4747 67.1226 35.4747C68.1805 35.4747 69.1557 34.8937 69.5708 34.0015L72.4964 35.7444C71.5003 37.6533 69.4464 38.8359 67.0187 38.8359Z" fill="black"/>
<path fill-rule="evenodd" clip-rule="evenodd" d="M77.2522 22.9067H73.451V38.7453H77.2522V34.7132L77.6975 34.2979L81.1723 38.7453H85.5943L80.2556 31.9124L85.3271 27.1831H80.6823L77.2522 30.3819V22.9067Z" fill="black"/>
<path fill-rule="evenodd" clip-rule="evenodd" d="M86.28 32.7603V22.9067H90.2399V32.5396C90.2399 34.2618 91.2434 35.0917 92.6948 35.0917C94.125 35.0917 95.1497 34.2203 95.1497 32.5396V22.9067H99.1093V32.7603C99.1093 37.2834 95.9337 38.9848 92.6948 38.9848C89.4768 38.9848 86.28 37.2834 86.28 32.7603Z" fill="black"/>
<path fill-rule="evenodd" clip-rule="evenodd" d="M107.662 39.062C110.724 39.062 113.206 36.3674 113.206 33.0433C113.206 29.7193 110.724 27.0247 107.662 27.0247C106.414 27.0247 105.263 27.4724 104.336 28.2279V27.1831H100.693V43.4968H104.336V37.8588C105.263 38.6143 106.414 39.062 107.662 39.062ZM104.336 33.0495V33.0371C104.339 31.5529 105.508 30.3508 106.949 30.3508C108.393 30.3508 109.563 31.5563 109.563 33.0433C109.563 34.5304 108.393 35.7359 106.949 35.7359C105.508 35.7359 104.339 34.5337 104.336 33.0495Z" fill="black"/>
</g>
<defs>
<linearGradient id="paint0_linear_25_377" x1="7.94138" y1="44.0901" x2="28.3782" y2="44.0901" gradientUnits="userSpaceOnUse">
<stop stop-color="#8930FD"/>
<stop offset="1" stop-color="#49CCF9"/>
</linearGradient>
<linearGradient id="paint1_linear_25_377" x1="8.38678" y1="32.2649" x2="27.9683" y2="32.2649" gradientUnits="userSpaceOnUse">
<stop stop-color="#FF02F0"/>
<stop offset="1" stop-color="#FFC800"/>
</linearGradient>
<clipPath id="clip0_25_377">
<rect width="105.827" height="25.7115" fill="white" transform="translate(7.64517 17.9036)"/>
</clipPath>
</defs>
</svg>
