<svg width="120" height="61" viewBox="0 0 120 61" fill="none" xmlns="http://www.w3.org/2000/svg">
<rect width="119.242" height="59.6209" transform="translate(0.3479 0.762451)" fill="white"/>
<g clip-path="url(#clip0_347_32503)">
<path d="M37.3969 23.72H42.3584C46.6073 23.72 49.2936 26.4612 49.2936 30.7374C49.2936 35.0137 46.621 37.7549 42.3584 37.7549H37.3969V23.72ZM42.2488 35.1919C44.9214 35.1919 46.388 33.4786 46.388 30.7511C46.388 28.0099 44.9214 26.2967 42.2488 26.2967H40.3025V35.1919H42.2488Z" fill="#007EE5"/>
<path d="M56.8181 30.3401C56.4344 30.1071 55.9273 29.9974 55.3927 29.9974C54.4333 29.9974 53.6521 30.5045 53.4465 31.4365V37.7687H50.623V27.544H53.4602V28.5446C53.8988 27.8182 54.7348 27.311 55.7491 27.311C56.2288 27.311 56.6674 27.407 56.8181 27.4892V30.3401Z" fill="#007EE5"/>
<path d="M62.4788 38.0017C59.5046 38.0017 57.4624 35.8087 57.4624 32.6701C57.4624 29.5177 59.5046 27.311 62.4788 27.311C65.453 27.311 67.4815 29.504 67.4815 32.6701C67.4815 35.8087 65.453 38.0017 62.4788 38.0017ZM62.4788 29.7233C61.0534 29.7233 60.2858 30.9568 60.2858 32.6701C60.2858 34.3559 61.0671 35.6031 62.4788 35.6031C63.8905 35.6031 64.6717 34.3696 64.6717 32.6701C64.6717 30.9568 63.8905 29.7233 62.4788 29.7233Z" fill="#007EE5"/>
<path d="M71.5384 41.5515H68.7013V27.544H71.5384V28.3938C71.9907 27.8455 73.005 27.3247 74.1014 27.3247C77.0756 27.3247 78.7615 29.7918 78.7615 32.6837C78.7615 35.562 77.0756 38.0154 74.1014 38.0154C73.005 38.0154 71.9907 37.4945 71.5384 36.9463V41.5515ZM71.5384 34.3422C71.8811 35.0549 72.6349 35.5346 73.4573 35.5346C74.9923 35.5346 75.9106 34.301 75.9106 32.67C75.9106 31.0253 74.9923 29.7918 73.4573 29.7918C72.6075 29.7918 71.8811 30.2989 71.5384 30.9842V34.3422Z" fill="#007EE5"/>
<path d="M82.8459 37.7687H79.9813V22.8977H82.8459V28.3938C83.2982 27.8456 84.3124 27.3247 85.4089 27.3247C88.3831 27.3247 90.0552 29.7507 90.0552 32.6838C90.0552 35.6168 88.3831 38.0154 85.4089 38.0154C84.3124 38.0154 83.2982 37.4946 82.8459 36.9463V37.7687ZM82.8459 34.3422C83.1611 35.0549 83.9149 35.5346 84.7647 35.5346C86.2998 35.5346 87.2181 34.3011 87.2181 32.6701C87.2181 31.0253 86.2998 29.7918 84.7647 29.7918C83.9423 29.7918 83.1611 30.2989 82.8459 30.9842V34.3422Z" fill="#007EE5"/>
<path d="M96.0858 38.029C93.1117 38.029 91.0695 35.8361 91.0695 32.6974C91.0695 29.545 93.1117 27.3384 96.0858 27.3384C99.06 27.3384 101.089 29.5313 101.089 32.6974C101.089 35.8361 99.0463 38.029 96.0858 38.029ZM96.0858 29.7506C94.6604 29.7506 93.8929 30.9842 93.8929 32.6974C93.8929 34.3832 94.6741 35.6305 96.0858 35.6305C97.4976 35.6305 98.2788 34.3969 98.2788 32.6974C98.2788 30.9842 97.4976 29.7506 96.0858 29.7506Z" fill="#007EE5"/>
<path d="M107.462 32.4918L111.19 37.7823H108.051L105.858 34.5751L103.638 37.7823H100.664L104.35 32.5603L100.883 27.5576H104.022L105.995 30.4633L107.996 27.5576H110.97L107.462 32.4918Z" fill="#007EE5"/>
<path d="M16.0704 18.9092L8.68286 23.6651L13.7952 27.7906L21.2238 23.1991L16.0704 18.9092Z" fill="#007EE5"/>
<path d="M8.68286 31.8201L16.0704 36.672L21.2238 32.382L13.7952 27.7905L8.68286 31.8201Z" fill="#007EE5"/>
<path d="M21.2239 32.382L26.3773 36.672L33.7374 31.8749L28.6388 27.7905L21.2239 32.382Z" fill="#007EE5"/>
<path d="M33.7374 23.7063L26.3773 18.9092L21.2239 23.1991L28.6388 27.7906L33.7374 23.7063Z" fill="#007EE5"/>
<path d="M21.2376 33.3003L16.0705 37.5903L13.8501 36.1511V37.7684L21.2376 42.1955L28.6114 37.7684V36.1511L26.4048 37.5903L21.2376 33.3003Z" fill="#007EE5"/>
</g>
<defs>
<clipPath id="clip0_347_32503">
<rect width="102.795" height="23.8484" fill="white" transform="translate(8.54578 18.6487)"/>
</clipPath>
</defs>
</svg>
