<svg width="180" height="61" viewBox="0 0 180 61" fill="none" xmlns="http://www.w3.org/2000/svg">
<rect width="178.863" height="59.6209" transform="translate(0.758148 0.762451)" fill="white"/>
<g clip-path="url(#clip0_25_379)">
<path d="M68.1594 31.8138C68.1639 29.8778 67.5699 27.9878 66.4582 26.4026C65.3467 24.8175 63.7722 23.6148 61.9505 22.9594C62.1164 22.1144 62.1998 21.2554 62.2001 20.3943C62.2018 17.5441 61.2994 14.7668 59.6231 12.4617C57.9468 10.1567 55.5827 8.4425 52.8707 7.56573C50.1589 6.68896 47.2386 6.69474 44.5302 7.58223C41.8217 8.46973 39.4643 10.1932 37.7971 12.5049C36.5672 11.5518 35.06 11.0254 33.5041 11.0057C31.9481 10.9859 30.4281 11.4737 29.1743 12.3953C27.9204 13.3168 27.0011 14.6219 26.5555 16.1129C26.1099 17.6038 26.1624 19.1993 26.7049 20.6577C24.8789 21.3233 23.3006 22.5321 22.1821 24.1215C21.0637 25.7109 20.4588 27.6047 20.4488 29.5482C20.4438 31.4909 21.0411 33.3874 22.1585 34.9765C23.2758 36.5657 24.8584 37.7695 26.6882 38.422C26.5263 39.2667 26.4436 40.1244 26.4414 40.9843C26.4387 43.8311 27.3402 46.6053 29.0158 48.907C30.6915 51.2083 33.0548 52.9182 35.7649 53.7901C38.4751 54.6616 41.392 54.6503 44.0952 53.7571C46.7984 52.8641 49.1481 51.1357 50.8056 48.821C52.0321 49.7766 53.5365 50.306 55.0911 50.3293C56.6457 50.3526 58.1653 49.8681 59.4196 48.9497C60.6741 48.031 61.5948 46.7284 62.0418 45.2396C62.4891 43.7504 62.4386 42.1565 61.8978 40.6987C63.7247 40.0343 65.3043 38.8258 66.4232 37.2362C67.5424 35.6467 68.1472 33.7522 68.1567 31.8082" fill="white"/>
<path d="M39.2058 27.3821L49.6464 32.149L60.1841 22.9203C60.3358 22.1588 60.4112 21.384 60.4087 20.6075C60.4082 18.0937 59.6031 15.6461 58.1112 13.6228C56.6196 11.5995 54.5195 10.1067 52.1181 9.36292C49.7169 8.61912 47.1407 8.66334 44.7664 9.48911C42.3921 10.3149 40.3444 11.8788 38.923 13.9522L37.1676 23.0312L39.2058 27.3821Z" fill="#FEC514"/>
<path d="M28.3992 38.4385C28.2453 39.2119 28.1682 39.9986 28.1691 40.7873C28.1691 43.3116 28.9783 45.7694 30.4779 47.7998C31.9774 49.8305 34.0884 51.3269 36.5009 52.0695C38.9134 52.8121 41.5005 52.7619 43.8824 51.9261C46.2643 51.0906 48.3156 49.5133 49.7352 47.426L51.4739 38.3664L49.1528 33.9295L38.6734 29.1543L28.3992 38.4385Z" fill="#00BFB3"/>
<path d="M28.3354 20.3717L35.49 22.0605L37.0567 13.9244C36.0836 13.1865 34.8977 12.7837 33.6764 12.7762C32.4552 12.7688 31.2644 13.1571 30.2824 13.8831C29.3004 14.6091 28.5799 15.6337 28.229 16.8034C27.878 17.9731 27.9153 19.225 28.3354 20.3717Z" fill="#F04E98"/>
<path d="M27.7143 22.0745C26.1445 22.6042 24.7788 23.6099 23.8072 24.9518C22.8356 26.2937 22.3063 27.9051 22.2929 29.5617C22.2918 31.1629 22.7781 32.7264 23.687 34.0445C24.5959 35.3627 25.8846 36.3729 27.3815 36.9409L37.42 27.8674L35.5759 23.9296L27.7143 22.0745Z" fill="#1BA9F5"/>
<path d="M51.5709 47.4257C52.5426 48.1598 53.7256 48.5602 54.9433 48.5666C56.1609 48.5729 57.3481 48.1855 58.3272 47.4618C59.3067 46.738 60.0255 45.7167 60.3768 44.5506C60.7279 43.3848 60.6924 42.1364 60.2756 40.9922L53.1266 39.3284L51.5709 47.4257Z" fill="#93C90E"/>
<path d="M53.024 37.4457L60.894 39.2842C62.4647 38.756 63.8312 37.7507 64.8032 36.4083C65.7751 35.0661 66.3037 33.454 66.3153 31.797C66.3139 30.1992 65.8267 28.6397 64.9185 27.3252C64.0101 26.0108 62.7237 25.0036 61.2295 24.4373L50.9359 33.4497L53.024 37.4457Z" fill="#0077CC"/>
<path d="M87.1577 40.3019L88.1116 40.2048L88.1782 42.146C86.0554 42.4665 83.9135 42.6426 81.7669 42.6729C79.4006 42.6729 77.7237 41.9879 76.7365 40.618C75.7493 39.2481 75.2565 37.1165 75.2585 34.2233C75.2585 28.4609 77.549 25.5788 82.1301 25.5769C84.3486 25.5769 86.0033 26.1962 87.0939 27.4349C88.1849 28.6735 88.732 30.6146 88.7356 33.2583L88.6052 35.1329H77.757C77.757 36.952 78.0862 38.2997 78.7442 39.176C79.4026 40.0523 80.5467 40.4905 82.1773 40.4905C83.8117 40.496 85.4717 40.4331 87.1577 40.3019ZM86.2703 33.1696C86.2703 31.1526 85.9478 29.7282 85.3025 28.8963C84.6572 28.0643 83.6054 27.6475 82.1468 27.6456C80.6881 27.6456 79.592 28.0838 78.8579 28.96C78.1242 29.8363 77.7459 31.2395 77.7237 33.1696H86.2703Z" fill="#1C1E23"/>
<path d="M92.1742 42.5425V20.9126H94.6394V42.5425H92.1742Z" fill="#1C1E23"/>
<path d="M110.166 30.8678V39.1592C110.166 39.9911 112.212 39.9468 112.212 39.9468L112.088 42.1264C110.354 42.1264 108.921 42.2706 108.061 41.4359C106.2 42.2628 104.183 42.6835 102.146 42.6699C100.636 42.6699 99.4848 42.242 98.6937 41.386C97.9025 40.53 97.5076 39.2998 97.5096 37.695C97.5096 36.0942 97.9153 34.9156 98.7269 34.1594C99.5386 33.4033 100.81 32.9411 102.54 32.7729L107.701 32.282V30.8678C107.701 29.7585 107.46 28.9581 106.98 28.4663C106.716 28.2191 106.406 28.0277 106.066 27.9038C105.727 27.7799 105.366 27.726 105.005 27.7453H98.5273V25.574H104.842C106.705 25.574 108.058 26.002 108.901 26.8579C109.744 27.7139 110.166 29.0505 110.166 30.8678ZM100.036 37.573C100.036 39.5899 100.868 40.5984 102.532 40.5984C104.033 40.5968 105.523 40.3408 106.938 39.8414L107.692 39.578V34.1538L102.837 34.6142C101.849 34.7029 101.137 34.9877 100.699 35.4683C100.26 35.9488 100.039 36.6504 100.036 37.573Z" fill="#1C1E23"/>
<path d="M119.791 27.7786C117.401 27.7786 116.206 28.6106 116.206 30.2744C116.206 31.0435 116.483 31.5861 117.038 31.9022C117.592 32.2183 118.841 32.5474 120.784 32.8894C122.736 33.2314 124.117 33.7084 124.927 34.3203C125.737 34.9323 126.143 36.082 126.144 37.77C126.144 39.4596 125.602 40.6984 124.516 41.4859C123.431 42.2735 121.848 42.6681 119.766 42.67C118.407 42.67 113.871 42.1653 113.871 42.1653L114.004 40.0301C116.61 40.2796 118.493 40.4654 119.766 40.4654C121.039 40.4654 122.007 40.263 122.675 39.8581C123.343 39.4533 123.676 38.7739 123.676 37.8199C123.676 36.866 123.399 36.2199 122.822 35.8788C122.245 35.5377 121.003 35.216 119.076 34.9082C117.148 34.6004 115.776 34.1512 114.966 33.5605C114.156 32.9698 113.749 31.8717 113.749 30.2716C113.749 28.6716 114.303 27.4986 115.443 26.7221C116.583 25.9457 117.98 25.5713 119.666 25.5713C121.003 25.5713 125.642 25.9124 125.642 25.9124V28.0615C123.194 27.9534 121.192 27.7786 119.791 27.7786Z" fill="#1C1E23"/>
<path d="M138.027 28.0394H132.8V35.8982C132.8 37.782 132.936 39.0199 133.21 39.6114C133.487 40.2048 134.136 40.4987 135.165 40.4987L138.091 40.3019L138.257 42.3401C137.149 42.545 136.027 42.6662 134.902 42.7033C133.193 42.7033 132.01 42.2865 131.352 41.4527C130.694 40.6188 130.366 39.0298 130.368 36.6858V28.0394H128.044V25.9041H130.379V20.8738H132.811V25.9041H138.027V28.0394Z" fill="#1C1E23"/>
<path d="M141.454 23.8049V20.9431H143.92V23.8049H141.454ZM141.454 42.5425V25.9041H143.92V42.5425H141.454Z" fill="#1C1E23"/>
<path d="M154.599 25.574C155.83 25.6265 157.056 25.759 158.27 25.9705L159.058 26.0676L158.961 28.0725C157.672 27.9093 156.377 27.8112 155.078 27.7786C153.215 27.7786 151.95 28.2223 151.282 29.1096C150.615 29.997 150.28 31.6405 150.278 34.0401C150.278 36.4436 150.591 38.1146 151.216 39.0539C151.84 39.9931 153.144 40.4645 155.126 40.4681L159.008 40.1742L159.108 42.2124C157.596 42.4683 156.07 42.6222 154.538 42.6727C151.975 42.6727 150.206 42.0147 149.23 40.6983C148.254 39.3819 147.766 37.1635 147.766 34.0429C147.766 30.9204 148.292 28.7288 149.344 27.468C150.396 26.2072 152.147 25.5758 154.599 25.574Z" fill="#1C1E23"/>
</g>
<defs>
<clipPath id="clip0_25_379">
<rect width="138.653" height="47.6967" fill="white" transform="translate(20.4488 6.91406)"/>
</clipPath>
</defs>
</svg>
