<svg width="180" height="61" viewBox="0 0 180 61" fill="none" xmlns="http://www.w3.org/2000/svg">
<rect width="178.863" height="59.6209" transform="translate(0.758057 0.762451)" fill="white"/>
<g clip-path="url(#clip0_347_32504)">
<path d="M68.1594 31.8138C68.1638 29.8778 67.5698 27.9878 66.4581 26.4026C65.3466 24.8175 63.7721 23.6148 61.9505 22.9594C62.1163 22.1144 62.1998 21.2554 62.2 20.3943C62.2017 17.5441 61.2993 14.7668 59.623 12.4617C57.9467 10.1567 55.5827 8.4425 52.8706 7.56573C50.1588 6.68896 47.2386 6.69474 44.5301 7.58223C41.8216 8.46973 39.4643 10.1932 37.7971 12.5049C36.5671 11.5518 35.06 11.0254 33.504 11.0057C31.948 10.9859 30.428 11.4737 29.1742 12.3953C27.9203 13.3168 27.001 14.6219 26.5554 16.1129C26.1098 17.6038 26.1623 19.1993 26.7048 20.6577C24.8788 21.3233 23.3005 22.5321 22.182 24.1215C21.0636 25.7109 20.4587 27.6047 20.4488 29.5482C20.4437 31.4909 21.041 33.3874 22.1584 34.9765C23.2758 36.5657 24.8583 37.7695 26.6882 38.422C26.5262 39.2667 26.4435 40.1244 26.4414 40.9843C26.4386 43.8311 27.3401 46.6053 29.0158 48.907C30.6914 51.2083 33.0547 52.9182 35.7649 53.7901C38.475 54.6616 41.392 54.6503 44.0951 53.7571C46.7983 52.8641 49.148 51.1357 50.8055 48.821C52.032 49.7766 53.5364 50.306 55.091 50.3293C56.6456 50.3526 58.1652 49.8681 59.4195 48.9497C60.674 48.031 61.5947 46.7284 62.0417 45.2396C62.489 43.7504 62.4385 42.1565 61.8978 40.6987C63.7247 40.0343 65.3042 38.8258 66.4231 37.2362C67.5423 35.6467 68.1471 33.7522 68.1566 31.8082" fill="white"/>
<path d="M39.2057 27.3821L49.6463 32.149L60.1839 22.9203C60.3356 22.1588 60.4111 21.384 60.4086 20.6075C60.408 18.0937 59.603 15.6461 58.1111 13.6228C56.6194 11.5995 54.5194 10.1067 52.1179 9.36292C49.7167 8.61912 47.1405 8.66334 44.7663 9.48911C42.392 10.3149 40.3443 11.8788 38.9228 13.9522L37.1675 23.0312L39.2057 27.3821Z" fill="#FEC514"/>
<path d="M28.3991 38.4385C28.2452 39.2119 28.1681 39.9986 28.169 40.7873C28.169 43.3116 28.9782 45.7694 30.4778 47.7998C31.9773 49.8305 34.0883 51.3269 36.5008 52.0695C38.9133 52.8121 41.5004 52.7619 43.8823 51.9261C46.2642 51.0906 48.3155 49.5133 49.7351 47.426L51.4738 38.3664L49.1527 33.9295L38.6733 29.1543L28.3991 38.4385Z" fill="#00BFB3"/>
<path d="M28.3353 20.3717L35.4898 22.0605L37.0566 13.9244C36.0834 13.1865 34.8975 12.7837 33.6763 12.7762C32.4551 12.7688 31.2643 13.1571 30.2822 13.8831C29.3002 14.6091 28.5798 15.6337 28.2288 16.8034C27.8778 17.9731 27.9152 19.225 28.3353 20.3717Z" fill="#F04E98"/>
<path d="M27.7142 22.0745C26.1444 22.6042 24.7787 23.6099 23.8071 24.9518C22.8355 26.2937 22.3062 27.9051 22.2928 29.5617C22.2917 31.1629 22.778 32.7264 23.6869 34.0445C24.5958 35.3627 25.8845 36.3729 27.3814 36.9409L37.4199 27.8674L35.5758 23.9296L27.7142 22.0745Z" fill="#1BA9F5"/>
<path d="M51.5708 47.4257C52.5425 48.1598 53.7255 48.5602 54.9431 48.5666C56.1608 48.5729 57.3479 48.1855 58.3271 47.4618C59.3065 46.738 60.0253 45.7167 60.3767 44.5506C60.7277 43.3848 60.6922 42.1364 60.2755 40.9922L53.1265 39.3284L51.5708 47.4257Z" fill="#93C90E"/>
<path d="M53.024 37.4457L60.894 39.2842C62.4647 38.756 63.8312 37.7507 64.8032 36.4083C65.7751 35.0661 66.3037 33.454 66.3153 31.797C66.314 30.1992 65.8267 28.6397 64.9185 27.3252C64.0101 26.0108 62.7237 25.0036 61.2295 24.4373L50.9359 33.4497L53.024 37.4457Z" fill="#0077CC"/>
<path d="M87.1577 40.3019L88.1116 40.2048L88.1781 42.146C86.0554 42.4665 83.9134 42.6426 81.7668 42.6729C79.4006 42.6729 77.7237 41.9879 76.7365 40.618C75.7493 39.2481 75.2565 37.1165 75.2584 34.2233C75.2584 28.4609 77.549 25.5788 82.1301 25.5769C84.3485 25.5769 86.0032 26.1962 87.0939 27.4349C88.1848 28.6735 88.7319 30.6146 88.7355 33.2583L88.6052 35.1329H77.757C77.757 36.952 78.0861 38.2997 78.7442 39.176C79.4025 40.0523 80.5467 40.4905 82.1772 40.4905C83.8117 40.496 85.4716 40.4331 87.1577 40.3019ZM86.2703 33.1696C86.2703 31.1526 85.9478 29.7282 85.3025 28.8963C84.6572 28.0643 83.6054 27.6475 82.1467 27.6456C80.6881 27.6456 79.5919 28.0838 78.8579 28.96C78.1241 29.8363 77.7459 31.2395 77.7237 33.1696H86.2703Z" fill="#1C1E23"/>
<path d="M92.1741 42.5425V20.9126H94.6393V42.5425H92.1741Z" fill="#1C1E23"/>
<path d="M110.166 30.8678V39.1592C110.166 39.9911 112.212 39.9468 112.212 39.9468L112.087 42.1264C110.354 42.1264 108.921 42.2706 108.061 41.4359C106.199 42.2628 104.183 42.6835 102.146 42.6699C100.635 42.6699 99.4847 42.242 98.6935 41.386C97.9023 40.53 97.5075 39.2998 97.5094 37.695C97.5094 36.0942 97.9151 34.9156 98.7268 34.1594C99.5385 33.4033 100.809 32.9411 102.54 32.7729L107.7 32.282V30.8678C107.7 29.7585 107.46 28.9581 106.979 28.4663C106.716 28.2191 106.405 28.0277 106.066 27.9038C105.727 27.7799 105.366 27.726 105.005 27.7453H98.5271V25.574H104.841C106.705 25.574 108.058 26.002 108.901 26.8579C109.744 27.7139 110.166 29.0505 110.166 30.8678ZM100.036 37.573C100.036 39.5899 100.868 40.5984 102.531 40.5984C104.032 40.5968 105.522 40.3408 106.938 39.8414L107.692 39.578V34.1538L102.836 34.6142C101.849 34.7029 101.137 34.9877 100.698 35.4683C100.26 35.9488 100.039 36.6504 100.036 37.573Z" fill="#1C1E23"/>
<path d="M119.791 27.7786C117.401 27.7786 116.205 28.6106 116.205 30.2744C116.205 31.0435 116.483 31.5861 117.037 31.9022C117.592 32.2183 118.841 32.5474 120.784 32.8894C122.736 33.2314 124.117 33.7084 124.927 34.3203C125.737 34.9323 126.142 36.082 126.144 37.77C126.144 39.4596 125.602 40.6984 124.516 41.4859C123.431 42.2735 121.848 42.6681 119.766 42.67C118.407 42.67 113.871 42.1653 113.871 42.1653L114.004 40.0301C116.61 40.2796 118.493 40.4654 119.766 40.4654C121.039 40.4654 122.007 40.263 122.675 39.8581C123.343 39.4533 123.676 38.7739 123.676 37.8199C123.676 36.866 123.399 36.2199 122.822 35.8788C122.245 35.5377 121.003 35.216 119.076 34.9082C117.148 34.6004 115.776 34.1512 114.966 33.5605C114.156 32.9698 113.749 31.8717 113.749 30.2716C113.749 28.6716 114.303 27.4986 115.443 26.7221C116.583 25.9457 117.98 25.5713 119.666 25.5713C121.003 25.5713 125.642 25.9124 125.642 25.9124V28.0615C123.194 27.9534 121.191 27.7786 119.791 27.7786Z" fill="#1C1E23"/>
<path d="M138.027 28.0394H132.8V35.8982C132.8 37.782 132.936 39.0199 133.21 39.6114C133.487 40.2048 134.136 40.4987 135.165 40.4987L138.091 40.3019L138.257 42.3401C137.149 42.545 136.027 42.6662 134.901 42.7033C133.193 42.7033 132.01 42.2865 131.352 41.4527C130.694 40.6188 130.366 39.0298 130.368 36.6858V28.0394H128.044V25.9041H130.379V20.8738H132.811V25.9041H138.027V28.0394Z" fill="#1C1E23"/>
<path d="M141.454 23.8049V20.9431H143.919V23.8049H141.454ZM141.454 42.5425V25.9041H143.919V42.5425H141.454Z" fill="#1C1E23"/>
<path d="M154.599 25.574C155.83 25.6265 157.056 25.759 158.27 25.9705L159.058 26.0676L158.961 28.0725C157.672 27.9093 156.377 27.8112 155.078 27.7786C153.215 27.7786 151.949 28.2223 151.282 29.1096C150.615 29.997 150.28 31.6405 150.278 34.0401C150.278 36.4436 150.591 38.1146 151.215 39.0539C151.84 39.9931 153.144 40.4645 155.125 40.4681L159.008 40.1742L159.108 42.2124C157.596 42.4683 156.07 42.6222 154.538 42.6727C151.975 42.6727 150.206 42.0147 149.23 40.6983C148.254 39.3819 147.766 37.1635 147.766 34.0429C147.766 30.9204 148.292 28.7288 149.344 27.468C150.395 26.2072 152.147 25.5758 154.599 25.574Z" fill="#1C1E23"/>
</g>
<defs>
<clipPath id="clip0_347_32504">
<rect width="138.653" height="47.6967" fill="white" transform="translate(20.4487 6.91406)"/>
</clipPath>
</defs>
</svg>
