<svg width="240" height="80" viewBox="0 0 240 80" fill="none" xmlns="http://www.w3.org/2000/svg">
<rect width="240" height="80" fill="white"/>
<g clip-path="url(#clip0_25_214)">
<path d="M91.0186 41.4105C91.0246 38.8128 90.2275 36.2767 88.7358 34.1498C87.2445 32.0228 85.1317 30.4091 82.6874 29.5296C82.91 28.3958 83.022 27.2432 83.0223 26.0877C83.0246 22.2633 81.8138 18.5367 79.5645 15.4437C77.3152 12.3508 74.1431 10.0507 70.504 8.87422C66.8653 7.69776 62.9469 7.70552 59.3126 8.89637C55.6783 10.0872 52.5152 12.3998 50.2782 15.5017C48.6278 14.2228 46.6055 13.5165 44.5177 13.49C42.4299 13.4634 40.3903 14.118 38.7079 15.3546C37.0255 16.5911 35.7919 18.3423 35.194 20.3429C34.5961 22.3434 34.6665 24.4843 35.3945 26.4412C32.9443 27.3343 30.8265 28.9562 29.3257 31.0889C27.825 33.2216 27.0134 35.7628 27 38.3705C26.9932 40.9773 27.7947 43.522 29.294 45.6542C30.7933 47.7867 32.9168 49.402 35.3721 50.2775C35.1548 51.4109 35.0439 52.5618 35.041 53.7156C35.0373 57.5355 36.2469 61.258 38.4953 64.3463C40.7438 67.4343 43.9148 69.7287 47.5513 70.8985C51.1878 72.068 55.1018 72.0528 58.729 70.8542C62.3562 69.6561 65.509 67.3368 67.733 64.231C69.3788 65.5132 71.3974 66.2235 73.4834 66.2548C75.5693 66.2861 77.6084 65.636 79.2914 64.4036C80.9747 63.1709 82.21 61.4232 82.8099 59.4254C83.41 57.4273 83.3423 55.2885 82.6167 53.3324C85.0681 52.4408 87.1875 50.8193 88.6889 48.6864C90.1907 46.5536 91.0022 44.0116 91.0149 41.4031" fill="white"/>
<path d="M52.1684 35.4642L66.1777 41.8605L80.3172 29.4772C80.5207 28.4554 80.622 27.4158 80.6186 26.374C80.6179 23.0009 79.5377 19.7167 77.5358 17.0018C75.5343 14.2869 72.7165 12.2839 69.4941 11.2858C66.2722 10.2878 62.8154 10.3471 59.6296 11.4552C56.4438 12.5632 53.6961 14.6617 51.7888 17.4437L49.4335 29.626L52.1684 35.4642Z" fill="#FEC514"/>
<path d="M37.6679 50.2995C37.4614 51.3373 37.3579 52.3929 37.3591 53.4512C37.3592 56.8383 38.4449 60.1362 40.4571 62.8607C42.4692 65.5855 45.3017 67.5933 48.5389 68.5898C51.776 69.5862 55.2474 69.5189 58.4435 68.3974C61.6395 67.2763 64.392 65.1598 66.2967 62.3591L68.6298 50.2028L65.5153 44.2493L51.454 37.8419L37.6679 50.2995Z" fill="#00BFB3"/>
<path d="M37.5824 26.0577L47.1824 28.3237L49.2847 17.4065C47.9789 16.4164 46.3876 15.8759 44.749 15.8659C43.1103 15.8559 41.5125 16.377 40.1948 17.3512C38.8771 18.3253 37.9104 19.7001 37.4395 21.2696C36.9685 22.8391 37.0186 24.519 37.5824 26.0577Z" fill="#F04E98"/>
<path d="M36.7489 28.3423C34.6426 29.0531 32.8101 30.4026 31.5063 32.2032C30.2026 34.0038 29.4924 36.1659 29.4745 38.3888C29.473 40.5373 30.1254 42.6352 31.345 44.4039C32.5647 46.1727 34.2937 47.5282 36.3024 48.2902L49.7722 36.1154L47.2977 30.8316L36.7489 28.3423Z" fill="#1BA9F5"/>
<path d="M68.76 62.3591C70.0638 63.344 71.6512 63.8813 73.285 63.8899C74.9189 63.8984 76.5118 63.3786 77.8257 62.4074C79.1399 61.4363 80.1044 60.0659 80.5758 58.5012C81.0469 56.9369 80.9992 55.2618 80.44 53.7265L70.8474 51.4939L68.76 62.3591Z" fill="#93C90E"/>
<path d="M70.7098 48.9674L81.2698 51.4344C83.3773 50.7256 85.211 49.3767 86.5152 47.5754C87.8194 45.7745 88.5286 43.6114 88.5442 41.3879C88.5423 39.2441 87.8886 37.1514 86.67 35.3877C85.451 33.624 83.7248 32.2725 81.72 31.5126L67.9079 43.6056L70.7098 48.9674Z" fill="#0077CC"/>
<path d="M116.511 52.8L117.791 52.6698L117.88 55.2744C115.032 55.7046 112.158 55.9408 109.277 55.9814C106.102 55.9814 103.852 55.0623 102.527 53.2242C101.203 51.386 100.542 48.5258 100.544 44.6437C100.544 36.9116 103.618 33.0444 109.765 33.0419C112.741 33.0419 114.962 33.8729 116.425 35.5349C117.889 37.1969 118.623 39.8016 118.628 43.3488L118.453 45.8642H103.897C103.897 48.3051 104.338 50.1135 105.221 51.2893C106.105 52.4651 107.64 53.053 109.828 53.053C112.021 53.0605 114.248 52.976 116.511 52.8ZM115.32 43.2298C115.32 40.5234 114.887 38.6121 114.021 37.4958C113.156 36.3795 111.744 35.8202 109.787 35.8177C107.83 35.8177 106.359 36.4056 105.374 37.5814C104.389 38.7572 103.882 40.64 103.852 43.2298H115.32Z" fill="#1C1E23"/>
<path d="M123.242 55.8065V26.7833H126.55V55.8065H123.242Z" fill="#1C1E23"/>
<path d="M147.383 40.1414V51.267C147.383 52.3833 150.129 52.3237 150.129 52.3237L149.962 55.2484C147.636 55.2484 145.713 55.4419 144.559 54.3219C142.061 55.4314 139.355 55.9959 136.622 55.9777C134.596 55.9777 133.051 55.4035 131.99 54.2549C130.928 53.1062 130.398 51.4556 130.401 49.3023C130.401 47.1542 130.945 45.5728 132.034 44.5581C133.124 43.5436 134.829 42.9234 137.151 42.6977L144.075 42.0391V40.1414C144.075 38.653 143.753 37.5789 143.108 36.9191C142.754 36.5873 142.338 36.3306 141.882 36.1644C141.427 35.9981 140.943 35.9257 140.459 35.9516H131.766V33.0381H140.239C142.74 33.0381 144.555 33.6124 145.686 34.7609C146.818 35.9095 147.383 37.703 147.383 40.1414ZM133.791 49.1386C133.791 51.8448 134.907 53.1981 137.14 53.1981C139.154 53.1959 141.153 52.8525 143.052 52.1823L144.064 51.8288V44.5507L137.549 45.1684C136.224 45.2874 135.268 45.6696 134.68 46.3144C134.092 46.9593 133.796 47.9007 133.791 49.1386Z" fill="#1C1E23"/>
<path d="M160.299 35.9963C157.091 35.9963 155.487 37.1126 155.487 39.3451C155.487 40.3771 155.86 41.1051 156.604 41.5293C157.348 41.9535 159.024 42.3951 161.631 42.854C164.25 43.3129 166.103 43.9529 167.19 44.774C168.276 45.5952 168.821 47.1379 168.823 49.4028C168.823 51.67 168.095 53.3321 166.639 54.3888C165.183 55.4456 163.058 55.9751 160.265 55.9777C158.442 55.9777 152.354 55.3005 152.354 55.3005L152.533 52.4354C156.031 52.7702 158.557 53.0195 160.265 53.0195C161.973 53.0195 163.272 52.7479 164.168 52.2047C165.065 51.6614 165.512 50.7498 165.512 49.4698C165.512 48.1898 165.14 47.3228 164.366 46.8651C163.592 46.4074 161.925 45.9758 159.339 45.5628C156.753 45.1498 154.911 44.547 153.824 43.7544C152.738 42.9619 152.191 41.4884 152.191 39.3414C152.191 37.1944 152.935 35.6205 154.464 34.5786C155.993 33.5367 157.869 33.0344 160.131 33.0344C161.925 33.0344 168.15 33.4921 168.15 33.4921V36.3758C164.864 36.2307 162.178 35.9963 160.299 35.9963Z" fill="#1C1E23"/>
<path d="M184.767 36.3461H177.753V46.8912C177.753 49.4188 177.937 51.0798 178.304 51.8735C178.676 52.6698 179.547 53.0642 180.927 53.0642L184.853 52.8L185.076 55.5349C183.59 55.8099 182.085 55.9725 180.574 56.0223C178.282 56.0223 176.694 55.4631 175.811 54.3442C174.928 53.2253 174.488 51.0932 174.49 47.9479V36.3461H171.372V33.481H174.505V26.7312H177.768V33.481H184.767V36.3461Z" fill="#1C1E23"/>
<path d="M189.367 30.6642V26.8242H192.674V30.6642H189.367ZM189.367 55.8065V33.481H192.674V55.8065H189.367Z" fill="#1C1E23"/>
<path d="M207.004 33.0381C208.656 33.1087 210.301 33.2864 211.93 33.5702L212.987 33.7005L212.857 36.3907C211.128 36.1717 209.39 36.04 207.647 35.9963C205.147 35.9963 203.449 36.5916 202.553 37.7823C201.658 38.973 201.209 41.1783 201.207 44.3981C201.207 47.6231 201.626 49.8653 202.464 51.1256C203.303 52.3859 205.051 53.0184 207.711 53.0233L212.92 52.6288L213.054 55.3637C211.026 55.7072 208.978 55.9137 206.922 55.9814C203.484 55.9814 201.11 55.0984 199.8 53.3321C198.49 51.5658 197.835 48.589 197.835 44.4019C197.835 40.2121 198.541 37.2713 199.953 35.5795C201.364 33.8878 203.714 33.0406 207.004 33.0381Z" fill="#1C1E23"/>
</g>
<defs>
<clipPath id="clip0_25_214">
<rect width="186.047" height="64" fill="white" transform="translate(27 8)"/>
</clipPath>
</defs>
</svg>
