<svg width="35" height="25" viewBox="0 0 35 25" fill="none" xmlns="http://www.w3.org/2000/svg">
<path d="M31.1719 0.960938H3.82812C2.07813 0.960938 0.65625 2.38281 0.65625 4.13281V20.9219C0.65625 22.6719 2.07813 24.0938 3.82812 24.0938H31.1719C32.9219 24.0938 34.3438 22.6719 34.3438 20.9219V4.13281C34.3438 2.38281 32.9219 0.960938 31.1719 0.960938ZM31.1719 2.875C31.4453 2.875 31.6641 2.92969 31.8828 3.09375L18.2656 11.3516C17.7734 11.625 17.2266 11.625 16.7344 11.3516L3.11719 3.09375C3.33594 2.98438 3.55469 2.875 3.82812 2.875H31.1719ZM31.1719 22.125H3.82812C3.17188 22.125 2.57031 21.5781 2.57031 20.8672V5.00781L15.6953 12.9922C16.2422 13.3203 16.8438 13.4844 17.4453 13.4844C18.0469 13.4844 18.6484 13.3203 19.1953 12.9922L32.3203 5.00781V20.8672C32.4297 21.5781 31.8281 22.125 31.1719 22.125Z" fill="white"/>
</svg>
