<svg width="20" height="20" viewBox="0 0 20 20" fill="none" xmlns="http://www.w3.org/2000/svg">
<path d="M10.0021 6.45829C9.33901 6.45829 8.70313 6.72168 8.23429 7.19053C7.76544 7.65937 7.50205 8.29525 7.50205 8.95829C7.50205 9.62133 7.76544 10.2572 8.23429 10.7261C8.70313 11.1949 9.33901 11.4583 10.0021 11.4583C10.6651 11.4583 11.301 11.1949 11.7698 10.7261C12.2387 10.2572 12.5021 9.62133 12.5021 8.95829C12.5021 8.29525 12.2387 7.65937 11.7698 7.19053C11.301 6.72168 10.6651 6.45829 10.0021 6.45829ZM8.54372 8.95829C8.54372 8.57152 8.69736 8.20059 8.97086 7.9271C9.24435 7.6536 9.61528 7.49996 10.0021 7.49996C10.3888 7.49996 10.7598 7.6536 11.0332 7.9271C11.3067 8.20059 11.4604 8.57152 11.4604 8.95829C11.4604 9.34507 11.3067 9.716 11.0332 9.98949C10.7598 10.263 10.3888 10.4166 10.0021 10.4166C9.61528 10.4166 9.24435 10.263 8.97086 9.98949C8.69736 9.716 8.54372 9.34507 8.54372 8.95829ZM15.4166 13.3333L11.2133 17.7958C11.0575 17.9613 10.8695 18.0931 10.6608 18.1832C10.4521 18.2733 10.2273 18.3198 9.99997 18.3198C9.77268 18.3198 9.5478 18.2733 9.33914 18.1832C9.13048 18.0931 8.94246 17.9613 8.78664 17.7958L4.5833 13.3333H4.59914L4.59205 13.325L4.5833 13.3145C3.50443 12.0386 2.91377 10.4209 2.91664 8.74996C2.91664 4.83788 6.08789 1.66663 9.99997 1.66663C13.9121 1.66663 17.0833 4.83788 17.0833 8.74996C17.0862 10.4209 16.4955 12.0386 15.4166 13.3145L15.4079 13.325L15.4008 13.3333H15.4166ZM14.6071 12.6587C15.5354 11.5682 16.0441 10.1821 16.0416 8.74996C16.0416 5.41329 13.3366 2.70829 9.99997 2.70829C6.6633 2.70829 3.9583 5.41329 3.9583 8.74996C3.9557 10.1822 4.46442 11.5682 5.39289 12.6587L5.52122 12.81L9.54497 17.0812C9.6034 17.1433 9.67391 17.1927 9.75216 17.2265C9.8304 17.2603 9.91474 17.2777 9.99997 17.2777C10.0852 17.2777 10.1695 17.2603 10.2478 17.2265C10.326 17.1927 10.3965 17.1433 10.455 17.0812L14.4787 12.81L14.6071 12.6587Z" fill="#ADADAD"/>
</svg>
