<svg width="20" height="20" viewBox="0 0 20 20" fill="none" xmlns="http://www.w3.org/2000/svg">
<path d="M10.0021 6.45829C9.33904 6.45829 8.70316 6.72168 8.23432 7.19053C7.76548 7.65937 7.50208 8.29525 7.50208 8.95829C7.50208 9.62133 7.76548 10.2572 8.23432 10.7261C8.70316 11.1949 9.33904 11.4583 10.0021 11.4583C10.6651 11.4583 11.301 11.1949 11.7698 10.7261C12.2387 10.2572 12.5021 9.62133 12.5021 8.95829C12.5021 8.29525 12.2387 7.65937 11.7698 7.19053C11.301 6.72168 10.6651 6.45829 10.0021 6.45829ZM8.54375 8.95829C8.54375 8.57152 8.6974 8.20059 8.97089 7.9271C9.24438 7.6536 9.61531 7.49996 10.0021 7.49996C10.3889 7.49996 10.7598 7.6536 11.0333 7.9271C11.3068 8.20059 11.4604 8.57152 11.4604 8.95829C11.4604 9.34507 11.3068 9.716 11.0333 9.98949C10.7598 10.263 10.3889 10.4166 10.0021 10.4166C9.61531 10.4166 9.24438 10.263 8.97089 9.98949C8.6974 9.716 8.54375 9.34507 8.54375 8.95829ZM15.4167 13.3333L11.2133 17.7958C11.0575 17.9613 10.8695 18.0931 10.6608 18.1832C10.4522 18.2733 10.2273 18.3198 10 18.3198C9.77271 18.3198 9.54783 18.2733 9.33917 18.1832C9.13051 18.0931 8.94249 17.9613 8.78667 17.7958L4.58333 13.3333H4.59917L4.59208 13.325L4.58333 13.3145C3.50446 12.0386 2.9138 10.4209 2.91667 8.74996C2.91667 4.83788 6.08792 1.66663 10 1.66663C13.9121 1.66663 17.0833 4.83788 17.0833 8.74996C17.0862 10.4209 16.4955 12.0386 15.4167 13.3145L15.4079 13.325L15.4008 13.3333H15.4167ZM14.6071 12.6587C15.5355 11.5682 16.0442 10.1821 16.0417 8.74996C16.0417 5.41329 13.3367 2.70829 10 2.70829C6.66333 2.70829 3.95833 5.41329 3.95833 8.74996C3.95573 10.1822 4.46445 11.5682 5.39292 12.6587L5.52125 12.81L9.545 17.0812C9.60343 17.1433 9.67394 17.1927 9.75219 17.2265C9.83044 17.2603 9.91477 17.2777 10 17.2777C10.0852 17.2777 10.1696 17.2603 10.2478 17.2265C10.3261 17.1927 10.3966 17.1433 10.455 17.0812L14.4787 12.81L14.6071 12.6587Z" fill="#ADADAD"/>
</svg>
