<svg width="138" height="61" viewBox="0 0 138 61" fill="none" xmlns="http://www.w3.org/2000/svg">
<g clip-path="url(#clip0_25_386)">
<rect width="137.128" height="59.6209" transform="translate(0.656311 0.741211)" fill="white"/>
<path d="M30.3037 29.3875V26.1852H40.9004C41.0219 26.8379 41.0803 27.5009 41.075 28.1648C41.075 30.4937 40.4346 33.4631 38.3385 35.501C36.3007 37.6552 33.7389 38.7615 30.2454 38.7615C23.8991 38.7615 18.5425 33.5796 18.5425 27.2332C18.5425 20.8868 23.8991 15.6467 30.2454 15.6467C33.7971 15.6467 36.3007 17.0441 38.2221 18.849L35.9514 21.0615C34.7686 19.9327 33.2776 19.1799 31.667 18.8984C30.0565 18.6168 28.3986 18.8191 26.9029 19.4796C25.4073 20.1402 24.1411 21.2294 23.2645 22.6095C22.3878 23.9896 21.94 25.5986 21.9777 27.2332C21.9777 31.8911 25.6458 35.6174 30.2454 35.6174C33.2731 35.6174 35.0198 34.3947 36.126 33.2885C36.9994 32.4151 37.5816 31.1342 37.8145 29.3875H30.3037Z" fill="#4285F4"/>
<path d="M57.2022 31.3091C57.2022 35.6176 53.8252 38.7617 49.6914 38.7617C45.5575 38.7617 42.2387 35.6176 42.2387 31.3091C42.2387 27.0005 45.6157 23.8564 49.6914 23.8564C53.767 23.8564 57.2022 27.0005 57.2022 31.3091ZM53.8834 31.3091C53.8834 28.6308 51.9621 26.8258 49.6914 26.8258C47.4206 26.8258 45.4993 28.6308 45.4993 31.3091C45.4993 33.9873 47.4789 35.8505 49.6914 35.8505C51.9038 35.8505 53.8834 33.9873 53.8834 31.3091Z" fill="#EA4335"/>
<path d="M73.505 31.3091C73.505 35.6176 70.128 38.7617 65.9941 38.7617C61.8603 38.7617 58.5415 35.6176 58.5415 31.3091C58.5415 27.0005 61.9185 23.8564 65.9941 23.8564C70.0698 23.8564 73.505 27.0005 73.505 31.3091ZM70.1862 31.3091C70.1862 28.6308 68.2649 26.8258 65.9941 26.8258C63.7234 26.8258 61.8021 28.6308 61.8021 31.3091C61.8021 33.9873 63.7817 35.8505 65.9941 35.8505C68.2066 35.8505 70.1862 33.9873 70.1862 31.3091Z" fill="#FBBC04"/>
<path d="M89.1088 24.3222V37.7136C89.1088 43.1867 85.8483 45.4574 82.0056 45.4574C78.3957 45.4574 76.2414 43.012 75.4263 41.0324L78.2792 39.8679C78.8033 41.0906 80.026 42.5462 82.0056 42.5462C84.5092 42.5462 86.023 40.9742 86.023 38.1794V37.0732H85.9065C85.4111 37.6281 84.7995 38.067 84.1152 38.3589C83.4309 38.6507 82.6908 38.7882 81.9473 38.7617C78.2792 38.7617 74.8441 35.5012 74.8441 31.3673C74.8441 27.1752 78.2792 23.8564 81.9473 23.8564C83.7523 23.8564 85.1496 24.6716 85.9065 25.5449H86.023V24.3222H89.1088ZM86.2559 31.3673C86.2559 28.7472 84.5092 26.8258 82.2384 26.8258C80.026 26.8258 78.1046 28.7472 78.1046 31.3673C78.1046 33.9291 80.026 35.8505 82.2384 35.8505C84.5092 35.8505 86.2559 33.9291 86.2559 31.3673Z" fill="#4285F4"/>
<path d="M91.3794 16.5203H94.6399V38.3541H91.3794V16.5203Z" fill="#34A853"/>
<path d="M107.274 33.7545L109.836 35.5012C109.021 36.6656 107.042 38.7617 103.606 38.7617C99.3561 38.7617 96.212 35.5012 96.212 31.3091C96.212 26.8841 99.4143 23.8564 103.257 23.8564C107.1 23.8564 109.021 26.9423 109.603 28.6308L109.953 29.4459L99.9965 33.5798C100.753 35.0936 101.918 35.8505 103.606 35.8505C105.295 35.8505 106.401 35.0354 107.274 33.7545ZM99.4725 31.0762L106.11 28.3397C105.761 27.4081 104.654 26.7676 103.374 26.7676C101.685 26.7676 99.3561 28.2232 99.4725 31.0762Z" fill="#EA4335"/>
</g>
<defs>
<clipPath id="clip0_25_386">
<rect width="137.128" height="59.6209" fill="white" transform="translate(0.656311 0.741211)"/>
</clipPath>
</defs>
</svg>
