<svg width="138" height="61" viewBox="0 0 138 61" fill="none" xmlns="http://www.w3.org/2000/svg">
<g clip-path="url(#clip0_347_32511)">
<rect width="137.128" height="59.6209" transform="translate(0.656494 0.383301)" fill="white"/>
<path d="M30.3039 29.0296V25.8273H40.9006C41.0221 26.48 41.0806 27.1429 41.0752 27.8069C41.0752 30.1358 40.4348 33.1052 38.3387 35.143C36.3009 37.2973 33.7391 38.4036 30.2457 38.4036C23.8993 38.4036 18.5427 33.2217 18.5427 26.8753C18.5427 20.5289 23.8993 15.2888 30.2457 15.2888C33.7973 15.2888 36.3009 16.6862 38.2223 18.4911L35.9516 20.7036C34.7688 19.5748 33.2778 18.822 31.6673 18.5404C30.0567 18.2589 28.3988 18.4612 26.9032 19.1217C25.4075 19.7823 24.1414 20.8715 23.2647 22.2516C22.388 23.6317 21.9402 25.2407 21.9779 26.8753C21.9779 31.5332 25.646 35.2595 30.2457 35.2595C33.2733 35.2595 35.02 34.0368 36.1262 32.9306C36.9996 32.0572 37.5818 30.7763 37.8147 29.0296H30.3039Z" fill="#4285F4"/>
<path d="M57.2025 30.9512C57.2025 35.2597 53.8255 38.4038 49.6916 38.4038C45.5578 38.4038 42.239 35.2597 42.239 30.9512C42.239 26.6426 45.616 23.4985 49.6916 23.4985C53.7673 23.4985 57.2025 26.6426 57.2025 30.9512ZM53.8837 30.9512C53.8837 28.2729 51.9623 26.4679 49.6916 26.4679C47.4209 26.4679 45.4995 28.2729 45.4995 30.9512C45.4995 33.6294 47.4791 35.4926 49.6916 35.4926C51.9041 35.4926 53.8837 33.6294 53.8837 30.9512Z" fill="#EA4335"/>
<path d="M73.5052 30.9512C73.5052 35.2597 70.1282 38.4038 65.9944 38.4038C61.8605 38.4038 58.5417 35.2597 58.5417 30.9512C58.5417 26.6426 61.9187 23.4985 65.9944 23.4985C70.07 23.4985 73.5052 26.6426 73.5052 30.9512ZM70.1865 30.9512C70.1865 28.2729 68.2651 26.4679 65.9944 26.4679C63.7236 26.4679 61.8023 28.2729 61.8023 30.9512C61.8023 33.6294 63.7819 35.4926 65.9944 35.4926C68.2069 35.4926 70.1865 33.6294 70.1865 30.9512Z" fill="#FBBC04"/>
<path d="M89.109 23.9643V37.3557C89.109 42.8288 85.8485 45.0995 82.0057 45.0995C78.3959 45.0995 76.2416 42.6541 75.4265 40.6745L78.2794 39.51C78.8034 40.7327 80.0261 42.1883 82.0057 42.1883C84.5093 42.1883 86.0232 40.6163 86.0232 37.8215V36.7153H85.9067C85.4113 37.2702 84.7996 37.7091 84.1154 38.001C83.4311 38.2928 82.6909 38.4303 81.9475 38.4038C78.2794 38.4038 74.8442 35.1432 74.8442 31.0094C74.8442 26.8173 78.2794 23.4985 81.9475 23.4985C83.7524 23.4985 85.1498 24.3137 85.9067 25.187H86.0232V23.9643H89.109ZM86.2561 31.0094C86.2561 28.3893 84.5093 26.4679 82.2386 26.4679C80.0261 26.4679 78.1048 28.3893 78.1048 31.0094C78.1048 33.5712 80.0261 35.4926 82.2386 35.4926C84.5093 35.4926 86.2561 33.5712 86.2561 31.0094Z" fill="#4285F4"/>
<path d="M91.3796 16.1624H94.6402V37.9962H91.3796V16.1624Z" fill="#34A853"/>
<path d="M107.275 33.3965L109.836 35.1432C109.021 36.3077 107.042 38.4038 103.607 38.4038C99.3562 38.4038 96.2122 35.1432 96.2122 30.9512C96.2122 26.5262 99.4145 23.4985 103.257 23.4985C107.1 23.4985 109.021 26.5844 109.604 28.2729L109.953 29.088L99.9967 33.2219C100.754 34.7357 101.918 35.4926 103.607 35.4926C105.295 35.4926 106.401 34.6775 107.275 33.3965ZM99.4727 30.7183L106.11 27.9817C105.761 27.0502 104.655 26.4097 103.374 26.4097C101.685 26.4097 99.3562 27.8653 99.4727 30.7183Z" fill="#EA4335"/>
</g>
<defs>
<clipPath id="clip0_347_32511">
<rect width="137.128" height="59.6209" fill="white" transform="translate(0.656494 0.383301)"/>
</clipPath>
</defs>
</svg>
