<svg width="53" height="44" viewBox="0 0 53 44" fill="none" xmlns="http://www.w3.org/2000/svg">
<path d="M27.0836 0.0469995C26.8434 0.0465895 26.6061 0.0976991 26.3892 0.196566C26.1724 0.295432 25.9815 0.439537 25.8306 0.61827L25.5446 0.820979C20.0023 -0.819121 13.6792 0.384847 9.27739 4.43903C7.43408 6.11102 6.06281 8.2013 5.291 10.5156C4.51919 12.8299 4.37188 15.2932 4.86277 17.6765C4.80822 17.7226 4.75465 17.7697 4.70213 17.8178L2.19922 20.1213C1.71506 20.5604 1.32949 21.0891 1.066 21.6752C0.80251 22.2613 0.666626 22.8926 0.666626 23.5305C0.666626 24.1685 0.80251 24.7997 1.066 25.3859C1.32949 25.972 1.71506 26.5007 2.19922 26.9397C3.47798 28.1191 5.25154 28.5614 6.89979 28.2665C7.10221 29.1542 7.57452 29.9988 8.32314 30.6868C9.30952 31.5959 10.5915 32.0658 11.8831 32.0996C11.9184 33.2882 12.4293 34.4676 13.4157 35.3767C14.4021 36.2858 15.6873 36.7588 16.9789 36.7895C17.011 37.9781 17.5251 39.1606 18.5115 40.0697C19.4558 40.9264 20.6928 41.4271 21.9935 41.479C23.2942 41.5309 24.5706 41.1307 25.5864 40.3523L26.9905 41.6423C29.0468 43.5373 32.3818 43.5373 34.4381 41.6423C35.4213 40.7393 35.9322 39.566 35.9771 38.3805C37.2623 38.3436 38.5314 37.8737 39.5114 36.9707C40.4946 36.0647 41.0054 34.8914 41.044 33.7059C42.3498 33.6621 43.593 33.1603 44.5365 32.2962C45.3172 31.5805 45.7992 30.6929 45.9855 29.7654C46.8125 29.904 47.6621 29.855 48.4657 29.6224C49.2693 29.3899 50.0045 28.9801 50.6122 28.4263C51.0969 27.9872 51.4829 27.4583 51.7467 26.8719C52.0104 26.2855 52.1465 25.6538 52.1465 25.0155C52.1465 24.3772 52.0104 23.7456 51.7467 23.1592C51.4829 22.5728 51.0969 22.0439 50.6122 21.6048L48.2989 19.4763L48.7712 17.7871C49.7266 14.3336 49.2428 10.6604 47.4217 7.54109C44.7357 2.91564 39.5243 0.0592848 33.8887 0.0592848H29.9368C29.7666 0.0512224 29.5963 0.0471262 29.4259 0.0469995H27.0836ZM34.965 11.4601L42.6922 18.5764L42.7019 18.5826L48.2957 23.7363C48.4774 23.901 48.6221 24.0994 48.721 24.3193C48.8199 24.5393 48.8709 24.7761 48.8709 25.0155C48.8709 25.2549 48.8199 25.4918 48.721 25.7117C48.6221 25.9316 48.4774 26.13 48.2957 26.2947C47.9203 26.6345 47.423 26.8239 46.906 26.8239C46.3891 26.8239 45.8918 26.6345 45.5164 26.2947L41.2721 22.388C40.961 22.1027 40.5466 21.9434 40.1154 21.9434C39.6843 21.9434 39.2699 22.1027 38.9588 22.388L38.9138 22.4248C38.7623 22.562 38.6417 22.7273 38.5592 22.9105C38.4768 23.0938 38.4342 23.2911 38.4342 23.4906C38.4342 23.6901 38.4768 23.8874 38.5592 24.0707C38.6417 24.2539 38.7623 24.4192 38.9138 24.5564L42.2231 27.6031C42.9943 28.3095 42.9943 29.4582 42.2231 30.1677C41.8819 30.4768 41.4387 30.6627 40.9697 30.6936C40.5007 30.7244 40.0351 30.5982 39.6528 30.3366C39.3337 30.1163 38.944 30.0097 38.5513 30.0356C38.1586 30.0614 37.7878 30.2179 37.5033 30.4779C37.2253 30.7321 37.0574 31.0769 37.033 31.4438C37.0086 31.8108 37.1294 32.1732 37.3716 32.4589C37.66 32.8043 37.8022 33.2406 37.7701 33.6814C37.7379 34.1222 37.5338 34.5355 37.1981 34.8392C36.852 35.153 36.4011 35.3398 35.9249 35.3668C35.4488 35.3938 34.978 35.2591 34.5956 34.9867C34.2781 34.759 33.8867 34.6459 33.4905 34.6672C33.0943 34.6886 32.7187 34.8431 32.43 35.1034C32.1483 35.3571 31.9775 35.7034 31.9519 36.0725C31.9263 36.4417 32.0477 36.8065 32.2919 37.0936C32.5871 37.4436 32.7335 37.887 32.7019 38.3355C32.6703 38.7841 32.4631 39.2048 32.1216 39.5138C31.7413 39.8588 31.237 40.0512 30.7127 40.0512C30.1884 40.0512 29.6841 39.8588 29.3038 39.5138L27.9126 38.2331L28.4202 37.7662C28.9049 37.3271 29.2909 36.7982 29.5547 36.2118C29.8185 35.6254 29.9545 34.9938 29.9545 34.3555C29.9545 33.7172 29.8185 33.0855 29.5547 32.4991C29.2909 31.9127 28.9049 31.3839 28.4202 30.9448C27.46 30.065 26.1899 29.561 24.8603 29.5319C24.8213 28.2883 24.2705 27.1095 23.3277 26.2517C22.3662 25.3724 21.0949 24.8695 19.7645 24.842C19.7255 23.5983 19.1748 22.4196 18.2319 21.5618C17.6147 21.0002 16.8664 20.5872 16.049 20.357C15.2315 20.1268 14.3685 20.086 13.5314 20.238C13.3196 19.3138 12.824 18.4711 12.108 17.8178C11.5592 17.3172 10.9052 16.9339 10.1894 16.6935C9.47372 16.4531 8.71267 16.361 7.95686 16.4234C7.70374 14.6237 7.90084 12.7922 8.53198 11.0794C9.16313 9.36659 10.2103 7.82134 11.5875 6.57054C12.9792 5.29959 14.6477 4.33868 16.4736 3.75671C18.2995 3.17473 20.2374 2.98611 22.1485 3.20434L17.4737 6.49069C16.8755 6.90615 16.3717 7.43318 15.9925 8.03996C15.6134 8.64674 15.3668 9.32068 15.2677 10.0211C15.1687 10.7215 15.2191 11.4338 15.416 12.1151C15.6129 12.7963 15.9522 13.4324 16.4134 13.9848C17.3461 15.1027 18.6939 15.8339 20.1762 16.0261C21.6585 16.2183 23.1613 15.8568 24.3719 15.0168L29.4355 11.4632H34.9618L34.965 11.4601ZM19.3757 8.96312L27.7038 3.11835H29.4259C29.5834 3.11755 29.7409 3.12164 29.8982 3.13063H33.8887C38.3997 3.13063 42.5155 5.41879 44.6136 9.03376C46.0337 11.4786 46.4064 14.3196 45.6642 17.0008L45.6546 17.0316L36.7868 8.84027C36.4863 8.55207 36.0783 8.38968 35.6526 8.38878H28.9054C28.5644 8.38941 28.2324 8.49375 27.9576 8.6867L22.4698 12.5382C21.9308 12.9071 21.2646 13.0653 20.6076 12.9802C19.9506 12.8951 19.3525 12.5733 18.9356 12.0805C18.7413 11.8517 18.598 11.5874 18.5146 11.3037C18.4313 11.0199 18.4095 10.7229 18.4508 10.4309C18.492 10.1388 18.5953 9.85796 18.7544 9.60553C18.9135 9.35311 19.1249 9.13448 19.3757 8.96312ZM20.7959 35.4074L20.828 35.3767L23.3277 33.0732L23.3566 33.0486C23.734 32.7206 24.2273 32.5411 24.7374 32.5462C25.2475 32.5513 25.7368 32.7407 26.1069 33.0763C26.2886 33.241 26.4333 33.4394 26.5322 33.6593C26.6311 33.8792 26.6821 34.1161 26.6821 34.3555C26.6821 34.5949 26.6311 34.8318 26.5322 35.0517C26.4333 35.2716 26.2886 35.47 26.1069 35.6347L23.604 37.9382C23.2287 38.278 22.7314 38.4674 22.2144 38.4674C21.6974 38.4674 21.2001 38.278 20.8248 37.9382C20.6455 37.7759 20.5021 37.5809 20.4031 37.3647C20.3041 37.1484 20.2515 36.9154 20.2485 36.6793C20.2455 36.4433 20.2922 36.2091 20.3856 35.9906C20.4791 35.7721 20.6175 35.5738 20.7927 35.4074H20.7959ZM21.0433 30.9171L21.0111 30.9448L18.5115 33.2483L18.4793 33.2759C18.1017 33.6027 17.6088 33.7811 17.0995 33.7754C16.5901 33.7697 16.1018 33.5803 15.7322 33.2452C15.5526 33.0822 15.4091 32.8863 15.3103 32.6692C15.2116 32.452 15.1596 32.2181 15.1575 31.9813C15.1554 31.7445 15.2032 31.5098 15.2981 31.2911C15.393 31.0723 15.533 30.8741 15.7097 30.7083L15.7322 30.6868L18.2319 28.3833L18.2544 28.3618C18.6314 28.0311 19.1256 27.8494 19.6372 27.8534C20.1488 27.8574 20.6398 28.0468 21.0111 28.3833C21.191 28.5456 21.3348 28.7408 21.4341 28.9573C21.5334 29.1739 21.5861 29.4073 21.5891 29.6437C21.5921 29.8801 21.5453 30.1146 21.4515 30.3334C21.3578 30.5522 21.2189 30.7507 21.0433 30.9171ZM15.9186 26.2517L13.4157 28.5553L13.3932 28.5767C13.0162 28.9074 12.522 29.0891 12.0104 29.0851C11.4988 29.0811 11.0078 28.8917 10.6365 28.5553C10.4548 28.3905 10.3101 28.1922 10.2112 27.9722C10.1123 27.7523 10.0613 27.5154 10.0613 27.276C10.0613 27.0366 10.1123 26.7998 10.2112 26.5798C10.3101 26.3599 10.4548 26.1615 10.6365 25.9968L13.1362 23.6933C13.5117 23.3526 14.0097 23.1627 14.5274 23.1627C15.0451 23.1627 15.5431 23.3526 15.9186 23.6933C16.0988 23.8563 16.2427 24.0524 16.3417 24.2699C16.4408 24.4873 16.4929 24.7216 16.495 24.9587C16.4971 25.1959 16.4491 25.431 16.3539 25.65C16.2588 25.869 16.1183 26.0674 15.9411 26.2333L15.9186 26.2517ZM9.79468 22.5078L7.29499 24.8113C6.91984 25.1527 6.42172 25.3431 5.90377 25.3431C5.38582 25.3431 4.88771 25.1527 4.51256 24.8113C4.33035 24.6465 4.1852 24.448 4.08601 24.2277C3.98682 24.0075 3.93566 23.7703 3.93566 23.5305C3.93566 23.2908 3.98682 23.0535 4.08601 22.8333C4.1852 22.6131 4.33035 22.4145 4.51256 22.2498L7.01546 19.9463C7.39081 19.6065 7.88811 19.4171 8.40507 19.4171C8.92202 19.4171 9.41932 19.6065 9.79468 19.9463C9.97689 20.111 10.122 20.3096 10.2212 20.5298C10.3204 20.75 10.3716 20.9873 10.3716 21.227C10.3716 21.4668 10.3204 21.704 10.2212 21.9242C10.122 22.1444 9.97689 22.343 9.79468 22.5078Z" fill="#F7A6FF"/>
</svg>
