<svg width="18" height="17" viewBox="0 0 18 17" fill="none" xmlns="http://www.w3.org/2000/svg">
<path d="M8.91786 11.6121C10.6928 11.6121 12.1316 10.2038 12.1316 8.46646C12.1316 6.72916 10.6928 5.3208 8.91786 5.3208C7.14295 5.3208 5.7041 6.72916 5.7041 8.46646C5.7041 10.2038 7.14295 11.6121 8.91786 11.6121Z" fill="white"/>
<path d="M12.4085 0.0600586H5.37149C2.5733 0.0600586 0.301514 2.28371 0.301514 5.02261V11.8563C0.301514 14.6494 2.5733 16.8731 5.37149 16.8731H12.3531C15.2067 16.8731 17.4785 14.6494 17.4785 11.9105V5.02261C17.4785 2.28371 15.2067 0.0600586 12.4085 0.0600586ZM8.9177 12.5885C6.56279 12.5885 4.70657 10.7173 4.70657 8.46656C4.70657 6.21579 6.5905 4.34466 8.9177 4.34466C11.2172 4.34466 13.1011 6.21579 13.1011 8.46656C13.1011 10.7173 11.2449 12.5885 8.9177 12.5885ZM14.7357 4.72431C14.4587 5.02261 14.0431 5.18531 13.5721 5.18531C13.1565 5.18531 12.741 5.02261 12.4085 4.72431C12.1037 4.42602 11.9375 4.04637 11.9375 3.58536C11.9375 3.12436 12.1037 2.77183 12.4085 2.44642C12.7133 2.12101 13.1011 1.9583 13.5721 1.9583C13.9877 1.9583 14.4309 2.12101 14.7357 2.4193C15.0127 2.77183 15.2067 3.1786 15.2067 3.61248C15.179 4.04637 15.0127 4.42602 14.7357 4.72431Z" fill="white"/>
<path d="M13.6 2.93457C13.2398 2.93457 12.9351 3.23287 12.9351 3.5854C12.9351 3.93793 13.2398 4.23622 13.6 4.23622C13.9601 4.23622 14.2649 3.93793 14.2649 3.5854C14.2649 3.23287 13.9878 2.93457 13.6 2.93457Z" fill="white"/>
</svg>
