<svg width="29" height="34" viewBox="0 0 29 34" fill="none" xmlns="http://www.w3.org/2000/svg">
<path d="M14.1693 0.361572C6.56775 0.361572 0.333374 6.3772 0.333374 13.7053C0.333374 19.5569 8.70056 29.2366 12.3099 33.1741C12.8021 33.7209 13.4584 33.9944 14.1693 33.9944C14.8802 33.9944 15.5365 33.7209 16.0287 33.1741C19.6381 29.2913 28.0052 19.5569 28.0052 13.7053C28.0052 6.32251 21.7709 0.361572 14.1693 0.361572ZM14.6068 31.8616C14.3334 32.135 13.9506 32.135 13.7318 31.8616C11.0521 28.9631 2.24744 19.01 2.24744 13.7053C2.24744 7.36157 7.60681 2.27563 14.1693 2.27563C20.7318 2.27563 26.0912 7.41626 26.0912 13.7053C26.0912 19.01 17.2865 28.9084 14.6068 31.8616Z" fill="white"/>
<path d="M14.1693 8.23657C10.9427 8.23657 8.26306 10.8616 8.26306 14.1428C8.26306 17.3694 10.8881 20.0491 14.1693 20.0491C17.4506 20.0491 20.0756 17.4241 20.0756 14.1428C20.0756 10.8616 17.3959 8.23657 14.1693 8.23657ZM14.1693 18.0803C11.9818 18.0803 10.1771 16.2756 10.1771 14.0881C10.1771 11.9006 11.9818 10.0959 14.1693 10.0959C16.3568 10.0959 18.1615 11.9006 18.1615 14.0881C18.1615 16.2756 16.3568 18.0803 14.1693 18.0803Z" fill="white"/>
</svg>
