<svg width="45" height="43" viewBox="0 0 45 43" fill="none" xmlns="http://www.w3.org/2000/svg">
<path d="M30.3746 20.9444C30.3746 20.5171 30.1968 20.1073 29.8803 19.8052C29.5638 19.503 29.1346 19.3333 28.6871 19.3333C28.2395 19.3333 27.8103 19.503 27.4938 19.8052C27.1774 20.1073 26.9996 20.5171 26.9996 20.9444V25.2409C26.9996 25.6682 27.1774 26.078 27.4938 26.3802C27.8103 26.6823 28.2395 26.8521 28.6871 26.8521C29.1346 26.8521 29.5638 26.6823 29.8803 26.3802C30.1968 26.078 30.3746 25.6682 30.3746 25.2409V20.9444Z" fill="#C293FE"/>
<path d="M21.9366 19.3333C22.3842 19.3333 22.8134 19.503 23.1299 19.8052C23.4464 20.1073 23.6241 20.5171 23.6241 20.9444V25.2409C23.6241 25.6682 23.4464 26.078 23.1299 26.3802C22.8134 26.6823 22.3842 26.8521 21.9366 26.8521C21.4891 26.8521 21.0599 26.6823 20.7434 26.3802C20.4269 26.078 20.2491 25.6682 20.2491 25.2409V20.9444C20.2491 20.5171 20.4269 20.1073 20.7434 19.8052C21.0599 19.503 21.4891 19.3333 21.9366 19.3333Z" fill="#C293FE"/>
<path d="M16.8759 20.9444C16.8759 20.5171 16.6981 20.1073 16.3816 19.8052C16.0651 19.503 15.6359 19.3333 15.1884 19.3333C14.7408 19.3333 14.3116 19.503 13.9951 19.8052C13.6786 20.1073 13.5009 20.5171 13.5009 20.9444V25.2409C13.5009 25.6682 13.6786 26.078 13.9951 26.3802C14.3116 26.6823 14.7408 26.8521 15.1884 26.8521C15.6359 26.8521 16.0651 26.6823 16.3816 26.3802C16.6981 26.078 16.8759 25.6682 16.8759 25.2409V20.9444Z" fill="#C293FE"/>
<path d="M8.43793 29.002C8.88548 29.002 9.3147 29.1717 9.63117 29.4739C9.94764 29.776 10.1254 30.1858 10.1254 30.6131V35.9837C10.1254 36.411 9.94764 36.8208 9.63117 37.123C9.3147 37.4252 8.88548 37.5949 8.43793 37.5949C7.99037 37.5949 7.56115 37.4252 7.24468 37.123C6.92822 36.8208 6.75043 36.411 6.75043 35.9837V30.6131C6.75043 30.1858 6.92822 29.776 7.24468 29.4739C7.56115 29.1717 7.99037 29.002 8.43793 29.002Z" fill="#C293FE"/>
<path d="M38.2504 30.6131C38.2504 30.1858 38.0726 29.776 37.7562 29.4739C37.4397 29.1717 37.0105 29.002 36.5629 29.002C36.1154 29.002 35.6862 29.1717 35.3697 29.4739C35.0532 29.776 34.8754 30.1858 34.8754 30.6131V35.9837C34.8754 36.411 35.0532 36.8208 35.3697 37.123C35.6862 37.4252 36.1154 37.5949 36.5629 37.5949C37.0105 37.5949 37.4397 37.4252 37.7562 37.123C38.0726 36.8208 38.2504 36.411 38.2504 35.9837V30.6131Z" fill="#C293FE"/>
<path d="M21.9375 0H30.375C30.6734 0 30.9595 0.113166 31.1705 0.314602C31.3815 0.516039 31.5 0.789245 31.5 1.07412V5.3706C31.5 5.65547 31.3815 5.92868 31.1705 6.13011C30.9595 6.33155 30.6734 6.44472 30.375 6.44472H23.625V8.63162C27.5972 8.90321 31.3142 10.6014 34.0277 13.3843C36.7413 16.1673 38.2499 19.8284 38.25 23.6306H39.9375C41.2802 23.6306 42.5678 24.1399 43.5172 25.0463C44.4666 25.9528 45 27.1822 45 28.4642V41.3536C45 41.7809 44.8222 42.1907 44.5057 42.4929C44.1893 42.795 43.7601 42.9648 43.3125 42.9648H1.6875C1.23995 42.9648 0.810725 42.795 0.494257 42.4929C0.177789 42.1907 0 41.7809 0 41.3536V28.4642C0 27.1822 0.533369 25.9528 1.48277 25.0463C2.43217 24.1399 3.71984 23.6306 5.0625 23.6306H6.75C6.74996 20.0142 8.11458 16.5188 10.5939 13.7847C13.0732 11.0506 16.5012 9.26085 20.25 8.74333V1.61118C20.25 1.18387 20.4278 0.774058 20.7443 0.471903C21.0607 0.169748 21.4899 0 21.9375 0ZM22.5 11.8153C19.2179 11.8153 16.0703 13.0601 13.7496 15.2759C11.4288 17.4917 10.125 20.497 10.125 23.6306V25.2418C10.125 25.6691 9.94721 26.0789 9.63074 26.3811C9.31428 26.6832 8.88505 26.853 8.4375 26.853H5.0625C4.61495 26.853 4.18572 27.0227 3.86926 27.3249C3.55279 27.627 3.375 28.0368 3.375 28.4642V39.7424H16.875V33.8348C16.875 33.4074 17.0528 32.9976 17.3693 32.6955C17.6857 32.3933 18.1149 32.2236 18.5625 32.2236H26.4375C26.8851 32.2236 27.3143 32.3933 27.6307 32.6955C27.9472 32.9976 28.125 33.4074 28.125 33.8348V39.7424H41.625V28.4642C41.625 28.0368 41.4472 27.627 41.1307 27.3249C40.8143 27.0227 40.3851 26.853 39.9375 26.853H36.5625C36.1149 26.853 35.6857 26.6832 35.3693 26.3811C35.0528 26.0789 34.875 25.6691 34.875 25.2418V23.6306C34.875 20.497 33.5712 17.4917 31.2504 15.2759C28.9297 13.0601 25.7821 11.8153 22.5 11.8153ZM24.75 35.4459H20.25V39.7424H24.75V35.4459Z" fill="#C293FE"/>
</svg>
