<svg width="45" height="44" viewBox="0 0 45 44" fill="none" xmlns="http://www.w3.org/2000/svg">
<path fill-rule="evenodd" clip-rule="evenodd" d="M41.25 2.74582H3.75C3.41848 2.74582 3.10054 2.87156 2.86612 3.09538C2.6317 3.31919 2.5 3.62276 2.5 3.93928V39.7433C2.5 40.0598 2.6317 40.3633 2.86612 40.5872C3.10054 40.811 3.41848 40.9367 3.75 40.9367H41.25C41.5815 40.9367 41.8995 40.811 42.1339 40.5872C42.3683 40.3633 42.5 40.0598 42.5 39.7433V3.93928C42.5 3.62276 42.3683 3.31919 42.1339 3.09538C41.8995 2.87156 41.5815 2.74582 41.25 2.74582ZM3.75 0.358887C2.75544 0.358887 1.80161 0.736106 1.09835 1.40756C0.395088 2.07902 0 2.9897 0 3.93928V39.7433C0 40.6928 0.395088 41.6035 1.09835 42.275C1.80161 42.9464 2.75544 43.3237 3.75 43.3237H41.25C42.2446 43.3237 43.1984 42.9464 43.9016 42.275C44.6049 41.6035 45 40.6928 45 39.7433V3.93928C45 2.9897 44.6049 2.07902 43.9016 1.40756C43.1984 0.736106 42.2446 0.358887 41.25 0.358887H3.75Z" fill="#79EBB0"/>
<path d="M16.2496 17.0678C16.2496 18.0174 15.8545 18.9281 15.1513 19.5995C14.448 20.271 13.4942 20.6482 12.4996 20.6482C11.505 20.6482 10.5512 20.271 9.84795 19.5995C9.14469 18.9281 8.7496 18.0174 8.7496 17.0678C8.7496 16.1182 9.14469 15.2076 9.84795 14.5361C10.5512 13.8646 11.505 13.4874 12.4996 13.4874C13.4942 13.4874 14.448 13.8646 15.1513 14.5361C15.8545 15.2076 16.2496 16.1182 16.2496 17.0678Z" fill="#79EBB0"/>
<path fill-rule="evenodd" clip-rule="evenodd" d="M7.8208 25.7081C7.5583 25.96 7.5008 26.1485 7.5008 26.2894V30.1956H5.0008V26.2894C5.0008 25.3489 5.4633 24.5887 6.04705 24.0265C6.6208 23.4764 7.35955 23.0634 8.0933 22.7567C9.5533 22.148 11.2858 21.8413 12.5008 21.8413C13.7145 21.8413 15.4483 22.148 16.9083 22.7567C17.642 23.0634 18.3808 23.4764 18.9545 24.0265C19.5395 24.5887 20.0008 25.3489 20.0008 26.2894V30.1956H17.5008V26.2894C17.5008 26.1485 17.442 25.96 17.1808 25.7093C16.9083 25.4468 16.4758 25.1818 15.907 24.9443C14.7645 24.4669 13.372 24.2282 12.5008 24.2282C11.6295 24.2282 10.2383 24.4669 9.09455 24.9443C8.5258 25.1806 8.09455 25.4456 7.8208 25.7081Z" fill="#79EBB0"/>
<path fill-rule="evenodd" clip-rule="evenodd" d="M27.8204 25.7081C27.5579 25.96 27.5004 26.1485 27.5004 26.2894V30.1956H25.0004V26.2894C25.0004 25.3489 25.4629 24.5887 26.0466 24.0265C26.6204 23.4764 27.3591 23.0634 28.0929 22.7567C29.5529 22.148 31.2866 21.8413 32.5004 21.8413C33.7141 21.8413 35.4479 22.148 36.9079 22.7567C37.6416 23.0634 38.3804 23.4764 38.9541 24.0265C39.5391 24.5887 40.0004 25.3489 40.0004 26.2894V30.1956H37.5004V26.2894C37.5004 26.1485 37.4416 25.96 37.1804 25.7093C36.9079 25.4468 36.4754 25.1818 35.9066 24.9443C34.7641 24.4669 33.3716 24.2282 32.5004 24.2282C31.6291 24.2282 30.2379 24.4669 29.0941 24.9443C28.5254 25.1806 28.0941 25.4456 27.8204 25.7081Z" fill="#79EBB0"/>
<path d="M36.2492 17.0678C36.2492 18.0174 35.8541 18.9281 35.1509 19.5995C34.4476 20.271 33.4938 20.6482 32.4992 20.6482C31.5046 20.6482 30.5508 20.271 29.8476 19.5995C29.1443 18.9281 28.7492 18.0174 28.7492 17.0678C28.7492 16.1182 29.1443 15.2076 29.8476 14.5361C30.5508 13.8646 31.5046 13.4874 32.4992 13.4874C33.4938 13.4874 34.4476 13.8646 35.1509 14.5361C35.8541 15.2076 36.2492 16.1182 36.2492 17.0678Z" fill="#79EBB0"/>
<path d="M26.2494 14.6805C26.2494 15.6301 25.8543 16.5408 25.1511 17.2122C24.4478 17.8837 23.494 18.2609 22.4994 18.2609C21.5048 18.2609 20.551 17.8837 19.8478 17.2122C19.1445 16.5408 18.7494 15.6301 18.7494 14.6805C18.7494 13.7309 19.1445 12.8202 19.8478 12.1488C20.551 11.4773 21.5048 11.1001 22.4994 11.1001C23.494 11.1001 24.4478 11.4773 25.1511 12.1488C25.8543 12.8202 26.2494 13.7309 26.2494 14.6805Z" fill="#79EBB0"/>
<path fill-rule="evenodd" clip-rule="evenodd" d="M20.8714 23.0292C20.5177 23.0626 20.3964 23.139 20.3077 23.2333L18.4427 21.6436C19.0989 20.9419 19.9177 20.7199 20.6277 20.653C21.0577 20.6136 21.5902 20.628 22.0277 20.6387C22.2052 20.6435 22.3677 20.6483 22.5002 20.6483C22.6327 20.6483 22.7952 20.6435 22.9739 20.6387C23.4102 20.6268 23.9427 20.6148 24.3714 20.6542C25.0839 20.7199 25.9014 20.9419 26.5577 21.6436L24.6927 23.2333C24.6052 23.139 24.4827 23.0626 24.1289 23.0304C23.8986 23.0129 23.6674 23.0081 23.4364 23.0161L23.1839 23.0221C22.9714 23.028 22.7302 23.0352 22.5002 23.0352C22.2702 23.0352 22.0289 23.028 21.8164 23.0233L21.5639 23.0161C21.333 23.0077 21.1018 23.0121 20.8714 23.0292Z" fill="#79EBB0"/>
</svg>
