<svg width="47" height="46" viewBox="0 0 47 46" fill="none" xmlns="http://www.w3.org/2000/svg">
<path d="M23.5 1.35889C11.0733 1.35889 1 10.9766 1 22.8413C1 34.706 11.0733 44.3237 23.5 44.3237C35.9267 44.3237 46 34.706 46 22.8413C46 10.9766 35.9267 1.35889 23.5 1.35889Z" stroke="#8783E7" stroke-width="1.5" stroke-linecap="round" stroke-linejoin="round"/>
<path d="M14.4985 42.5363V27.1378L23.4985 12.1001L32.4985 27.1378V42.5363" stroke="#8783E7" stroke-width="1.5" stroke-linecap="round" stroke-linejoin="round"/>
<path d="M14.4985 27.1384C14.4985 27.1384 17.0343 29.2867 18.9985 29.2867C20.9628 29.2867 23.4985 27.1384 23.4985 27.1384C23.4985 27.1384 26.0343 29.2867 27.9985 29.2867C29.9628 29.2867 32.4985 27.1384 32.4985 27.1384" stroke="#8783E7" stroke-width="1.5" stroke-linecap="round" stroke-linejoin="round"/>
</svg>
