<svg width="52" height="43" viewBox="0 0 52 43" fill="none" xmlns="http://www.w3.org/2000/svg">
<path d="M26.417 2.44497e-06C26.1768 -0.000407109 25.9395 0.050641 25.7226 0.149389C25.5057 0.248136 25.3148 0.392068 25.164 0.570585L24.878 0.77305C19.3356 -0.865076 13.0125 0.337444 8.61076 4.38674C6.76745 6.05673 5.39618 8.14449 4.62437 10.456C3.85256 12.7676 3.70526 15.2279 4.19615 17.6083C4.14159 17.6543 4.08803 17.7014 4.0355 17.7494L1.5326 20.0502C1.04843 20.4887 0.662861 21.0168 0.399372 21.6022C0.135884 22.1876 0 22.8181 0 23.4553C0 24.0924 0.135884 24.723 0.399372 25.3084C0.662861 25.8938 1.04843 26.4218 1.5326 26.8604C2.81136 28.0383 4.58492 28.4801 6.23317 28.1856C6.43558 29.0721 6.90789 29.9157 7.65651 30.6029C8.64289 31.5109 9.92487 31.9803 11.2165 32.014C11.2518 33.2012 11.7627 34.3792 12.7491 35.2872C13.7354 36.1952 15.0206 36.6676 16.3122 36.6983C16.3444 37.8855 16.8584 39.0665 17.8448 39.9746C18.7891 40.8302 20.0261 41.3303 21.3269 41.3821C22.6276 41.434 23.904 41.0343 24.9198 40.2568L26.3238 41.5452C28.3801 43.438 31.7152 43.438 33.7715 41.5452C34.7547 40.6433 35.2655 39.4715 35.3105 38.2874C36.5957 38.2506 37.8648 37.7812 38.8448 36.8793C39.8279 35.9744 40.3388 34.8025 40.3774 33.6184C41.6832 33.5747 42.9264 33.0734 43.8699 32.2104C44.6506 31.4956 45.1325 30.609 45.3189 29.6826C46.1459 29.8211 46.9954 29.7722 47.799 29.5399C48.6026 29.3075 49.3379 28.8983 49.9456 28.3451C50.4302 27.9065 50.8162 27.3783 51.08 26.7926C51.3438 26.2069 51.4799 25.576 51.4799 24.9385C51.4799 24.3009 51.3438 23.6701 51.08 23.0844C50.8162 22.4987 50.4302 21.9704 49.9456 21.5319L47.6322 19.406L48.1045 17.7188C49.0599 14.2694 48.5762 10.6007 46.7551 7.48507C44.0691 2.86519 38.8576 0.0122729 33.2221 0.0122729H29.2701C29.1 0.00422021 28.9296 0.00012895 28.7593 2.44497e-06H26.417ZM34.2984 11.3994L42.0256 18.5071L42.0352 18.5133L47.629 23.6608C47.8107 23.8253 47.9554 24.0235 48.0543 24.2431C48.1532 24.4628 48.2042 24.6994 48.2042 24.9385C48.2042 25.1776 48.1532 25.4142 48.0543 25.6338C47.9554 25.8535 47.8107 26.0516 47.629 26.2162C47.2537 26.5555 46.7564 26.7447 46.2394 26.7447C45.7225 26.7447 45.2252 26.5555 44.8498 26.2162L40.6055 22.3141C40.2944 22.0291 39.8799 21.87 39.4488 21.87C39.0177 21.87 38.6032 22.0291 38.2921 22.3141L38.2472 22.3509C38.0957 22.4879 37.975 22.653 37.8926 22.836C37.8101 23.019 37.7676 23.2162 37.7676 23.4154C37.7676 23.6146 37.8101 23.8118 37.8926 23.9948C37.975 24.1778 38.0957 24.3428 38.2472 24.4799L41.5565 27.523C42.3276 28.2285 42.3276 29.3758 41.5565 30.0845C41.2153 30.3932 40.7721 30.5789 40.3031 30.6097C39.8341 30.6405 39.3684 30.5144 38.9861 30.2532C38.6671 30.0331 38.2774 29.9267 37.8847 29.9525C37.492 29.9783 37.1212 30.1346 36.8367 30.3943C36.5586 30.6481 36.3907 30.9925 36.3663 31.3591C36.3419 31.7256 36.4628 32.0875 36.7049 32.3729C36.9934 32.7179 37.1356 33.1536 37.1035 33.5939C37.0713 34.0342 36.8672 34.447 36.5314 34.7504C36.1853 35.0637 35.7345 35.2503 35.2583 35.2773C34.7822 35.3042 34.3114 35.1698 33.9289 34.8976C33.6115 34.6702 33.2201 34.5573 32.8239 34.5786C32.4277 34.5999 32.0521 34.7542 31.7634 35.0142C31.4817 35.2676 31.3109 35.6135 31.2853 35.9822C31.2597 36.3509 31.3811 36.7153 31.6252 37.002C31.9204 37.3516 32.0668 37.7945 32.0353 38.2425C32.0037 38.6905 31.7965 39.1107 31.455 39.4193C31.0747 39.7639 30.5704 39.956 30.0461 39.956C29.5218 39.956 29.0175 39.7639 28.6372 39.4193L27.246 38.1401L27.7536 37.6738C28.2383 37.2353 28.6243 36.707 28.8881 36.1213C29.1519 35.5356 29.2879 34.9048 29.2879 34.2672C29.2879 33.6297 29.1519 32.9988 28.8881 32.4131C28.6243 31.8274 28.2383 31.2991 27.7536 30.8606C26.7934 29.9819 25.5233 29.4785 24.1936 29.4495C24.1546 28.2073 23.6039 27.03 22.6611 26.1732C21.6995 25.295 20.4282 24.7926 19.0979 24.7652C19.0589 23.523 18.5081 22.3457 17.5653 21.4889C16.948 20.928 16.1997 20.5155 15.3823 20.2856C14.5649 20.0556 13.7019 20.0149 12.8647 20.1667C12.6529 19.2436 12.1573 18.4019 11.4414 17.7494C10.8926 17.2494 10.2385 16.8666 9.52282 16.6265C8.8071 16.3863 8.04604 16.2944 7.29023 16.3567C7.03711 14.5591 7.23421 12.7298 7.86536 11.0191C8.4965 9.30838 9.54368 7.76498 10.9209 6.5157C12.3125 5.24627 13.9811 4.28652 15.807 3.70525C17.6329 3.12397 19.5708 2.93557 21.4819 3.15355L16.807 6.43594C16.2089 6.8509 15.705 7.3773 15.3259 7.98335C14.9468 8.58939 14.7002 9.26252 14.6011 9.96208C14.502 10.6616 14.5525 11.3731 14.7494 12.0535C14.9463 12.734 15.2856 13.3693 15.7468 13.921C16.6795 15.0376 18.0272 15.7679 19.5096 15.9599C20.9919 16.1519 22.4947 15.7908 23.7053 14.9517L28.7689 11.4025H34.2952L34.2984 11.3994ZM18.7091 8.9054L27.0371 3.06765H28.7593C28.9168 3.06685 29.0743 3.07095 29.2316 3.07992H33.2221C37.7331 3.07992 41.8489 5.36533 43.947 8.97595C45.3671 11.4178 45.7398 14.2554 44.9976 16.9334L44.988 16.9641L36.1202 8.78269C35.8196 8.49483 35.4117 8.33265 34.986 8.33175H28.2388C27.8978 8.33237 27.5658 8.43658 27.2909 8.62931L21.8032 12.4761C21.2642 12.8447 20.598 13.0026 19.941 12.9176C19.284 12.8327 18.6859 12.5112 18.2689 12.0191C18.0746 11.7905 17.9314 11.5265 17.848 11.2431C17.7646 10.9597 17.7429 10.6631 17.7841 10.3714C17.8254 10.0797 17.9287 9.79916 18.0878 9.54704C18.2469 9.29491 18.4583 9.07655 18.7091 8.9054ZM20.1292 35.3179L20.1614 35.2872L22.6611 32.9865L22.69 32.9619C23.0674 32.6343 23.5607 32.455 24.0708 32.4601C24.5809 32.4652 25.0701 32.6544 25.4403 32.9895C25.622 33.1541 25.7667 33.3522 25.8656 33.5719C25.9645 33.7915 26.0155 34.0281 26.0155 34.2672C26.0155 34.5063 25.9645 34.7429 25.8656 34.9626C25.7667 35.1822 25.622 35.3804 25.4403 35.5449L22.9374 37.8456C22.562 38.185 22.0647 38.3741 21.5478 38.3741C21.0308 38.3741 20.5335 38.185 20.1582 37.8456C19.9788 37.6835 19.8354 37.4887 19.7364 37.2727C19.6375 37.0568 19.5849 36.824 19.5819 36.5882C19.5789 36.3525 19.6255 36.1186 19.719 35.9004C19.8125 35.6821 19.9509 35.4841 20.126 35.3179H20.1292ZM20.3766 30.833L20.3445 30.8606L17.8448 33.1613L17.8127 33.1889C17.435 33.5153 16.9422 33.6935 16.4329 33.6878C15.9235 33.6821 15.4352 33.493 15.0656 33.1583C14.8859 32.9955 14.7424 32.7998 14.6437 32.5829C14.545 32.366 14.493 32.1324 14.4909 31.8959C14.4888 31.6594 14.5366 31.4249 14.6315 31.2065C14.7264 30.988 14.8664 30.79 15.0431 30.6244L15.0656 30.6029L17.5653 28.3022L17.5878 28.2807C17.9648 27.9504 18.459 27.769 18.9706 27.773C19.4822 27.777 19.9732 27.9661 20.3445 28.3022C20.5243 28.4643 20.6682 28.6593 20.7674 28.8755C20.8667 29.0918 20.9194 29.3249 20.9224 29.5611C20.9254 29.7972 20.8787 30.0315 20.7849 30.25C20.6911 30.4685 20.5523 30.6667 20.3766 30.833ZM15.252 26.1732L12.7491 28.4739L12.7266 28.4954C12.3496 28.8257 11.8554 29.0071 11.3438 29.0031C10.8322 28.9992 10.3412 28.81 9.96985 28.4739C9.78814 28.3094 9.64342 28.1113 9.54453 27.8916C9.44564 27.672 9.39464 27.4354 9.39464 27.1963C9.39464 26.9572 9.44564 26.7206 9.54453 26.5009C9.64342 26.2813 9.78814 26.0831 9.96985 25.9186L12.4695 23.6179C12.8451 23.2776 13.343 23.0879 13.8607 23.0879C14.3785 23.0879 14.8764 23.2776 15.252 23.6179C15.4321 23.7807 15.576 23.9765 15.6751 24.1937C15.7741 24.4109 15.8263 24.6449 15.8284 24.8818C15.8305 25.1186 15.7825 25.3534 15.6873 25.5722C15.5921 25.7909 15.4517 25.9891 15.2745 26.1548L15.252 26.1732ZM9.12805 22.4337L6.62836 24.7345C6.25321 25.0755 5.7551 25.2656 5.23715 25.2656C4.7192 25.2656 4.22108 25.0755 3.84593 24.7345C3.66372 24.5699 3.51858 24.3716 3.41939 24.1516C3.32019 23.9317 3.26903 23.6947 3.26903 23.4553C3.26903 23.2158 3.32019 22.9788 3.41939 22.7589C3.51858 22.5389 3.66372 22.3406 3.84593 22.1761L6.34883 19.8753C6.72419 19.5359 7.22149 19.3468 7.73844 19.3468C8.2554 19.3468 8.7527 19.5359 9.12805 19.8753C9.31026 20.0399 9.45541 20.2382 9.5546 20.4582C9.65379 20.6781 9.70495 20.9151 9.70495 21.1545C9.70495 21.394 9.65379 21.631 9.5546 21.8509C9.45541 22.0709 9.31026 22.2692 9.12805 22.4337Z" fill="#F7A6FF"/>
</svg>
