<svg width="48" height="45" viewBox="0 0 48 45" fill="none" xmlns="http://www.w3.org/2000/svg">
<path d="M24.1666 1.1521C11.7399 1.1521 1.66663 10.7814 1.66663 22.6604C1.66663 34.5394 11.7399 44.1686 24.1666 44.1686C36.5934 44.1686 46.6666 34.5394 46.6666 22.6604C46.6666 10.7814 36.5934 1.1521 24.1666 1.1521Z" stroke="#8783E7" stroke-width="1.5" stroke-linecap="round" stroke-linejoin="round"/>
<path d="M15.1652 42.3792V26.962L24.1652 11.9062L33.1652 26.962V42.3792" stroke="#8783E7" stroke-width="1.5" stroke-linecap="round" stroke-linejoin="round"/>
<path d="M15.1652 26.9628C15.1652 26.9628 17.7009 29.1136 19.6652 29.1136C21.6294 29.1136 24.1652 26.9628 24.1652 26.9628C24.1652 26.9628 26.7009 29.1136 28.6652 29.1136C30.6294 29.1136 33.1652 26.9628 33.1652 26.9628" stroke="#8783E7" stroke-width="1.5" stroke-linecap="round" stroke-linejoin="round"/>
</svg>
