<svg width="45" height="44" viewBox="0 0 45 44" fill="none" xmlns="http://www.w3.org/2000/svg">
<path d="M30.3745 21.0095C30.3745 20.5817 30.1967 20.1714 29.8803 19.8688C29.5638 19.5663 29.1346 19.3964 28.687 19.3964C28.2395 19.3964 27.8102 19.5663 27.4938 19.8688C27.1773 20.1714 26.9995 20.5817 26.9995 21.0095V25.3111C26.9995 25.739 27.1773 26.1493 27.4938 26.4518C27.8102 26.7543 28.2395 26.9243 28.687 26.9243C29.1346 26.9243 29.5638 26.7543 29.8803 26.4518C30.1967 26.1493 30.3745 25.739 30.3745 25.3111V21.0095Z" fill="#C293FE"/>
<path d="M21.9366 19.3964C22.3842 19.3964 22.8134 19.5663 23.1299 19.8688C23.4464 20.1714 23.6241 20.5817 23.6241 21.0095V25.3111C23.6241 25.739 23.4464 26.1493 23.1299 26.4518C22.8134 26.7543 22.3842 26.9243 21.9366 26.9243C21.4891 26.9243 21.0599 26.7543 20.7434 26.4518C20.4269 26.1493 20.2491 25.739 20.2491 25.3111V21.0095C20.2491 20.5817 20.4269 20.1714 20.7434 19.8688C21.0599 19.5663 21.4891 19.3964 21.9366 19.3964Z" fill="#C293FE"/>
<path d="M16.8759 21.0095C16.8759 20.5817 16.6981 20.1714 16.3816 19.8688C16.0651 19.5663 15.6359 19.3964 15.1884 19.3964C14.7408 19.3964 14.3116 19.5663 13.9951 19.8688C13.6786 20.1714 13.5009 20.5817 13.5009 21.0095V25.3111C13.5009 25.739 13.6786 26.1493 13.9951 26.4518C14.3116 26.7543 14.7408 26.9243 15.1884 26.9243C15.6359 26.9243 16.0651 26.7543 16.3816 26.4518C16.6981 26.1493 16.8759 25.739 16.8759 25.3111V21.0095Z" fill="#C293FE"/>
<path d="M8.43799 29.0768C8.88554 29.0768 9.31476 29.2467 9.63123 29.5493C9.9477 29.8518 10.1255 30.2621 10.1255 30.6899V36.067C10.1255 36.4948 9.9477 36.9051 9.63123 37.2076C9.31476 37.5101 8.88554 37.6801 8.43799 37.6801C7.99044 37.6801 7.56121 37.5101 7.24475 37.2076C6.92828 36.9051 6.75049 36.4948 6.75049 36.067V30.6899C6.75049 30.2621 6.92828 29.8518 7.24475 29.5493C7.56121 29.2467 7.99044 29.0768 8.43799 29.0768Z" fill="#C293FE"/>
<path d="M38.2505 30.6899C38.2505 30.2621 38.0727 29.8518 37.7562 29.5493C37.4398 29.2467 37.0105 29.0768 36.563 29.0768C36.1154 29.0768 35.6862 29.2467 35.3697 29.5493C35.0533 29.8518 34.8755 30.2621 34.8755 30.6899V36.067C34.8755 36.4948 35.0533 36.9051 35.3697 37.2076C35.6862 37.5101 36.1154 37.6801 36.563 37.6801C37.0105 37.6801 37.4398 37.5101 37.7562 37.2076C38.0727 36.9051 38.2505 36.4948 38.2505 36.067V30.6899Z" fill="#C293FE"/>
<path d="M21.9375 0.0397949H30.375C30.6734 0.0397949 30.9595 0.153097 31.1705 0.354776C31.3815 0.556456 31.5 0.829991 31.5 1.11521V5.41686C31.5 5.70208 31.3815 5.97561 31.1705 6.17729C30.9595 6.37897 30.6734 6.49228 30.375 6.49228H23.625V8.68182C27.5972 8.95373 31.3142 10.654 34.0277 13.4403C36.7413 16.2266 38.2499 19.892 38.25 23.6989H39.9375C41.2802 23.6989 42.5678 24.2087 43.5172 25.1163C44.4666 26.0239 45 27.2548 45 28.5382V41.4432C45 41.871 44.8222 42.2813 44.5057 42.5839C44.1893 42.8864 43.7601 43.0563 43.3125 43.0563H1.6875C1.23995 43.0563 0.810725 42.8864 0.494257 42.5839C0.177789 42.2813 0 41.871 0 41.4432V28.5382C0 27.2548 0.533369 26.0239 1.48277 25.1163C2.43217 24.2087 3.71984 23.6989 5.0625 23.6989H6.75C6.74996 20.0781 8.11458 16.5784 10.5939 13.8411C13.0732 11.1037 16.5012 9.31181 20.25 8.79366V1.65292C20.25 1.22509 20.4278 0.814785 20.7443 0.512267C21.0607 0.209748 21.4899 0.0397949 21.9375 0.0397949ZM22.5 11.8693C19.2179 11.8693 16.0703 13.1157 13.7496 15.3341C11.4288 17.5526 10.125 20.5615 10.125 23.6989V25.312C10.125 25.7398 9.94721 26.1501 9.63074 26.4527C9.31428 26.7552 8.88505 26.9251 8.4375 26.9251H5.0625C4.61495 26.9251 4.18572 27.0951 3.86926 27.3976C3.55279 27.7001 3.375 28.1104 3.375 28.5382V39.8301H16.875V33.9153C16.875 33.4875 17.0528 33.0772 17.3693 32.7747C17.6857 32.4721 18.1149 32.3022 18.5625 32.3022H26.4375C26.8851 32.3022 27.3143 32.4721 27.6307 32.7747C27.9472 33.0772 28.125 33.4875 28.125 33.9153V39.8301H41.625V28.5382C41.625 28.1104 41.4472 27.7001 41.1307 27.3976C40.8143 27.0951 40.3851 26.9251 39.9375 26.9251H36.5625C36.1149 26.9251 35.6857 26.7552 35.3693 26.4527C35.0528 26.1501 34.875 25.7398 34.875 25.312V23.6989C34.875 20.5615 33.5712 17.5526 31.2504 15.3341C28.9297 13.1157 25.7821 11.8693 22.5 11.8693ZM24.75 35.5284H20.25V39.8301H24.75V35.5284Z" fill="#C293FE"/>
</svg>
