<svg width="29" height="28" viewBox="0 0 29 28" fill="none" xmlns="http://www.w3.org/2000/svg">
<path d="M14.3656 19.1381C17.1955 19.1381 19.4896 16.8691 19.4896 14.0701C19.4896 11.2711 17.1955 9.00211 14.3656 9.00211C11.5356 9.00211 9.24152 11.2711 9.24152 14.0701C9.24152 16.8691 11.5356 19.1381 14.3656 19.1381Z" fill="#13357F"/>
<path d="M19.931 0.526306H8.71116C4.24972 0.526306 0.627563 4.10886 0.627563 8.52152V19.5313C0.627563 24.0314 4.24972 27.6139 8.71116 27.6139H19.8427C24.3924 27.6139 28.0146 24.0314 28.0146 19.6187V8.52152C28.0146 4.10886 24.3924 0.526306 19.931 0.526306ZM14.3653 20.7109C10.6106 20.7109 7.65101 17.6964 7.65101 14.0701C7.65101 10.4439 10.6548 7.42928 14.3653 7.42928C18.0316 7.42928 21.0353 10.4439 21.0353 14.0701C21.0353 17.6964 18.0758 20.7109 14.3653 20.7109ZM23.6415 8.04093C23.1998 8.52152 22.5372 8.78366 21.7863 8.78366C21.1237 8.78366 20.4611 8.52152 19.931 8.04093C19.4451 7.56035 19.1801 6.94869 19.1801 6.20597C19.1801 5.46324 19.4451 4.89528 19.931 4.371C20.4169 3.84672 21.0353 3.58458 21.7863 3.58458C22.4488 3.58458 23.1556 3.84672 23.6415 4.32731C24.0832 4.89528 24.3924 5.55062 24.3924 6.24966C24.3483 6.94869 24.0832 7.56035 23.6415 8.04093Z" fill="#13357F"/>
<path d="M21.8308 5.15738C21.2565 5.15738 20.7706 5.63797 20.7706 6.20593C20.7706 6.7739 21.2565 7.25448 21.8308 7.25448C22.405 7.25448 22.8909 6.7739 22.8909 6.20593C22.8909 5.63797 22.4492 5.15738 21.8308 5.15738Z" fill="#13357F"/>
</svg>
