<svg width="180" height="61" viewBox="0 0 180 61" fill="none" xmlns="http://www.w3.org/2000/svg">
<rect width="178.863" height="59.6209" transform="translate(0.804871 0.741211)" fill="white"/>
<g clip-path="url(#clip0_25_383)">
<path fill-rule="evenodd" clip-rule="evenodd" d="M56.3762 21.1575C57.4878 20.9383 58.615 20.9383 59.7109 21.1575L59.758 21.1732V39.5383L59.7109 39.554C58.5993 39.7732 57.4878 39.7732 56.3762 39.554L56.3291 39.5383V32.0856H48.7671V39.5383L48.7201 39.554C48.1566 39.6636 47.6086 39.726 47.0448 39.726C46.4811 39.726 45.9333 39.6636 45.3853 39.554L45.3383 39.5383V21.173L45.3853 21.1573C46.4813 20.9226 47.6086 20.9226 48.7201 21.1573L48.7671 21.173V29.1578H56.3291V21.1732L56.3762 21.1575ZM68.134 26.3242C70.0755 26.3242 71.6726 26.9504 72.7215 28.1091C73.9114 29.4398 74.3967 31.4125 74.1306 33.8393V33.9018H64.9245C64.9559 36.3757 66.0362 37.5656 68.2124 37.5656C69.7779 37.5656 70.8427 36.7984 71.0619 35.5146V35.4676H71.1088C72.1265 35.3266 72.9876 35.3892 73.9114 35.7023L73.9583 35.7181V35.765C73.7234 37.9258 71.8448 40.1018 68.1812 40.1018C66.0362 40.1018 64.3922 39.4287 63.3119 38.1293C62.3099 36.9237 61.8089 35.217 61.8089 33.0251C61.8089 28.8292 64.173 26.3242 68.134 26.3242V26.3242ZM68.0716 28.704C66.1301 28.704 64.9872 29.8939 64.8933 31.976H71.0149C71.0619 30.9586 70.8115 30.113 70.2634 29.5337C69.7467 28.9857 68.9952 28.704 68.0714 28.704H68.0716ZM76.3851 21.1575C77.4185 20.9228 78.4831 20.9228 79.5163 21.1575L79.5634 21.1732V39.5383L79.5163 39.554C78.9997 39.6636 78.4674 39.726 77.9508 39.726C77.4342 39.726 76.9017 39.6636 76.3851 39.554L76.3382 39.5383V21.173L76.3851 21.1575ZM88.6128 26.3242C92.3703 26.3242 94.5152 28.8449 94.5152 33.2288C94.5152 37.5186 92.3546 40.0863 88.7381 40.0863C87.4386 40.0863 86.28 39.7418 85.184 39.0529V45.1746L85.1371 45.1903C84.6203 45.2999 84.088 45.3624 83.5714 45.3624C83.0548 45.3624 82.5223 45.2999 82.0059 45.1903L81.9588 45.1746V26.9034L82.0057 26.8879C82.7729 26.653 83.4148 26.653 84.1978 26.8879L84.229 26.9034L84.4168 27.8742C85.7788 26.8567 87.2351 26.3242 88.6128 26.3242V26.3242ZM85.1371 29.9407V36.5008C86.0608 37.1429 86.9689 37.4558 87.9239 37.4558C90.1627 37.4558 91.3526 35.9999 91.3526 33.2757C91.3526 30.4887 90.147 28.9702 87.9551 28.9702C87.0001 28.9702 86.1076 29.2833 85.1371 29.9409V29.9407ZM108.293 29.6433C110.845 30.6297 113.491 31.6474 113.506 34.7316C113.475 39.3817 109.091 40.0863 106.43 40.0863C103.721 40.0863 101.608 39.3817 100.324 38.0038C99.3688 36.9863 98.9147 35.6711 99.0086 34.1838V34.1368L99.0555 34.1211C100.152 33.8705 101.279 33.855 102.39 34.0742L102.437 34.0897V34.1368C102.343 34.9665 102.547 35.6399 103.032 36.1722C103.69 36.8923 104.849 37.2837 106.367 37.2837C107.745 37.2837 108.778 36.9862 109.373 36.3757C109.78 35.953 109.984 35.405 109.968 34.7161C109.937 33.3853 108.449 32.8843 105.976 32.0232C105.475 31.8509 104.896 31.6474 104.301 31.4282L104.019 31.3343C102.203 30.6767 99.1496 29.5807 99.1808 26.2772C99.2278 22.9581 101.905 20.9697 106.351 20.9697H106.43C108.825 20.9854 110.72 21.6429 111.894 22.8954C112.849 23.8974 113.318 25.2439 113.24 26.7783V26.8253L113.193 26.8408C112.003 27.1069 110.908 27.1384 109.827 26.9191L109.78 26.9034V26.8567C109.843 25.9486 109.624 25.2126 109.123 24.6805C108.543 24.0386 107.557 23.7098 106.289 23.7098C105.005 23.7098 103.94 24.0543 103.33 24.696C102.907 25.1189 102.703 25.6667 102.719 26.2931C102.766 27.6396 104.269 28.1874 106.759 29.08C107.244 29.2522 107.745 29.44 108.293 29.6435V29.6433ZM121.538 28.9702C119.284 28.9702 118.235 30.3166 118.235 33.1974C118.235 36.0781 119.284 37.4246 121.538 37.4246C122.118 37.4246 124.059 37.2835 124.356 35.2796V35.2327H124.403C125.437 35.0449 126.407 35.1074 127.284 35.405L127.331 35.4207V35.4676C127.222 36.6575 126.689 37.7691 125.812 38.5832C124.764 39.5695 123.261 40.0863 121.476 40.0863C117.342 40.0863 115.057 37.6438 115.057 33.2131C115.057 28.7665 117.358 26.3085 121.538 26.3085C123.292 26.3085 124.779 26.8095 125.812 27.7646C126.721 28.5944 127.269 29.7686 127.362 31.0524V31.0994L127.316 31.1151C126.392 31.3811 125.421 31.4439 124.403 31.2874H124.356V31.2402C124.247 30.3948 123.746 28.9702 121.538 28.9702ZM135.285 26.3242C139.402 26.3242 141.657 28.7667 141.657 33.2288C141.657 37.6593 139.402 40.1018 135.285 40.1018C131.183 40.1018 128.912 37.6595 128.912 33.2286C128.912 28.7822 131.167 26.3242 135.285 26.3242V26.3242ZM138.557 33.2131C138.557 30.3636 137.492 28.97 135.285 28.97C133.046 28.97 132.012 30.3166 132.012 33.2131C132.012 36.0626 133.077 37.4403 135.285 37.4403C137.492 37.4403 138.557 36.0469 138.557 33.2131ZM151.959 26.9034C153.008 26.6375 154.057 26.6375 155.09 26.9034L155.137 26.9191V39.5383L155.09 39.554C154.339 39.7575 153.556 39.7575 152.804 39.554L152.773 39.5383L152.46 38.0977C150.988 39.4599 149.626 40.0706 148.045 40.0706C145.117 40.0706 143.426 38.2857 143.426 35.1545V26.9191L143.473 26.9034C144.506 26.653 145.571 26.653 146.604 26.9034L146.651 26.9191V34.4342C146.651 36.5008 147.309 37.3778 148.843 37.3778C149.939 37.3778 150.878 36.9706 151.912 36.0783V26.9191L151.959 26.9034ZM165 37.0801C165.235 37.9726 165.235 38.8337 164.985 39.6636L164.969 39.6948H164.938C164.045 39.8671 163.263 39.961 162.574 39.961C161.462 39.961 160.617 39.726 160.022 39.2407C158.926 38.3326 158.832 36.7357 158.832 35.17L158.801 29.5494H157.188L157.172 29.5025C156.969 28.6257 156.969 27.749 157.172 26.8879L157.188 26.8408H158.801L158.769 23.3653L158.816 23.3494C159.85 23.1147 160.914 23.1147 161.948 23.3494L161.995 23.3651V26.8408H164.546L164.562 26.8879C164.734 27.749 164.734 28.6257 164.562 29.487L164.546 29.5337H161.995V35.3892C161.995 36.1722 162.167 36.6731 162.511 36.9549C162.95 37.2994 163.67 37.3307 164.922 37.0333L164.985 37.0176L165 37.0801Z" fill="#213743"/>
<path fill-rule="evenodd" clip-rule="evenodd" d="M25.4513 24.4354L16.847 33.2245C15.7717 32.1258 15.0994 30.6153 14.9648 28.8298C14.9648 27.1821 15.7715 25.5341 16.847 24.4354L25.5859 15.6465C26.6614 16.7452 27.3335 18.393 27.3335 20.0409C27.3335 21.6889 26.527 23.3369 25.4515 24.4354H25.4513ZM29.2364 36.6048L37.935 27.8158C39.0224 29.0517 39.7022 30.5624 39.7022 32.2102C39.7022 33.8582 38.8864 35.5061 37.7993 36.6048L29.1004 45.3938C28.0131 44.2951 27.3335 42.6471 27.3335 40.9993C27.3335 39.3513 28.1489 37.7034 29.2364 36.6048V36.6048ZM29.0231 24.4354L31.5914 21.8663L37.9448 15.6465C39.0262 16.7282 39.702 18.3508 39.702 19.9735C39.702 21.5961 38.891 23.2185 37.8095 24.3003L31.5914 30.5201L29.0231 33.0892L25.3735 36.74L22.8052 39.309L16.7222 45.3938C15.6407 44.312 14.9648 42.6894 14.9648 41.0668C14.9648 39.4442 15.776 37.8215 16.8574 36.74L22.9403 30.6553L25.3733 28.0862L29.0231 24.4354Z" fill="#1292EE"/>
</g>
<defs>
<clipPath id="clip0_25_383">
<rect width="150.302" height="29.8105" fill="white" transform="translate(14.9648 15.6465)"/>
</clipPath>
</defs>
</svg>
