<svg width="180" height="61" viewBox="0 0 180 61" fill="none" xmlns="http://www.w3.org/2000/svg">
<rect width="178.863" height="59.6209" transform="translate(0.805176 0.383301)" fill="white"/>
<g clip-path="url(#clip0_347_32508)">
<path fill-rule="evenodd" clip-rule="evenodd" d="M56.3765 20.7996C57.4881 20.5804 58.6153 20.5804 59.7112 20.7996L59.7583 20.8153V39.1803L59.7112 39.1961C58.5996 39.4153 57.4881 39.4153 56.3765 39.1961L56.3294 39.1803V31.7277H48.7674V39.1803L48.7204 39.1961C48.1569 39.3057 47.6089 39.3681 47.0451 39.3681C46.4814 39.3681 45.9336 39.3057 45.3856 39.1961L45.3386 39.1803V20.8151L45.3856 20.7994C46.4816 20.5647 47.6089 20.5647 48.7204 20.7994L48.7674 20.8151V28.7999H56.3294V20.8153L56.3765 20.7996ZM68.1343 25.9663C70.0758 25.9663 71.6729 26.5925 72.7218 27.7512C73.9117 29.0819 74.397 31.0546 74.1309 33.4814V33.5438H64.9248C64.9562 36.0178 66.0365 37.2077 68.2127 37.2077C69.7782 37.2077 70.843 36.4405 71.0622 35.1566V35.1097H71.1091C72.1268 34.9687 72.9879 35.0313 73.9117 35.3444L73.9586 35.3601V35.4071C73.7237 37.5679 71.8451 39.7439 68.1815 39.7439C66.0365 39.7439 64.3925 39.0707 63.3122 37.7714C62.3102 36.5658 61.8092 34.8591 61.8092 32.6672C61.8092 28.4712 64.1733 25.9663 68.1343 25.9663V25.9663ZM68.0719 28.3461C66.1304 28.3461 64.9875 29.536 64.8936 31.6181H71.0153C71.0622 30.6006 70.8118 29.7551 70.2637 29.1758C69.747 28.6278 68.9955 28.3461 68.0717 28.3461H68.0719ZM76.3854 20.7996C77.4188 20.5649 78.4834 20.5649 79.5166 20.7996L79.5637 20.8153V39.1803L79.5166 39.1961C79 39.3057 78.4677 39.3681 77.9511 39.3681C77.4345 39.3681 76.902 39.3057 76.3854 39.1961L76.3385 39.1803V20.8151L76.3854 20.7996ZM88.6131 25.9663C92.3706 25.9663 94.5155 28.487 94.5155 32.8709C94.5155 37.1607 92.3549 39.7284 88.7384 39.7284C87.4389 39.7284 86.2804 39.3838 85.1843 38.695V44.8167L85.1374 44.8324C84.6206 44.942 84.0883 45.0045 83.5717 45.0045C83.0551 45.0045 82.5226 44.942 82.0062 44.8324L81.9591 44.8167V26.5455L82.006 26.53C82.7732 26.2951 83.4152 26.2951 84.1981 26.53L84.2293 26.5455L84.4171 27.5162C85.7791 26.4988 87.2354 25.9663 88.6131 25.9663V25.9663ZM85.1374 29.5828V36.1429C86.0612 36.785 86.9692 37.0979 87.9242 37.0979C90.163 37.0979 91.3529 35.642 91.3529 32.9178C91.3529 30.1308 90.1473 28.6123 87.9555 28.6123C87.0004 28.6123 86.1079 28.9254 85.1374 29.583V29.5828ZM108.293 29.2854C110.845 30.2718 113.491 31.2895 113.507 34.3737C113.476 39.0238 109.092 39.7284 106.43 39.7284C103.722 39.7284 101.608 39.0238 100.324 37.6459C99.3691 36.6284 98.915 35.3132 99.0089 33.8259V33.7789L99.0558 33.7632C100.152 33.5126 101.279 33.4971 102.391 33.7163L102.438 33.7318V33.7789C102.344 34.6086 102.547 35.282 103.033 35.8143C103.69 36.5344 104.849 36.9258 106.367 36.9258C107.745 36.9258 108.779 36.6282 109.373 36.0178C109.78 35.5951 109.984 35.047 109.968 34.3582C109.937 33.0274 108.45 32.5264 105.976 31.6653C105.475 31.493 104.896 31.2895 104.301 31.0703L104.019 30.9764C102.203 30.3188 99.1499 29.2228 99.1811 25.9193C99.2281 22.6002 101.905 20.6118 106.352 20.6118H106.43C108.825 20.6275 110.72 21.285 111.894 22.5375C112.849 23.5395 113.319 24.886 113.241 26.4204V26.4673L113.194 26.4829C112.004 26.749 110.908 26.7804 109.828 26.5612L109.781 26.5455V26.4988C109.843 25.5907 109.624 24.8547 109.123 24.3226C108.544 23.6807 107.558 23.3519 106.289 23.3519C105.005 23.3519 103.941 23.6964 103.33 24.3381C102.907 24.761 102.704 25.3088 102.72 25.9352C102.766 27.2817 104.269 27.8295 106.759 28.722C107.244 28.8943 107.745 29.0821 108.293 29.2856V29.2854ZM121.539 28.6123C119.284 28.6123 118.235 29.9587 118.235 32.8395C118.235 35.7202 119.284 37.0667 121.539 37.0667C122.118 37.0667 124.059 36.9256 124.357 34.9217V34.8748H124.404C125.437 34.687 126.408 34.7495 127.285 35.047L127.332 35.0628V35.1097C127.222 36.2996 126.69 37.4112 125.813 38.2253C124.764 39.2116 123.261 39.7284 121.476 39.7284C117.343 39.7284 115.057 37.2859 115.057 32.8552C115.057 28.4086 117.358 25.9506 121.538 25.9506C123.292 25.9506 124.779 26.4516 125.813 27.4066C126.721 28.2365 127.269 29.4107 127.363 30.6945V30.7415L127.316 30.7572C126.392 31.0232 125.421 31.086 124.404 30.9295H124.357V30.8823C124.247 30.0369 123.746 28.6123 121.539 28.6123ZM135.285 25.9663C139.403 25.9663 141.657 28.4088 141.657 32.8709C141.657 37.3014 139.403 39.7439 135.285 39.7439C131.183 39.7439 128.913 37.3016 128.913 32.8707C128.913 28.4243 131.167 25.9663 135.285 25.9663V25.9663ZM138.557 32.8552C138.557 30.0057 137.492 28.6121 135.285 28.6121C133.046 28.6121 132.013 29.9587 132.013 32.8552C132.013 35.7047 133.077 37.0824 135.285 37.0824C137.492 37.0824 138.557 35.689 138.557 32.8552ZM151.959 26.5455C153.008 26.2796 154.057 26.2796 155.09 26.5455L155.137 26.5612V39.1803L155.09 39.1961C154.339 39.3996 153.556 39.3996 152.804 39.1961L152.773 39.1803L152.46 37.7398C150.988 39.102 149.626 39.7126 148.045 39.7126C145.117 39.7126 143.426 37.9278 143.426 34.7966V26.5612L143.473 26.5455C144.507 26.2951 145.571 26.2951 146.605 26.5455L146.652 26.5612V34.0763C146.652 36.1429 147.309 37.0199 148.843 37.0199C149.939 37.0199 150.879 36.6127 151.912 35.7204V26.5612L151.959 26.5455ZM165.001 36.7221C165.236 37.6147 165.236 38.4758 164.985 39.3057L164.969 39.3369H164.938C164.046 39.5092 163.263 39.603 162.574 39.603C161.463 39.603 160.617 39.3681 160.022 38.8828C158.926 37.9747 158.832 36.3778 158.832 34.8121L158.801 29.1915H157.188L157.173 29.1446C156.969 28.2678 156.969 27.3911 157.173 26.53L157.188 26.4829H158.801L158.77 23.0074L158.817 22.9915C159.85 22.7567 160.915 22.7567 161.948 22.9915L161.995 23.0072V26.4829H164.547L164.562 26.53C164.735 27.3911 164.735 28.2678 164.562 29.129L164.547 29.1758H161.995V35.0313C161.995 35.8143 162.167 36.3152 162.512 36.597C162.95 36.9415 163.67 36.9728 164.923 36.6754L164.985 36.6597L165.001 36.7221Z" fill="#213743"/>
<path fill-rule="evenodd" clip-rule="evenodd" d="M25.4516 24.0775L16.8473 32.8666C15.7719 31.7679 15.0997 30.2574 14.9651 28.4719C14.9651 26.8242 15.7718 25.1762 16.8473 24.0775L25.5862 15.2886C26.6617 16.3873 27.3338 18.0351 27.3338 19.683C27.3338 21.331 26.5273 22.979 25.4518 24.0775H25.4516ZM29.2366 36.2469L37.9352 27.4578C39.0227 28.6938 39.7024 30.2045 39.7024 31.8523C39.7024 33.5003 38.8866 35.1482 37.7995 36.2469L29.1006 45.0358C28.0133 43.9371 27.3338 42.2892 27.3338 40.6414C27.3338 38.9934 28.1492 37.3455 29.2366 36.2469V36.2469ZM29.0233 24.0775L31.5917 21.5084L37.945 15.2886C39.0264 16.3703 39.7022 17.9929 39.7022 19.6156C39.7022 21.2382 38.8913 22.8606 37.8097 23.9424L31.5917 30.1622L29.0233 32.7313L25.3738 36.3821L22.8054 38.9511L16.7225 45.0358C15.6409 43.9541 14.9651 42.3315 14.9651 40.7089C14.9651 39.0863 15.7762 37.4636 16.8576 36.3821L22.9405 30.2973L25.3736 27.7283L29.0233 24.0775Z" fill="#1292EE"/>
</g>
<defs>
<clipPath id="clip0_347_32508">
<rect width="150.302" height="29.8105" fill="white" transform="translate(14.9651 15.2886)"/>
</clipPath>
</defs>
</svg>
