<svg width="18" height="18" viewBox="0 0 18 18" fill="none" xmlns="http://www.w3.org/2000/svg">
<path d="M15.75 15.75L12.4928 12.4928M12.4928 12.4928C13.0499 11.9356 13.4919 11.2742 13.7934 10.5462C14.095 9.81822 14.2502 9.03798 14.2502 8.25003C14.2502 7.46208 14.095 6.68184 13.7934 5.95387C13.4919 5.2259 13.0499 4.56445 12.4928 4.00728C11.9356 3.45012 11.2741 3.00815 10.5462 2.70661C9.81819 2.40508 9.03795 2.24988 8.25 2.24988C7.46205 2.24988 6.68181 2.40508 5.95384 2.70661C5.22587 3.00815 4.56442 3.45012 4.00725 4.00728C2.882 5.13253 2.24985 6.65869 2.24985 8.25003C2.24985 9.84137 2.882 11.3675 4.00725 12.4928C5.1325 13.618 6.65866 14.2502 8.25 14.2502C9.84134 14.2502 11.3675 13.618 12.4928 12.4928Z" stroke="white" stroke-width="2" stroke-linecap="round" stroke-linejoin="round"/>
</svg>
