<svg width="120" height="61" viewBox="0 0 120 61" fill="none" xmlns="http://www.w3.org/2000/svg">
<rect width="119.242" height="59.6209" transform="translate(0.246155 0.741211)" fill="white"/>
<path d="M99.4134 40.4259C99.4134 40.1688 99.1991 40.0402 98.942 40.0402H98.5135V41.3258H98.7277V40.8116H98.8991L99.1991 41.3258H99.4562L99.1134 40.7687C99.2848 40.7259 99.4134 40.5973 99.4134 40.4259ZM98.6849 40.5973V40.2545H98.8991C99.0277 40.2545 99.1563 40.2973 99.1563 40.4259C99.1563 40.5973 98.9849 40.5973 98.8563 40.5973H98.6849ZM98.8991 39.5688C98.2564 39.5688 97.7421 40.0831 97.7421 40.7259C97.7421 41.3687 98.2564 41.84 98.8991 41.84C99.5419 41.84 100.056 41.3258 100.056 40.7259C100.056 40.0831 99.5419 39.5688 98.8991 39.5688ZM98.8991 41.6686C98.3849 41.6686 97.9564 41.2401 97.9564 40.7259C97.9564 40.2116 98.3849 39.7831 98.8991 39.7831C99.4134 39.7831 99.8419 40.2116 99.8419 40.7259C99.8848 41.2401 99.4562 41.6686 98.8991 41.6686Z" fill="#0077C5"/>
<path d="M21.2503 26.2418H25.1071V41.6687H21.2503V26.2418ZM37.5343 25.7704C35.2631 25.7704 33.4205 27.1417 32.7348 28.6843H32.6491V26.1989H29.0067V41.6258H32.8634V33.1839C32.8634 31.1269 34.0204 28.9843 36.463 28.9843C38.9484 28.9843 39.377 31.2555 39.377 33.0982V41.6687H43.2337V32.0268C43.2337 28.8986 41.5624 25.7704 37.5343 25.7704ZM70.745 34.7266C70.745 36.7835 69.588 38.9261 67.1454 38.9261C64.66 38.9261 64.2314 36.6549 64.2314 34.8123V26.2418H60.3747V35.8836C60.3747 39.0118 62.046 42.0972 66.0741 42.0972C68.3453 42.0972 70.1879 40.7259 70.8736 39.1832H70.9593V41.6687H74.6018V26.2418H70.745C70.745 26.2418 70.745 34.7266 70.745 34.7266ZM78.5442 41.6687H82.4009V26.2418H78.5442V41.6687ZM45.2049 29.6271H49.533V41.6687H53.3898V29.6271H57.7179V26.1989H45.2049V29.6271ZM51.4614 24.2277C52.747 24.2277 53.7754 23.1992 53.7754 21.9136C53.7754 20.6281 52.747 19.5996 51.4614 19.5996C50.1758 19.5996 49.1473 20.6281 49.1473 21.9136C49.1473 23.1992 50.1758 24.2277 51.4614 24.2277ZM85.1006 26.2418V29.67H89.4287V41.7115H93.2855V29.6271H97.6136V26.1989H85.1006V26.2418ZM91.3571 24.2277C92.6427 24.2277 93.6711 23.1992 93.6711 21.9136C93.6711 20.6281 92.6427 19.5996 91.3571 19.5996C90.0715 19.5996 89.0431 20.6281 89.0431 21.9136C89.0431 23.1564 90.0715 24.2277 91.3571 24.2277Z" fill="#0077C5"/>
</svg>
