<svg width="120" height="61" viewBox="0 0 120 61" fill="none" xmlns="http://www.w3.org/2000/svg">
<rect width="119.242" height="59.6209" transform="translate(0.246338 0.383301)" fill="white"/>
<path d="M99.4134 40.068C99.4134 39.8109 99.1992 39.6823 98.9421 39.6823H98.5135V40.9679H98.7278V40.4537H98.8992L99.1992 40.9679H99.4563L99.1135 40.4108C99.2849 40.368 99.4134 40.2394 99.4134 40.068ZM98.6849 40.2394V39.8966H98.8992C99.0278 39.8966 99.1563 39.9394 99.1563 40.068C99.1563 40.2394 98.9849 40.2394 98.8564 40.2394H98.6849ZM98.8992 39.2109C98.2564 39.2109 97.7422 39.7252 97.7422 40.368C97.7422 41.0107 98.2564 41.4821 98.8992 41.4821C99.542 41.4821 100.056 40.9679 100.056 40.368C100.056 39.7252 99.542 39.2109 98.8992 39.2109ZM98.8992 41.3107C98.385 41.3107 97.9565 40.8822 97.9565 40.368C97.9565 39.8537 98.385 39.4252 98.8992 39.4252C99.4134 39.4252 99.842 39.8537 99.842 40.368C99.8848 40.8822 99.4563 41.3107 98.8992 41.3107Z" fill="#0077C5"/>
<path d="M21.2506 25.8838H25.1073V41.3108H21.2506V25.8838ZM37.5346 25.4125C35.2634 25.4125 33.4207 26.7837 32.7351 28.3264H32.6494V25.841H29.0069V41.2679H32.8637V32.826C32.8637 30.769 34.0207 28.6264 36.4633 28.6264C38.9487 28.6264 39.3772 30.8976 39.3772 32.7403V41.3108H43.234V31.6689C43.234 28.5407 41.5627 25.4125 37.5346 25.4125ZM70.7453 34.3686C70.7453 36.4256 69.5883 38.5682 67.1457 38.5682C64.6602 38.5682 64.2317 36.297 64.2317 34.4544V25.8838H60.375V35.5257C60.375 38.6539 62.0462 41.7393 66.0744 41.7393C68.3456 41.7393 70.1882 40.368 70.8739 38.8253H70.9596V41.3108H74.602V25.8838H70.7453C70.7453 25.8838 70.7453 34.3686 70.7453 34.3686ZM78.5445 41.3108H82.4012V25.8838H78.5445V41.3108ZM45.2052 29.2692H49.5333V41.3108H53.39V29.2692H57.7181V25.841H45.2052V29.2692ZM51.4617 23.8698C52.7472 23.8698 53.7757 22.8413 53.7757 21.5557C53.7757 20.2702 52.7472 19.2417 51.4617 19.2417C50.1761 19.2417 49.1476 20.2702 49.1476 21.5557C49.1476 22.8413 50.1761 23.8698 51.4617 23.8698ZM85.1009 25.8838V29.312H89.429V41.3536H93.2857V29.2692H97.6138V25.841H85.1009V25.8838ZM91.3574 23.8698C92.643 23.8698 93.6714 22.8413 93.6714 21.5557C93.6714 20.2702 92.643 19.2417 91.3574 19.2417C90.0718 19.2417 89.0433 20.2702 89.0433 21.5557C89.0433 22.7985 90.0718 23.8698 91.3574 23.8698Z" fill="#0077C5"/>
</svg>
