<svg width="35" height="35" viewBox="0 0 35 35" fill="none" xmlns="http://www.w3.org/2000/svg">
<path d="M17.5002 0.710938C9.89859 0.710938 3.66422 6.72656 3.66422 14.0547C3.66422 19.9062 12.0314 29.5859 15.6408 33.5234C16.133 34.0703 16.7892 34.3437 17.5002 34.3437C18.2111 34.3437 18.8673 34.0703 19.3595 33.5234C22.9689 29.6406 31.3361 19.9062 31.3361 14.0547C31.3361 6.67188 25.1017 0.710938 17.5002 0.710938ZM17.9377 32.2109C17.6642 32.4844 17.2814 32.4844 17.0627 32.2109C14.383 29.3125 5.57828 19.3594 5.57828 14.0547C5.57828 7.71094 10.9377 2.625 17.5002 2.625C24.0627 2.625 29.422 7.76562 29.422 14.0547C29.422 19.3594 20.6173 29.2578 17.9377 32.2109Z" fill="white"/>
<path d="M17.5002 8.58594C14.2736 8.58594 11.5939 11.2109 11.5939 14.4922C11.5939 17.7188 14.2189 20.3984 17.5002 20.3984C20.7814 20.3984 23.4064 17.7734 23.4064 14.4922C23.4064 11.2109 20.7267 8.58594 17.5002 8.58594ZM17.5002 18.4297C15.3127 18.4297 13.508 16.625 13.508 14.4375C13.508 12.25 15.3127 10.4453 17.5002 10.4453C19.6877 10.4453 21.4923 12.25 21.4923 14.4375C21.4923 16.625 19.6877 18.4297 17.5002 18.4297Z" fill="white"/>
</svg>
