<svg width="121" height="61" viewBox="0 0 121 61" fill="none" xmlns="http://www.w3.org/2000/svg">
<g clip-path="url(#clip0_25_396)">
<rect width="119.242" height="59.6209" transform="translate(0.952759 0.741211)" fill="white"/>
<path d="M21.2722 27.367H22.7553C23.6823 27.367 24.6463 27.5524 24.6463 28.6277C24.6463 29.5546 24.0531 30.222 22.3104 30.222H20.679L21.2722 27.367ZM14.7466 37.86H19.0476L19.9374 33.5961H22.8666C26.5743 33.5961 28.9844 31.1489 28.9844 28.294C28.9844 25.1794 27.3159 23.7334 24.7205 23.7334H17.7128L14.7466 37.86Z" fill="#004B8D"/>
<path d="M34.2865 28.5906L34.8056 32.8174H32.0989L34.2865 28.5906ZM24.98 37.86H29.4293L30.5046 35.8578H35.1022L35.3247 37.86H39.5886L37.4381 23.7334H33.1371L24.98 37.86Z" fill="#004B8D"/>
<path d="M41.4054 32.6691L38.3651 23.7334H42.7402L44.075 28.9984L47.5232 23.7334H52.64L45.7435 32.632L44.6683 37.86H40.3302L41.4054 32.6691Z" fill="#004B8D"/>
<path d="M63.0217 32.4837C62.7622 33.9297 61.6499 38.1936 55.7545 38.1936C51.6389 38.1936 49.6738 35.524 49.6738 31.7421C49.6738 27.1816 52.5288 23.3625 57.3489 23.3625C60.5005 23.3625 63.3184 24.7344 63.3925 28.9613H59.2769C59.314 27.6265 58.6836 26.8849 57.3489 26.8849C54.9388 26.8849 54.0489 29.6658 54.0489 31.668C54.0489 32.8544 54.3456 34.6342 56.3478 34.6342C57.7196 34.6342 58.4983 33.7072 58.7578 32.4466L63.0217 32.4837Z" fill="#004B8D"/>
<path d="M65.543 23.7334H69.9182L68.88 28.6277H72.8473L73.8855 23.7334H78.2606L75.2944 37.86H70.9563L72.1057 32.2613H68.1384L66.952 37.86H62.6139L65.543 23.7334Z" fill="#004B8D"/>
<path d="M79.4101 23.7334H91.0895L90.348 27.367H83.0066L82.6358 29.1097H89.4581L88.7536 32.4837H81.9313L81.5606 34.2264H89.0503L88.3087 37.86H76.4438L79.4101 23.7334Z" fill="#004B8D"/>
<path d="M94.0928 30.3703L90.83 23.7334H95.5759L96.9478 27.4041L99.7657 23.7334H104.92L99.0242 30.3703L102.472 37.86H97.5781L96.0209 33.9298L92.721 37.86H87.3818L94.0928 30.3703Z" fill="#004B8D"/>
<path d="M105.476 24.3638C105.476 23.8447 105.846 23.4369 106.366 23.4369C106.848 23.4369 107.255 23.8447 107.255 24.3638C107.255 24.8829 106.885 25.2908 106.366 25.2908C105.884 25.2908 105.476 24.8829 105.476 24.3638ZM105.29 24.3638C105.29 24.9941 105.772 25.4391 106.366 25.4391C106.959 25.4391 107.441 24.9941 107.441 24.3638C107.441 23.7706 106.959 23.2886 106.366 23.2886C105.772 23.2886 105.29 23.7706 105.29 24.3638ZM105.958 24.9941H106.143V24.4751H106.328L106.662 25.0312H106.885L106.514 24.4751C106.699 24.4751 106.848 24.3638 106.848 24.1414C106.848 23.8818 106.699 23.7706 106.403 23.7706H105.958V24.9941ZM106.143 23.9189H106.403C106.551 23.9189 106.662 23.956 106.662 24.1043C106.662 24.2897 106.514 24.3267 106.328 24.3267H106.143V23.9189V23.9189Z" fill="#004B8D"/>
</g>
<defs>
<clipPath id="clip0_25_396">
<rect width="119.242" height="59.6209" fill="white" transform="translate(0.952759 0.741211)"/>
</clipPath>
</defs>
</svg>
