<svg width="121" height="61" viewBox="0 0 121 61" fill="none" xmlns="http://www.w3.org/2000/svg">
<g clip-path="url(#clip0_347_32521)">
<rect width="119.242" height="59.6209" transform="translate(0.953125 0.383301)" fill="white"/>
<path d="M21.2725 27.0091H22.7556C23.6826 27.0091 24.6466 27.1945 24.6466 28.2697C24.6466 29.1967 24.0533 29.8641 22.3107 29.8641H20.6793L21.2725 27.0091ZM14.7468 37.5021H19.0478L19.9377 33.2382H22.8668C26.5746 33.2382 28.9847 30.791 28.9847 27.936C28.9847 24.8215 27.3162 23.3755 24.7207 23.3755H17.713L14.7468 37.5021Z" fill="#004B8D"/>
<path d="M34.287 28.2327L34.8061 32.4595H32.0994L34.287 28.2327ZM24.9805 37.5021H29.4298L30.505 35.4999H35.1027L35.3251 37.5021H39.5891L37.4386 23.3755H33.1376L24.9805 37.5021Z" fill="#004B8D"/>
<path d="M41.4059 32.3112L38.3655 23.3755H42.7406L44.0754 28.6405L47.5237 23.3755H52.6404L45.7439 32.2741L44.6687 37.5021H40.3306L41.4059 32.3112Z" fill="#004B8D"/>
<path d="M63.022 32.1258C62.7625 33.5718 61.6502 37.8357 55.7548 37.8357C51.6392 37.8357 49.6741 35.1661 49.6741 31.3842C49.6741 26.8236 52.5291 23.0046 57.3492 23.0046C60.5008 23.0046 63.3187 24.3765 63.3928 28.6034H59.2772C59.3143 27.2686 58.684 26.527 57.3492 26.527C54.9391 26.527 54.0492 29.3078 54.0492 31.31C54.0492 32.4965 54.3459 34.2763 56.3481 34.2763C57.7199 34.2763 58.4986 33.3493 58.7581 32.0887L63.022 32.1258Z" fill="#004B8D"/>
<path d="M65.5434 23.3755H69.9186L68.8804 28.2697H72.8477L73.8859 23.3755H78.261L75.2948 37.5021H70.9567L72.1061 31.9034H68.1388L66.9523 37.5021H62.6143L65.5434 23.3755Z" fill="#004B8D"/>
<path d="M79.4103 23.3755H91.0898L90.3482 27.0091H83.0068L82.6361 28.7518H89.4584L88.7539 32.1258H81.9316L81.5608 33.8685H89.0505L88.309 37.5021H76.4441L79.4103 23.3755Z" fill="#004B8D"/>
<path d="M94.0931 30.0124L90.8303 23.3755H95.5763L96.9481 27.0462L99.766 23.3755H104.92L99.0245 30.0124L102.473 37.5021H97.5784L96.0212 33.5719L92.7213 37.5021H87.3821L94.0931 30.0124Z" fill="#004B8D"/>
<path d="M105.476 24.0059C105.476 23.4868 105.847 23.079 106.366 23.079C106.848 23.079 107.256 23.4868 107.256 24.0059C107.256 24.525 106.885 24.9329 106.366 24.9329C105.884 24.9329 105.476 24.525 105.476 24.0059ZM105.291 24.0059C105.291 24.6362 105.773 25.0812 106.366 25.0812C106.959 25.0812 107.441 24.6362 107.441 24.0059C107.441 23.4127 106.959 22.9307 106.366 22.9307C105.773 22.9307 105.291 23.4127 105.291 24.0059ZM105.958 24.6362H106.144V24.1172H106.329L106.663 24.6733H106.885L106.514 24.1172C106.7 24.1172 106.848 24.0059 106.848 23.7835C106.848 23.5239 106.7 23.4127 106.403 23.4127H105.958V24.6362ZM106.144 23.561H106.403C106.551 23.561 106.663 23.5981 106.663 23.7464C106.663 23.9318 106.514 23.9688 106.329 23.9688H106.144V23.561V23.561Z" fill="#004B8D"/>
</g>
<defs>
<clipPath id="clip0_347_32521">
<rect width="119.242" height="59.6209" fill="white" transform="translate(0.953125 0.383301)"/>
</clipPath>
</defs>
</svg>
