<svg width="121" height="60" viewBox="0 0 121 60" fill="none" xmlns="http://www.w3.org/2000/svg">
<rect width="119.242" height="59.6209" transform="translate(0.937744 0.00439453)" fill="white"/>
<path d="M55.7866 14.2872C57.6211 12.3872 60.1763 11.186 62.9935 11.186C66.7499 11.186 70.0039 13.2826 71.751 16.3837C73.2579 15.7067 74.9396 15.3354 76.7085 15.3354C83.4787 15.3354 88.9385 20.8608 88.9385 27.6746C88.9385 34.4884 83.4568 40.0137 76.7085 40.0137C75.8786 40.0137 75.0706 39.9264 74.3062 39.7735C72.7775 42.5034 69.851 44.3597 66.4878 44.3597C65.0901 44.3597 63.7579 44.0321 62.5786 43.4643C61.028 47.1114 57.4027 49.6885 53.1877 49.6885C48.7981 49.6885 45.0417 46.9149 43.6004 43.0057C42.967 43.1367 42.3118 43.2022 41.6567 43.2022C36.4153 43.2022 32.1785 38.9218 32.1785 33.6148C32.1785 30.0769 34.0785 26.9757 36.9176 25.3159C36.3279 23.9838 36.0003 22.4987 36.0003 20.9263C35.9785 14.8768 40.936 9.94116 47.0073 9.94116C50.5889 9.94116 53.7774 11.6446 55.7866 14.2872" fill="#00A1E0"/>
<path d="M40.3903 30.5574L40.6305 29.9241C40.6742 29.8149 40.7397 29.8586 40.7834 29.8804C40.8489 29.9241 40.8926 29.9459 40.9799 30.0114C41.6569 30.4482 42.2903 30.4482 42.4868 30.4482C42.9891 30.4482 43.3167 30.1861 43.3167 29.8149V29.793C43.3167 29.3999 42.8363 29.2471 42.2684 29.0724L42.1374 29.0287C41.373 28.8103 40.5431 28.4827 40.5431 27.5218V27.4999C40.5431 26.5827 41.2857 25.9275 42.3558 25.9275H42.465C43.0983 25.9275 43.688 26.1022 44.1248 26.3861C44.1684 26.408 44.2121 26.4516 44.1903 26.5172C44.1684 26.5827 43.9719 27.085 43.9501 27.1505C43.9064 27.2597 43.7972 27.1942 43.7972 27.1942C43.4041 26.9758 42.8144 26.8229 42.3121 26.8229C41.8535 26.8229 41.5696 27.0631 41.5696 27.3907V27.4126C41.5696 27.7838 42.0719 27.9586 42.6397 28.1333L42.7489 28.1551C43.5133 28.3953 44.3213 28.7229 44.3213 29.662V29.6838C44.3213 30.6885 43.6006 31.2999 42.4432 31.2999C41.8753 31.2999 41.3294 31.2126 40.7397 30.9068C40.6305 30.8413 40.5213 30.7976 40.4121 30.7103C40.3903 30.6666 40.3466 30.6448 40.3903 30.5574V30.5574ZM57.4248 30.5574L57.665 29.9241C57.7087 29.8149 57.7961 29.8586 57.8179 29.8804C57.8834 29.9241 57.9271 29.9459 58.0145 30.0114C58.6915 30.4482 59.3248 30.4482 59.5214 30.4482C60.0237 30.4482 60.3513 30.1861 60.3513 29.8149V29.793C60.3513 29.3999 59.8708 29.2471 59.303 29.0724L59.1719 29.0287C58.4076 28.8103 57.5777 28.4827 57.5777 27.5218V27.4999C57.5777 26.5827 58.3202 25.9275 59.3903 25.9275H59.4995C60.1329 25.9275 60.7225 26.1022 61.1593 26.3861C61.203 26.408 61.2467 26.4516 61.2248 26.5172C61.203 26.5827 61.0064 27.085 60.9846 27.1505C60.9409 27.2597 60.8317 27.1942 60.8317 27.1942C60.4386 26.9758 59.849 26.8229 59.3467 26.8229C58.888 26.8229 58.6041 27.0631 58.6041 27.3907V27.4126C58.6041 27.7838 59.1064 27.9586 59.6742 28.1333L59.7834 28.1551C60.5478 28.3953 61.3559 28.7229 61.3559 29.662V29.6838C61.3559 30.6885 60.6352 31.2999 59.4777 31.2999C58.9099 31.2999 58.3639 31.2126 57.7742 30.9068C57.665 30.8413 57.5558 30.7976 57.4466 30.7103C57.4466 30.6666 57.403 30.6448 57.4248 30.5574V30.5574ZM70.0478 27.5654C70.1352 27.893 70.2007 28.2425 70.2007 28.6137C70.2007 28.985 70.157 29.3344 70.0478 29.662C69.9605 29.9896 69.8076 30.2735 69.6111 30.5137C69.4145 30.754 69.1524 30.9505 68.8685 31.0816C68.5628 31.2126 68.2133 31.2781 67.8202 31.2781C67.4271 31.2781 67.0777 31.2126 66.772 31.0816C66.4662 30.9505 66.226 30.754 66.0294 30.5137C65.8329 30.2735 65.68 29.9896 65.5926 29.662C65.5053 29.3344 65.4398 28.985 65.4398 28.6137C65.4398 28.2425 65.4835 27.893 65.5926 27.5654C65.68 27.2379 65.8329 26.9539 66.0294 26.7137C66.226 26.4735 66.4881 26.2769 66.772 26.1459C67.0777 26.0149 67.4271 25.9275 67.8202 25.9275C68.2133 25.9275 68.5628 25.993 68.8685 26.1459C69.1743 26.2769 69.4145 26.4735 69.6111 26.7137C69.8076 26.9539 69.9605 27.2379 70.0478 27.5654ZM69.0651 28.5919C69.0651 28.0241 68.9559 27.5873 68.7593 27.2815C68.5628 26.9758 68.2352 26.8229 67.8202 26.8229C67.3835 26.8229 67.0777 26.9758 66.8812 27.2815C66.6846 27.5873 66.5754 28.0241 66.5754 28.5919C66.5754 29.1597 66.6846 29.5965 66.8812 29.9241C67.0777 30.2298 67.3835 30.3827 67.8202 30.3827C68.257 30.3827 68.5628 30.2298 68.7593 29.9241C68.9777 29.6183 69.0651 29.1597 69.0651 28.5919ZM78.041 30.2298L78.2812 30.885C78.303 30.9724 78.2375 30.9942 78.2375 30.9942C77.8662 31.1471 77.364 31.2344 76.8617 31.2344C76.0099 31.2344 75.3766 30.9942 74.9398 30.5137C74.503 30.0333 74.2846 29.3781 74.2846 28.57C74.2846 28.1988 74.3283 27.8494 74.4375 27.5218C74.5467 27.1942 74.6996 26.9103 74.918 26.67C75.1364 26.4298 75.3984 26.2333 75.7042 26.1022C76.0099 25.9712 76.3812 25.8838 76.7961 25.8838C77.08 25.8838 77.3203 25.9057 77.5168 25.9275C77.7352 25.9712 78.041 26.0367 78.172 26.1022C78.1938 26.1022 78.2594 26.1459 78.2375 26.2114C78.1502 26.4735 78.0846 26.6482 77.9973 26.8666C77.9536 26.9758 77.8881 26.9321 77.8881 26.9321C77.5605 26.8229 77.2548 26.7792 76.8617 26.7792C76.3812 26.7792 76.0099 26.9321 75.7915 27.2597C75.5513 27.5654 75.4203 27.9804 75.4203 28.5482C75.4203 29.1597 75.5731 29.5965 75.8352 29.8804C76.0973 30.1643 76.4685 30.2953 76.949 30.2953C77.1456 30.2953 77.3203 30.2735 77.4731 30.2517C77.626 30.2298 77.7789 30.1862 77.9318 30.1206C77.9099 30.1643 77.9973 30.1425 78.041 30.2298ZM82.9984 27.3689C83.2168 28.1114 83.1076 28.7448 83.0858 28.7884C83.0858 28.8758 82.9984 28.8758 82.9984 28.8758H79.7007C79.7226 29.3781 79.8318 29.7275 80.0938 29.9678C80.3341 30.208 80.7053 30.3609 81.2295 30.3609C82.0157 30.3609 82.3433 30.208 82.5835 30.1206C82.5835 30.1206 82.6709 30.0988 82.7145 30.1861L82.9329 30.7976C82.9766 30.9068 82.9329 30.9287 82.9111 30.9505C82.7145 31.0597 82.2122 31.2781 81.2513 31.2781C80.7927 31.2781 80.3778 31.2126 80.0502 31.0816C79.7226 30.9505 79.4387 30.7758 79.2203 30.5356C79.0019 30.2953 78.849 30.0114 78.7398 29.7057C78.6306 29.3781 78.5869 29.0287 78.5869 28.6574C78.5869 28.2861 78.6306 27.9367 78.7398 27.6091C78.8272 27.2815 78.98 26.9976 79.1766 26.7574C79.3732 26.5172 79.6352 26.3206 79.941 26.1896C80.2467 26.0367 80.618 25.9712 81.0329 25.9712C81.3824 25.9712 81.7099 26.0367 81.972 26.1677C82.1686 26.2551 82.387 26.408 82.6053 26.6482C82.7145 26.7356 82.9111 27.0631 82.9984 27.3689V27.3689ZM79.7226 28.0677H82.0594C82.0375 27.762 81.972 27.4999 81.841 27.2815C81.6444 26.9758 81.3605 26.8011 80.9237 26.8011C80.4869 26.8011 80.1812 26.9758 79.9846 27.2815C79.8536 27.4781 79.7881 27.7402 79.7226 28.0677ZM56.6386 27.3689C56.857 28.1114 56.7478 28.7448 56.7478 28.7884C56.7478 28.8758 56.6604 28.8758 56.6604 28.8758H53.3627C53.3846 29.3781 53.4938 29.7275 53.7558 29.9678C53.9961 30.208 54.3673 30.3609 54.8915 30.3609C55.6777 30.3609 56.0053 30.208 56.2455 30.1206C56.2455 30.1206 56.3328 30.0988 56.3765 30.1861L56.5949 30.7976C56.6386 30.9068 56.5949 30.9287 56.5731 30.9505C56.3765 31.0597 55.8742 31.2781 54.9133 31.2781C54.4547 31.2781 54.0397 31.2126 53.7122 31.0816C53.3846 30.9505 53.1007 30.7758 52.8823 30.5356C52.6639 30.2953 52.511 30.0114 52.4018 29.7057C52.2926 29.3781 52.2489 29.0287 52.2489 28.6574C52.2489 28.2861 52.2926 27.9367 52.4018 27.6091C52.4892 27.2815 52.642 26.9976 52.8386 26.7574C53.0351 26.5172 53.2972 26.3206 53.603 26.1896C53.9087 26.0367 54.28 25.9712 54.6949 25.9712C55.0443 25.9712 55.3719 26.0367 55.634 26.1677C55.8305 26.2551 56.0489 26.408 56.2673 26.6482C56.3547 26.7356 56.5731 27.0631 56.6386 27.3689V27.3689ZM53.3627 28.0677H55.7214C55.6995 27.762 55.634 27.4999 55.503 27.2815C55.3064 26.9758 55.0225 26.8011 54.5857 26.8011C54.1489 26.8011 53.8432 26.9758 53.6466 27.2815C53.4938 27.4781 53.4282 27.7402 53.3627 28.0677ZM47.5754 27.893C47.5754 27.893 47.8374 27.9149 48.1213 27.9586V27.8275C48.1213 27.3907 48.034 27.1723 47.8593 27.0413C47.6845 26.9103 47.4006 26.8229 47.0512 26.8229C47.0512 26.8229 46.2432 26.8229 45.6098 27.1505C45.588 27.1723 45.5661 27.1723 45.5661 27.1723C45.5661 27.1723 45.4788 27.1942 45.457 27.1287L45.2167 26.4953C45.173 26.408 45.2386 26.3643 45.2386 26.3643C45.5443 26.1241 46.2432 25.993 46.2432 25.993C46.4834 25.9493 46.8765 25.9057 47.1167 25.9057C47.7719 25.9057 48.2742 26.0585 48.6236 26.3643C48.9731 26.67 49.1478 27.1505 49.1478 27.8275V30.8413C49.1478 30.8413 49.1478 30.9287 49.0823 30.9505C49.0823 30.9505 48.9512 30.9942 48.842 31.016C48.7328 31.0379 48.3397 31.1252 48.0121 31.1689C47.6845 31.2344 47.357 31.2563 47.0075 31.2563C46.6799 31.2563 46.396 31.2344 46.134 31.1689C45.8719 31.1034 45.6535 31.016 45.457 30.885C45.2822 30.754 45.1294 30.5793 45.0202 30.3609C44.911 30.1643 44.8673 29.9022 44.8673 29.6183C44.8673 29.3344 44.9328 29.0724 45.042 28.854C45.1512 28.6356 45.3259 28.4609 45.5225 28.308C45.719 28.1551 45.9593 28.0677 46.1995 27.9804C46.4616 27.9149 46.7236 27.8712 47.0075 27.8712C47.2696 27.893 47.4443 27.893 47.5754 27.893V27.893ZM46.265 30.208C46.265 30.208 46.5708 30.4482 47.2259 30.4045C47.7064 30.3827 48.1213 30.2953 48.1213 30.2953V28.7884C48.1213 28.7884 47.7064 28.7229 47.2259 28.7229C46.5489 28.7229 46.265 28.9632 46.265 28.9632C46.0684 29.0942 45.9811 29.3126 45.9811 29.5965C45.9811 29.7712 46.0248 29.9241 46.0903 30.0333C46.1121 30.077 46.134 30.1206 46.265 30.208ZM74.1099 26.2114C74.0881 26.2988 73.9134 26.7574 73.8697 26.9103C73.8478 26.9758 73.8042 26.9976 73.7387 26.9976C73.7387 26.9976 73.5421 26.9539 73.3674 26.9539C73.2582 26.9539 73.0835 26.9758 72.9306 27.0195C72.7777 27.0631 72.6467 27.1505 72.5157 27.2597C72.3846 27.3689 72.2973 27.5436 72.2317 27.7402C72.1662 27.9367 72.1226 28.2643 72.1226 28.6137V31.0597C72.1226 31.1252 72.0789 31.1689 72.0134 31.1689H71.1398C71.0743 31.1689 71.0306 31.1252 71.0306 31.0597V26.1459C71.0306 26.0804 71.0743 26.0367 71.118 26.0367H71.9697C72.0352 26.0367 72.057 26.0804 72.057 26.1459V26.539C72.1881 26.3643 72.4065 26.2114 72.603 26.1241C72.7996 26.0367 73.0398 25.9712 73.4547 25.993C73.6731 26.0149 73.957 26.0585 74.0007 26.0804C74.0881 26.1022 74.1318 26.1241 74.1099 26.2114V26.2114ZM66.0076 23.9401C66.0294 23.9401 66.0949 23.9838 66.0731 24.0493L65.811 24.7482C65.7892 24.7919 65.7674 24.8355 65.6582 24.7919C65.6363 24.7919 65.5926 24.77 65.4835 24.7482C65.4179 24.7264 65.3087 24.7264 65.2214 24.7264C65.0903 24.7264 64.9812 24.7482 64.872 24.77C64.7628 24.7919 64.6754 24.8574 64.588 24.9447C64.4859 25.0444 64.4043 25.1631 64.3478 25.2942C64.2168 25.6436 64.1731 26.0149 64.1731 26.0367H65.2214C65.3087 26.0367 65.3306 26.0804 65.3306 26.1459L65.1995 26.8229C65.1777 26.9321 65.0903 26.9103 65.0903 26.9103H63.9984L63.2995 31.1252C63.2122 31.562 63.1248 31.9333 63.0156 32.239C62.9064 32.5448 62.7754 32.7632 62.5788 32.9816C62.4041 33.1781 62.2076 33.331 61.9673 33.3965C61.749 33.4839 61.465 33.5275 61.1593 33.5275C61.0064 33.5275 60.8536 33.5275 60.6788 33.4839C60.5478 33.462 60.4823 33.4402 60.3731 33.3965C60.3294 33.3747 60.3076 33.331 60.3294 33.2655C60.3513 33.2 60.5478 32.6758 60.5696 32.5885C60.6133 32.5011 60.6788 32.5448 60.6788 32.5448C60.7444 32.5666 60.788 32.5885 60.8536 32.6103C60.9409 32.6321 61.0283 32.6321 61.1156 32.6321C61.2685 32.6321 61.3995 32.6103 61.5087 32.5666C61.6398 32.5229 61.7271 32.4356 61.8145 32.3264C61.9018 32.2172 61.9673 32.0643 62.0547 31.8678C62.1202 31.6712 62.1857 31.3873 62.2513 31.0597L62.9938 26.9321H62.2731C62.1857 26.9321 62.1639 26.8884 62.1639 26.8229L62.2949 26.1459C62.3168 26.0367 62.4041 26.0585 62.4041 26.0585H63.1467L63.1903 25.8402C63.2995 25.185 63.5179 24.6827 63.8455 24.3551C64.1731 24.0275 64.6536 23.8528 65.2432 23.8528C65.4179 23.8528 65.5708 23.8746 65.7018 23.8965C65.7892 23.8746 65.8984 23.8965 66.0076 23.9401V23.9401ZM51.288 31.0379C51.288 31.1034 51.2443 31.1471 51.2006 31.1471H50.3271C50.2616 31.1471 50.2397 31.1034 50.2397 31.0379V24.0275C50.2397 23.9838 50.2834 23.9183 50.3271 23.9183H51.2006C51.2662 23.9183 51.288 23.962 51.288 24.0275V31.0379Z" fill="white"/>
</svg>
