<svg width="121" height="61" viewBox="0 0 121 61" fill="none" xmlns="http://www.w3.org/2000/svg">
<rect width="119.242" height="59.6209" transform="translate(0.937744 0.720215)" fill="white"/>
<path d="M55.7867 15.003C57.6212 13.103 60.1764 11.9018 62.9936 11.9018C66.75 11.9018 70.004 13.9984 71.7511 17.0995C73.258 16.4225 74.9397 16.0513 76.7086 16.0513C83.4788 16.0513 88.9386 21.5766 88.9386 28.3904C88.9386 35.2042 83.4569 40.7295 76.7086 40.7295C75.8787 40.7295 75.0707 40.6422 74.3063 40.4893C72.7776 43.2192 69.8511 45.0755 66.4879 45.0755C65.0902 45.0755 63.758 44.7479 62.5787 44.1801C61.0281 47.8273 57.4028 50.4043 53.1878 50.4043C48.7982 50.4043 45.0418 47.6307 43.6004 43.7215C42.9671 43.8525 42.3119 43.9181 41.6568 43.9181C36.4154 43.9181 32.1786 39.6376 32.1786 34.3307C32.1786 30.7927 34.0786 27.6915 36.9177 26.0318C36.328 24.6996 36.0004 23.2145 36.0004 21.6421C35.9786 15.5926 40.9361 10.657 47.0074 10.657C50.589 10.657 53.7775 12.3604 55.7867 15.003" fill="#00A1E0"/>
<path d="M40.3902 31.2732L40.6305 30.6399C40.6741 30.5307 40.7397 30.5744 40.7833 30.5962C40.8489 30.6399 40.8925 30.6617 40.9799 30.7273C41.6569 31.164 42.2902 31.164 42.4868 31.164C42.9891 31.164 43.3167 30.902 43.3167 30.5307V30.5089C43.3167 30.1158 42.8362 29.9629 42.2684 29.7882L42.1374 29.7445C41.373 29.5261 40.5431 29.1985 40.5431 28.2376V28.2157C40.5431 27.2985 41.2856 26.6433 42.3558 26.6433H42.465C43.0983 26.6433 43.688 26.818 44.1247 27.102C44.1684 27.1238 44.2121 27.1675 44.1903 27.233C44.1684 27.2985 43.9719 27.8008 43.95 27.8663C43.9063 27.9755 43.7971 27.91 43.7971 27.91C43.404 27.6916 42.8144 27.5387 42.3121 27.5387C41.8535 27.5387 41.5696 27.779 41.5696 28.1066V28.1284C41.5696 28.4997 42.0719 28.6744 42.6397 28.8491L42.7489 28.8709C43.5132 29.1112 44.3213 29.4387 44.3213 30.3778V30.3997C44.3213 31.4043 43.6006 32.0158 42.4431 32.0158C41.8753 32.0158 41.3293 31.9284 40.7397 31.6227C40.6305 31.5571 40.5213 31.5135 40.4121 31.4261C40.3902 31.3824 40.3466 31.3606 40.3902 31.2732V31.2732ZM57.4248 31.2732L57.665 30.6399C57.7087 30.5307 57.796 30.5744 57.8179 30.5962C57.8834 30.6399 57.9271 30.6617 58.0144 30.7273C58.6914 31.164 59.3248 31.164 59.5213 31.164C60.0236 31.164 60.3512 30.902 60.3512 30.5307V30.5089C60.3512 30.1158 59.8708 29.9629 59.3029 29.7882L59.1719 29.7445C58.4075 29.5261 57.5776 29.1985 57.5776 28.2376V28.2157C57.5776 27.2985 58.3202 26.6433 59.3903 26.6433H59.4995C60.1328 26.6433 60.7225 26.818 61.1593 27.102C61.2029 27.1238 61.2466 27.1675 61.2248 27.233C61.2029 27.2985 61.0064 27.8008 60.9846 27.8663C60.9409 27.9755 60.8317 27.91 60.8317 27.91C60.4386 27.6916 59.8489 27.5387 59.3466 27.5387C58.888 27.5387 58.6041 27.779 58.6041 28.1066V28.1284C58.6041 28.4997 59.1064 28.6744 59.6742 28.8491L59.7834 28.8709C60.5478 29.1112 61.3558 29.4387 61.3558 30.3778V30.3997C61.3558 31.4043 60.6351 32.0158 59.4777 32.0158C58.9098 32.0158 58.3639 31.9284 57.7742 31.6227C57.665 31.5571 57.5558 31.5135 57.4466 31.4261C57.4466 31.3824 57.4029 31.3606 57.4248 31.2732V31.2732ZM70.0478 28.2813C70.1352 28.6089 70.2007 28.9583 70.2007 29.3295C70.2007 29.7008 70.157 30.0502 70.0478 30.3778C69.9604 30.7054 69.8076 30.9893 69.611 31.2296C69.4145 31.4698 69.1524 31.6663 68.8685 31.7974C68.5627 31.9284 68.2133 31.9939 67.8202 31.9939C67.4271 31.9939 67.0777 31.9284 66.7719 31.7974C66.4662 31.6663 66.226 31.4698 66.0294 31.2296C65.8328 30.9893 65.68 30.7054 65.5926 30.3778C65.5053 30.0502 65.4397 29.7008 65.4397 29.3295C65.4397 28.9583 65.4834 28.6089 65.5926 28.2813C65.68 27.9537 65.8328 27.6698 66.0294 27.4295C66.226 27.1893 66.488 26.9928 66.7719 26.8617C67.0777 26.7307 67.4271 26.6433 67.8202 26.6433C68.2133 26.6433 68.5627 26.7088 68.8685 26.8617C69.1742 26.9928 69.4145 27.1893 69.611 27.4295C69.8076 27.6698 69.9604 27.9537 70.0478 28.2813ZM69.065 29.3077C69.065 28.7399 68.9558 28.3031 68.7593 27.9974C68.5627 27.6916 68.2352 27.5387 67.8202 27.5387C67.3834 27.5387 67.0777 27.6916 66.8811 27.9974C66.6846 28.3031 66.5754 28.7399 66.5754 29.3077C66.5754 29.8755 66.6846 30.3123 66.8811 30.6399C67.0777 30.9456 67.3834 31.0985 67.8202 31.0985C68.257 31.0985 68.5627 30.9456 68.7593 30.6399C68.9777 30.3342 69.065 29.8755 69.065 29.3077ZM78.0409 30.9456L78.2812 31.6008C78.303 31.6882 78.2375 31.71 78.2375 31.71C77.8662 31.8629 77.3639 31.9503 76.8616 31.9503C76.0099 31.9503 75.3766 31.71 74.9398 31.2296C74.503 30.7491 74.2846 30.0939 74.2846 29.2859C74.2846 28.9146 74.3283 28.5652 74.4375 28.2376C74.5467 27.91 74.6995 27.6261 74.9179 27.3859C75.1363 27.1456 75.3984 26.9491 75.7041 26.818C76.0099 26.687 76.3812 26.5996 76.7961 26.5996C77.08 26.5996 77.3202 26.6215 77.5168 26.6433C77.7352 26.687 78.0409 26.7525 78.172 26.818C78.1938 26.818 78.2593 26.8617 78.2375 26.9272C78.1501 27.1893 78.0846 27.364 77.9973 27.5824C77.9536 27.6916 77.8881 27.6479 77.8881 27.6479C77.5605 27.5387 77.2547 27.4951 76.8616 27.4951C76.3812 27.4951 76.0099 27.6479 75.7915 27.9755C75.5513 28.2813 75.4202 28.6962 75.4202 29.264C75.4202 29.8755 75.5731 30.3123 75.8352 30.5962C76.0972 30.8801 76.4685 31.0112 76.949 31.0112C77.1455 31.0112 77.3202 30.9893 77.4731 30.9675C77.626 30.9456 77.7789 30.902 77.9317 30.8365C77.9099 30.8801 77.9973 30.8583 78.0409 30.9456ZM82.9984 28.0847C83.2168 28.8272 83.1076 29.4606 83.0858 29.5043C83.0858 29.5916 82.9984 29.5916 82.9984 29.5916H79.7007C79.7225 30.0939 79.8317 30.4433 80.0938 30.6836C80.334 30.9238 80.7053 31.0767 81.2294 31.0767C82.0157 31.0767 82.3432 30.9238 82.5835 30.8365C82.5835 30.8365 82.6708 30.8146 82.7145 30.902L82.9329 31.5135C82.9766 31.6227 82.9329 31.6445 82.9111 31.6663C82.7145 31.7755 82.2122 31.9939 81.2513 31.9939C80.7927 31.9939 80.3777 31.9284 80.0501 31.7974C79.7225 31.6663 79.4386 31.4916 79.2202 31.2514C79.0019 31.0112 78.849 30.7273 78.7398 30.4215C78.6306 30.0939 78.5869 29.7445 78.5869 29.3732C78.5869 29.002 78.6306 28.6525 78.7398 28.3249C78.8271 27.9974 78.98 27.7134 79.1766 27.4732C79.3731 27.233 79.6352 27.0364 79.9409 26.9054C80.2467 26.7525 80.618 26.687 81.0329 26.687C81.3823 26.687 81.7099 26.7525 81.972 26.8836C82.1685 26.9709 82.3869 27.1238 82.6053 27.364C82.7145 27.4514 82.9111 27.779 82.9984 28.0847V28.0847ZM79.7225 28.7836H82.0593C82.0375 28.4778 81.972 28.2157 81.8409 27.9974C81.6444 27.6916 81.3605 27.5169 80.9237 27.5169C80.4869 27.5169 80.1812 27.6916 79.9846 27.9974C79.8536 28.1939 79.7881 28.456 79.7225 28.7836ZM56.6386 28.0847C56.857 28.8272 56.7478 29.4606 56.7478 29.5043C56.7478 29.5916 56.6604 29.5916 56.6604 29.5916H53.3627C53.3845 30.0939 53.4937 30.4433 53.7558 30.6836C53.996 30.9238 54.3673 31.0767 54.8914 31.0767C55.6776 31.0767 56.0052 30.9238 56.2455 30.8365C56.2455 30.8365 56.3328 30.8146 56.3765 30.902L56.5949 31.5135C56.6386 31.6227 56.5949 31.6445 56.573 31.6663C56.3765 31.7755 55.8742 31.9939 54.9133 31.9939C54.4547 31.9939 54.0397 31.9284 53.7121 31.7974C53.3845 31.6663 53.1006 31.4916 52.8822 31.2514C52.6638 31.0112 52.511 30.7273 52.4018 30.4215C52.2926 30.0939 52.2489 29.7445 52.2489 29.3732C52.2489 29.002 52.2926 28.6525 52.4018 28.3249C52.4891 27.9974 52.642 27.7134 52.8386 27.4732C53.0351 27.233 53.2972 27.0364 53.6029 26.9054C53.9087 26.7525 54.2799 26.687 54.6949 26.687C55.0443 26.687 55.3719 26.7525 55.634 26.8836C55.8305 26.9709 56.0489 27.1238 56.2673 27.364C56.3547 27.4514 56.573 27.779 56.6386 28.0847V28.0847ZM53.3627 28.7836H55.7213C55.6995 28.4778 55.634 28.2157 55.5029 27.9974C55.3064 27.6916 55.0225 27.5169 54.5857 27.5169C54.1489 27.5169 53.8432 27.6916 53.6466 27.9974C53.4937 28.1939 53.4282 28.456 53.3627 28.7836ZM47.5753 28.6089C47.5753 28.6089 47.8374 28.6307 48.1213 28.6744V28.5433C48.1213 28.1066 48.0339 27.8882 47.8592 27.7571C47.6845 27.6261 47.4006 27.5387 47.0512 27.5387C47.0512 27.5387 46.2431 27.5387 45.6098 27.8663C45.588 27.8882 45.5661 27.8882 45.5661 27.8882C45.5661 27.8882 45.4788 27.91 45.4569 27.8445L45.2167 27.2111C45.173 27.1238 45.2385 27.0801 45.2385 27.0801C45.5443 26.8399 46.2431 26.7088 46.2431 26.7088C46.4834 26.6652 46.8765 26.6215 47.1167 26.6215C47.7719 26.6215 48.2742 26.7744 48.6236 27.0801C48.973 27.3859 49.1477 27.8663 49.1477 28.5433V31.5571C49.1477 31.5571 49.1477 31.6445 49.0822 31.6663C49.0822 31.6663 48.9512 31.71 48.842 31.7319C48.7328 31.7537 48.3397 31.8411 48.0121 31.8847C47.6845 31.9503 47.3569 31.9721 47.0075 31.9721C46.6799 31.9721 46.396 31.9503 46.1339 31.8847C45.8719 31.8192 45.6535 31.7319 45.4569 31.6008C45.2822 31.4698 45.1293 31.2951 45.0201 31.0767C44.9109 30.8801 44.8673 30.6181 44.8673 30.3342C44.8673 30.0502 44.9328 29.7882 45.042 29.5698C45.1512 29.3514 45.3259 29.1767 45.5224 29.0238C45.719 28.8709 45.9592 28.7836 46.1995 28.6962C46.4615 28.6307 46.7236 28.587 47.0075 28.587C47.2696 28.6089 47.4443 28.6089 47.5753 28.6089V28.6089ZM46.265 30.9238C46.265 30.9238 46.5707 31.164 47.2259 31.1204C47.7064 31.0985 48.1213 31.0112 48.1213 31.0112V29.5043C48.1213 29.5043 47.7064 29.4387 47.2259 29.4387C46.5489 29.4387 46.265 29.679 46.265 29.679C46.0684 29.81 45.9811 30.0284 45.9811 30.3123C45.9811 30.487 46.0247 30.6399 46.0903 30.7491C46.1121 30.7928 46.1339 30.8365 46.265 30.9238ZM74.1099 26.9272C74.088 27.0146 73.9133 27.4732 73.8697 27.6261C73.8478 27.6916 73.8041 27.7134 73.7386 27.7134C73.7386 27.7134 73.5421 27.6698 73.3674 27.6698C73.2582 27.6698 73.0834 27.6916 72.9306 27.7353C72.7777 27.779 72.6467 27.8663 72.5156 27.9755C72.3846 28.0847 72.2972 28.2594 72.2317 28.456C72.1662 28.6525 72.1225 28.9801 72.1225 29.3295V31.7755C72.1225 31.8411 72.0788 31.8847 72.0133 31.8847H71.1398C71.0742 31.8847 71.0306 31.8411 71.0306 31.7755V26.8617C71.0306 26.7962 71.0742 26.7525 71.1179 26.7525H71.9696C72.0352 26.7525 72.057 26.7962 72.057 26.8617V27.2548C72.188 27.0801 72.4064 26.9272 72.603 26.8399C72.7995 26.7525 73.0398 26.687 73.4547 26.7088C73.6731 26.7307 73.957 26.7744 74.0007 26.7962C74.088 26.818 74.1317 26.8399 74.1099 26.9272V26.9272ZM66.0076 24.656C66.0294 24.656 66.0949 24.6996 66.0731 24.7652L65.811 25.464C65.7892 25.5077 65.7673 25.5514 65.6581 25.5077C65.6363 25.5077 65.5926 25.4859 65.4834 25.464C65.4179 25.4422 65.3087 25.4422 65.2214 25.4422C65.0903 25.4422 64.9811 25.464 64.8719 25.4858C64.7627 25.5077 64.6754 25.5732 64.588 25.6606C64.4859 25.7602 64.4043 25.8789 64.3478 26.01C64.2168 26.3594 64.1731 26.7307 64.1731 26.7525H65.2214C65.3087 26.7525 65.3305 26.7962 65.3305 26.8617L65.1995 27.5387C65.1777 27.6479 65.0903 27.6261 65.0903 27.6261H63.9984L63.2995 31.8411C63.2121 32.2778 63.1248 32.6491 63.0156 32.9549C62.9064 33.2606 62.7754 33.479 62.5788 33.6974C62.4041 33.8939 62.2075 34.0468 61.9673 34.1123C61.7489 34.1997 61.465 34.2434 61.1593 34.2434C61.0064 34.2434 60.8535 34.2434 60.6788 34.1997C60.5478 34.1779 60.4823 34.156 60.3731 34.1123C60.3294 34.0905 60.3075 34.0468 60.3294 33.9813C60.3512 33.9158 60.5478 33.3916 60.5696 33.3043C60.6133 33.2169 60.6788 33.2606 60.6788 33.2606C60.7443 33.2824 60.788 33.3043 60.8535 33.3261C60.9409 33.348 61.0282 33.348 61.1156 33.348C61.2685 33.348 61.3995 33.3261 61.5087 33.2824C61.6397 33.2388 61.7271 33.1514 61.8144 33.0422C61.9018 32.933 61.9673 32.7801 62.0547 32.5836C62.1202 32.387 62.1857 32.1031 62.2512 31.7755L62.9938 27.6479H62.2731C62.1857 27.6479 62.1639 27.6043 62.1639 27.5387L62.2949 26.8617C62.3167 26.7525 62.4041 26.7744 62.4041 26.7744H63.1466L63.1903 26.556C63.2995 25.9008 63.5179 25.3985 63.8455 25.0709C64.1731 24.7433 64.6535 24.5686 65.2432 24.5686C65.4179 24.5686 65.5708 24.5904 65.7018 24.6123C65.7892 24.5904 65.8984 24.6123 66.0076 24.656V24.656ZM51.288 31.7537C51.288 31.8192 51.2443 31.8629 51.2006 31.8629H50.3271C50.2615 31.8629 50.2397 31.8192 50.2397 31.7537V24.7433C50.2397 24.6996 50.2834 24.6341 50.3271 24.6341H51.2006C51.2661 24.6341 51.288 24.6778 51.288 24.7433V31.7537Z" fill="white"/>
</svg>
