<svg width="120" height="60" viewBox="0 0 120 60" fill="none" xmlns="http://www.w3.org/2000/svg">
<rect width="119.242" height="59.6209" transform="translate(0.3479 0.00439453)" fill="white"/>
<path d="M25.5723 12.79V46.8224H60.3371L94.3657 12.7939H25.5723V12.79Z" fill="url(#paint0_linear_347_32524)"/>
<path d="M69.6069 43.3438V45.8819H69.99V44.7805H70.4209L71.1154 45.8819H71.5464L70.8041 44.7805C71.175 44.7345 71.4745 44.5188 71.4745 44.0621C71.4745 43.5618 71.1683 43.3438 70.5647 43.3438H69.6069ZM69.99 43.679H70.5167C70.7758 43.679 71.0675 43.7212 71.0675 44.0382C71.0675 44.4344 70.7721 44.4692 70.4449 44.4692H69.99V43.679ZM70.4689 42.4099C69.2537 42.4099 68.218 43.3463 68.218 44.6128C68.218 45.8886 69.2536 46.8397 70.4689 46.8397C71.6673 46.8397 72.6718 45.8887 72.6718 44.6128C72.6718 43.3463 71.6673 42.4099 70.4689 42.4099ZM70.4689 42.7691C71.4603 42.7691 72.2407 43.5701 72.2407 44.6128C72.2407 45.6734 71.4603 46.4566 70.4689 46.4566C69.4605 46.4566 68.6491 45.6734 68.6491 44.6128C68.6491 43.5701 69.4605 42.7691 70.4689 42.7691Z" fill="#1870C5"/>
<path fill-rule="evenodd" clip-rule="evenodd" d="M66.7935 29.0741H65.3024V23.6208H66.7935C68.7842 23.6208 70.3687 24.2767 70.3687 26.3126C70.3687 28.4152 68.7842 29.0741 66.7935 29.0741V29.0741ZM50.7447 32.9728C49.9555 32.9728 49.2153 32.8287 48.5755 32.5881L50.7232 25.8146H50.7692L52.8725 32.6065C52.2388 32.8333 51.5178 32.9728 50.747 32.9728H50.7447ZM66.3981 19.1905H59.6269V35.2914L53.7115 19.1905H47.8483L42.7942 32.6517C42.2601 29.2588 38.7454 28.0842 35.9824 27.2084C34.161 26.6222 32.2225 25.7609 32.2401 24.807C32.2554 24.0269 33.2814 23.3036 35.305 23.4117C36.6689 23.4806 37.8719 23.591 40.2603 24.7457L42.6126 20.6478C40.4334 19.5345 37.4137 18.8357 34.9434 18.8303H34.928C32.0462 18.8303 29.6448 19.7697 28.1553 21.3076C27.1201 22.3834 26.56 23.7442 26.5347 25.259C26.4964 27.334 27.2603 28.8067 28.8595 29.9844C30.2126 30.9759 31.939 31.6142 33.4638 32.0923C35.3449 32.6724 36.8804 33.1789 36.8628 34.2585C36.8475 34.6516 36.7011 35.0201 36.4168 35.3113C35.9487 35.7979 35.2292 35.9779 34.2338 36.0002C32.3152 36.0385 30.8923 35.7396 28.6258 34.4003L26.5347 38.5556C28.7943 39.8421 31.4693 40.5945 34.1994 40.5945H34.5526C36.9279 40.5485 38.8466 39.8704 40.3798 38.6383L40.6281 38.4215L39.9507 40.242H46.0998L47.1326 37.1012C48.213 37.4667 49.4436 37.6721 50.7462 37.6721C52.0174 37.6721 53.2165 37.4805 54.2778 37.1311L55.2708 40.242H65.3039V33.7367H67.493C72.7801 33.7367 75.9109 31.0457 75.9109 26.5295C75.9109 21.503 72.8705 19.1974 66.3973 19.1974" fill="white"/>
<defs>
<linearGradient id="paint0_linear_347_32524" x1="59.9448" y1="12.8084" x2="59.9448" y2="46.8231" gradientUnits="userSpaceOnUse">
<stop stop-color="#00B8F1"/>
<stop offset="0.2199" stop-color="#06A5E5"/>
<stop offset="0.7943" stop-color="#1870C5"/>
<stop offset="1" stop-color="#1D61BC"/>
</linearGradient>
</defs>
</svg>
