<svg width="120" height="61" viewBox="0 0 120 61" fill="none" xmlns="http://www.w3.org/2000/svg">
<rect width="119.242" height="59.6209" transform="translate(0.3479 0.720215)" fill="white"/>
<path d="M25.5722 13.5059V47.5382H60.3371L94.3656 13.5097H25.5722V13.5059Z" fill="url(#paint0_linear_25_399)"/>
<path d="M69.607 44.0596V46.5977H69.9901V45.4963H70.421L71.1154 46.5977H71.5464L70.8041 45.4963C71.175 45.4503 71.4746 45.2346 71.4746 44.778C71.4746 44.2776 71.1684 44.0596 70.5647 44.0596H69.607ZM69.9901 44.3948H70.5168C70.7758 44.3948 71.0675 44.437 71.0675 44.754C71.0675 45.1502 70.7722 45.1851 70.445 45.1851H69.9901V44.3948ZM70.469 43.1257C69.2537 43.1257 68.2181 44.0621 68.2181 45.3286C68.2181 46.6044 69.2536 47.5555 70.469 47.5555C71.6673 47.5555 72.6719 46.6046 72.6719 45.3286C72.6719 44.0621 71.6673 43.1257 70.469 43.1257ZM70.469 43.4849C71.4604 43.4849 72.2408 44.2859 72.2408 45.3286C72.2408 46.3893 71.4604 47.1724 70.469 47.1724C69.4605 47.1724 68.6492 46.3893 68.6492 45.3286C68.6492 44.2859 69.4605 43.4849 70.469 43.4849Z" fill="#1870C5"/>
<path fill-rule="evenodd" clip-rule="evenodd" d="M66.7934 29.79H65.3023V24.3367H66.7934C68.7841 24.3367 70.3687 24.9926 70.3687 27.0284C70.3687 29.131 68.7841 29.79 66.7934 29.79V29.79ZM50.7446 33.6886C49.9554 33.6886 49.2152 33.5445 48.5754 33.3039L50.7232 26.5304H50.7691L52.8724 33.3223C52.2388 33.5491 51.5177 33.6886 50.7469 33.6886H50.7446ZM66.398 19.9063H59.6268V36.0072L53.7115 19.9063H47.8482L42.7942 33.3675C42.2601 29.9746 38.7454 28.8 35.9823 27.9242C34.161 27.338 32.2224 26.4768 32.24 25.5228C32.2553 24.7428 33.2813 24.0194 35.305 24.1275C36.6689 24.1964 37.8719 24.3068 40.2602 25.4615L42.6126 21.3637C40.4334 20.2503 37.4136 19.5515 34.9433 19.5461H34.928C32.0462 19.5461 29.6448 20.4855 28.1552 22.0234C27.12 23.0992 26.5599 24.46 26.5346 25.9749C26.4963 28.0498 27.2603 29.5225 28.8594 30.7003C30.2126 31.6918 31.9389 32.33 33.4637 32.8082C35.3448 33.3882 36.8803 33.8947 36.8627 34.9743C36.8474 35.3674 36.701 35.736 36.4168 36.0271C35.9486 36.5137 35.2291 36.6938 34.2338 36.716C32.3151 36.7543 30.8922 36.4555 28.6257 35.1161L26.5346 39.2714C28.7943 40.5579 31.4692 41.3103 34.1993 41.3103H34.5525C36.9279 41.2644 38.8465 40.5862 40.3797 39.3541L40.628 39.1373L39.9507 40.9579H46.0997L47.1326 37.8171C48.213 38.1826 49.4435 38.3879 50.7461 38.3879C52.0173 38.3879 53.2165 38.1963 54.2777 37.8469L55.2708 40.9579H65.3039V34.4525H67.493C72.78 34.4525 75.9108 31.7615 75.9108 27.2453C75.9108 22.2188 72.8704 19.9132 66.3973 19.9132" fill="white"/>
<defs>
<linearGradient id="paint0_linear_25_399" x1="59.9448" y1="13.5242" x2="59.9448" y2="47.5389" gradientUnits="userSpaceOnUse">
<stop stop-color="#00B8F1"/>
<stop offset="0.2199" stop-color="#06A5E5"/>
<stop offset="0.7943" stop-color="#1870C5"/>
<stop offset="1" stop-color="#1D61BC"/>
</linearGradient>
</defs>
</svg>
