<svg width="160" height="80" viewBox="0 0 160 80" fill="none" xmlns="http://www.w3.org/2000/svg">
<rect width="160" height="80" fill="white"/>
<path d="M33.8463 17.156V62.8209H80.4941L126.154 17.1611H33.8463V17.156Z" fill="url(#paint0_linear_25_317)"/>
<path d="M92.9325 58.1531V61.5588H93.4466V60.0809H94.0248L94.9566 61.5588H95.5349L94.5389 60.0809C95.0366 60.0192 95.4385 59.7298 95.4385 59.117C95.4385 58.4456 95.0276 58.1531 94.2177 58.1531H92.9325ZM93.4466 58.6029H94.1533C94.5009 58.6029 94.8923 58.6595 94.8923 59.0848C94.8923 59.6165 94.496 59.6633 94.057 59.6633H93.4466V58.6029ZM94.0892 56.9C92.4585 56.9 91.0689 58.1565 91.0689 59.8559C91.0689 61.5678 92.4584 62.844 94.0892 62.844C95.6972 62.844 97.0451 61.568 97.0451 59.8559C97.0451 58.1565 95.6972 56.9 94.0892 56.9ZM94.0892 57.382C95.4195 57.382 96.4666 58.4567 96.4666 59.8559C96.4666 61.2791 95.4195 62.3299 94.0892 62.3299C92.736 62.3299 91.6473 61.2791 91.6473 59.8559C91.6473 58.4567 92.736 57.382 94.0892 57.382Z" fill="#1870C5"/>
<path fill-rule="evenodd" clip-rule="evenodd" d="M89.1573 39.0061H87.1565V31.6888H89.1573C91.8284 31.6888 93.9546 32.5689 93.9546 35.3006C93.9546 38.1219 91.8284 39.0061 89.1573 39.0061ZM67.6229 44.2373C66.5639 44.2373 65.5707 44.044 64.7122 43.7211L67.5941 34.6323H67.6558L70.478 43.7458C69.6277 44.0501 68.6602 44.2373 67.6259 44.2373H67.6229ZM88.6268 25.744H79.5411V47.3484L71.6038 25.744H63.7365L56.9548 43.8065C56.2382 39.2538 51.5221 37.6777 47.8147 36.5025C45.3708 35.716 42.7696 34.5604 42.7932 33.2803C42.8138 32.2337 44.1904 31.2631 46.9058 31.4081C48.7359 31.5006 50.3501 31.6487 53.5548 33.1981L56.7112 27.6996C53.7871 26.2057 49.7352 25.268 46.4205 25.2608H46.3999C42.5331 25.2608 39.3109 26.5213 37.3122 28.5848C35.9232 30.0283 35.1716 31.8543 35.1377 33.8869C35.0862 36.6711 36.1113 38.6472 38.257 40.2275C40.0727 41.5579 42.3891 42.4144 44.4351 43.0559C46.9592 43.8342 49.0196 44.5138 48.996 45.9625C48.9754 46.4899 48.7791 46.9845 48.3976 47.3752C47.7694 48.028 46.804 48.2696 45.4684 48.2995C42.894 48.3509 40.9847 47.9499 37.9435 46.1527L35.1377 51.7283C38.1696 53.4546 41.7589 54.4642 45.4222 54.4642H45.8961C49.0834 54.4025 51.6579 53.4926 53.7152 51.8394L54.0483 51.5484L53.1394 53.9913H61.3903L62.7762 49.7769C64.2259 50.2673 65.8771 50.5429 67.6249 50.5429C69.3306 50.5429 70.9396 50.2858 72.3636 49.817L73.6961 53.9913H87.1586V45.2623H90.096C97.1902 45.2623 101.391 41.6515 101.391 35.5916C101.391 28.847 97.3115 25.7533 88.6258 25.7533" fill="white"/>
<defs>
<linearGradient id="paint0_linear_25_317" x1="79.9677" y1="17.1806" x2="79.9677" y2="62.8219" gradientUnits="userSpaceOnUse">
<stop stop-color="#00B8F1"/>
<stop offset="0.2199" stop-color="#06A5E5"/>
<stop offset="0.7943" stop-color="#1870C5"/>
<stop offset="1" stop-color="#1D61BC"/>
</linearGradient>
</defs>
</svg>
