<svg width="180" height="60" viewBox="0 0 180 60" fill="none" xmlns="http://www.w3.org/2000/svg">
<rect width="178.863" height="59.6209" transform="translate(0.758057 0.00439453)" fill="white"/>
<g clip-path="url(#clip0_347_32525)">
<path d="M43.2399 24.2859H26.2021C25.8771 24.2859 25.6136 24.5494 25.6136 24.8744V26.858C25.6136 27.183 25.8771 27.4465 26.2021 27.4465H43.2399C43.5649 27.4465 43.8284 27.183 43.8284 26.858V24.8744C43.8284 24.5494 43.5649 24.2859 43.2399 24.2859Z" fill="#52BD94"/>
<path d="M31.9698 32.1833H14.932C14.607 32.1833 14.3435 32.4468 14.3435 32.7719V34.7555C14.3435 35.0805 14.607 35.344 14.932 35.344H31.9698C32.2948 35.344 32.5583 35.0805 32.5583 34.7555V32.7719C32.5583 32.4468 32.2948 32.1833 31.9698 32.1833Z" fill="#52BD94"/>
<path fill-rule="evenodd" clip-rule="evenodd" d="M16.5288 26.4485C16.6783 26.4871 16.837 26.4656 16.9708 26.3887C17.1046 26.3118 17.203 26.1855 17.2449 26.037C18.1884 23.0839 20.201 20.5898 22.8882 19.0439C25.5754 17.498 28.7431 17.0118 31.7702 17.6806C31.9167 17.7108 32.0692 17.6837 32.1963 17.6048C32.3234 17.526 32.4154 17.4014 32.4534 17.2567L32.9678 15.3369C32.9879 15.2598 32.9923 15.1795 32.9805 15.1007C32.9688 15.0219 32.9412 14.9463 32.8995 14.8785C32.8578 14.8106 32.8028 14.7519 32.7378 14.7059C32.6728 14.6598 32.5991 14.6274 32.5213 14.6105C28.696 13.7495 24.6866 14.3616 21.2925 16.3249C17.8983 18.2881 15.3687 21.4583 14.2078 25.2036C14.1859 25.2787 14.1792 25.3574 14.1882 25.4352C14.1971 25.5129 14.2214 25.588 14.2598 25.6562C14.2981 25.7245 14.3496 25.7843 14.4113 25.8324C14.4731 25.8805 14.5438 25.9157 14.6193 25.9361L16.5288 26.4485Z" fill="#52BD94"/>
<path fill-rule="evenodd" clip-rule="evenodd" d="M41.6471 33.1732C41.4965 33.1327 41.336 33.1532 41.2005 33.2302C41.0649 33.3072 40.9651 33.4346 40.9228 33.5847C39.9814 36.5397 37.9696 39.0361 35.2822 40.5841C32.5948 42.132 29.4259 42.6197 26.3975 41.9513C26.251 41.9206 26.0983 41.9475 25.971 42.0265C25.8438 42.1054 25.7519 42.2303 25.7143 42.3752L25.2102 44.2847C25.1898 44.362 25.1852 44.4425 25.1968 44.5215C25.2084 44.6006 25.2359 44.6764 25.2776 44.7445C25.3194 44.8126 25.3745 44.8715 25.4396 44.9177C25.5048 44.9639 25.5787 44.9964 25.6567 45.0132C29.4822 45.8721 33.4909 45.2589 36.8846 43.2955C40.2783 41.3321 42.8081 38.1626 43.9703 34.4181C43.9924 34.3431 43.9992 34.2644 43.9904 34.1868C43.9816 34.1091 43.9573 34.034 43.9189 33.9658C43.8805 33.8977 43.8289 33.838 43.767 33.7902C43.7052 33.7424 43.6343 33.7075 43.5587 33.6876L41.6471 33.1732Z" fill="#52BD94"/>
<path d="M38.0915 20.8165C39.0483 20.8165 39.8241 20.0408 39.8241 19.0839C39.8241 18.127 39.0483 17.3513 38.0915 17.3513C37.1346 17.3513 36.3589 18.127 36.3589 19.0839C36.3589 20.0408 37.1346 20.8165 38.0915 20.8165Z" fill="#52BD94"/>
<path d="M20.0845 42.2762C21.0414 42.2762 21.8171 41.5005 21.8171 40.5436C21.8171 39.5867 21.0414 38.811 20.0845 38.811C19.1276 38.811 18.3519 39.5867 18.3519 40.5436C18.3519 41.5005 19.1276 42.2762 20.0845 42.2762Z" fill="#52BD94"/>
<path fill-rule="evenodd" clip-rule="evenodd" d="M86.2602 26.6727C86.892 25.9789 87.6639 25.4272 88.5248 25.054C89.3857 24.6809 90.316 24.4948 91.2543 24.508C93.0774 24.508 94.4972 25.0718 95.3944 26.1542V25.257C95.4003 25.133 95.4519 25.0156 95.5393 24.9274C95.6267 24.8393 95.7437 24.7866 95.8676 24.7796H98.271C98.3948 24.7871 98.5115 24.8399 98.5988 24.9279C98.6861 25.016 98.7379 25.1332 98.7443 25.257V38.6012C98.8188 40.4842 98.237 42.3346 97.0981 43.836C95.8018 45.4122 93.8346 46.2106 91.2501 46.2106C87.6574 46.2106 84.8219 43.9368 84.3548 40.6898C84.3435 40.5726 84.3735 40.4552 84.4396 40.3579C84.5058 40.2605 84.6039 40.1894 84.7169 40.1568L87.0648 39.6054C87.0771 39.6044 87.0895 39.6044 87.1018 39.6054C87.1631 39.596 87.2255 39.5989 87.2857 39.6139C87.3458 39.6288 87.4023 39.6555 87.4521 39.6925C87.5018 39.7294 87.5437 39.7758 87.5755 39.829C87.6072 39.8822 87.628 39.9412 87.6368 40.0025C87.7416 40.881 88.1705 41.6888 88.8396 42.2677C89.5087 42.8466 90.3698 43.1549 91.2543 43.1323C94.061 43.1323 95.3697 41.6919 95.3697 38.6814V37.5127C94.8546 38.0898 94.219 38.5467 93.5079 38.8511C92.7967 39.1555 92.0274 39.2999 91.2543 39.2741C87.2603 39.2741 84.363 36.1731 84.363 31.9054C84.3275 29.9868 85.0033 28.1228 86.2602 26.6727ZM132.865 24.3249H132.991C137.285 24.3825 139.946 27.3723 139.946 32.1565C139.945 32.4101 139.932 32.6636 139.904 32.9158C139.891 33.0287 139.837 33.1329 139.752 33.2086C139.667 33.2844 139.557 33.3266 139.444 33.3273H129.235C129.266 34.3578 129.701 35.3349 130.446 36.0475C131.191 36.7601 132.186 37.1512 133.217 37.1361C134.024 37.1865 134.825 36.9619 135.488 36.4989C136.151 36.0359 136.638 35.3619 136.869 34.5866C136.912 34.4732 136.997 34.3807 137.106 34.3282C137.215 34.2757 137.341 34.2673 137.456 34.3047L139.487 35.0249C139.545 35.0441 139.599 35.0754 139.645 35.1169C139.691 35.1584 139.727 35.2091 139.752 35.2657C139.78 35.3203 139.797 35.38 139.801 35.4411C139.805 35.5023 139.797 35.5637 139.777 35.6216C139.316 36.9864 138.429 38.1671 137.247 38.9896C136.064 39.812 134.649 40.2328 133.209 40.1897C132.249 40.1991 131.297 40.018 130.408 39.6571C129.519 39.2961 128.711 38.7624 128.029 38.0868C127.286 37.3048 126.706 36.3821 126.324 35.3729C125.942 34.3637 125.766 33.2883 125.805 32.21C125.805 27.2715 129.394 24.3146 132.861 24.3146L132.865 24.3249ZM75.1095 24.3249C79.4801 24.3249 82.1963 27.3271 82.1963 32.1585C82.1959 32.4122 82.1822 32.6656 82.1551 32.9178C82.1429 33.0313 82.089 33.1362 82.0038 33.2123C81.9187 33.2883 81.8083 33.33 81.6942 33.3294H71.4859C71.5145 34.3657 71.9518 35.3486 72.7023 36.0637C73.4529 36.7788 74.4558 37.168 75.4923 37.1464C76.2998 37.1976 77.1007 36.9733 77.7642 36.5102C78.4276 36.0471 78.9143 35.3725 79.1447 34.5969C79.1862 34.4826 79.2708 34.389 79.3804 34.3363C79.49 34.2836 79.6159 34.276 79.7311 34.315L81.7703 35.0331C81.8292 35.0521 81.8833 35.0833 81.929 35.1249C81.9748 35.1664 82.0112 35.2172 82.0358 35.2739C82.0591 35.3303 82.0712 35.3908 82.0712 35.4519C82.0712 35.513 82.0591 35.5734 82.0358 35.6299C81.5753 36.994 80.6889 38.1742 79.5072 38.9965C78.3254 39.8189 76.9108 40.2401 75.4717 40.198C74.5106 40.2083 73.5569 40.0278 72.6661 39.6668C71.7753 39.3058 70.965 38.7715 70.2822 38.095C69.5399 37.3121 68.961 36.3892 68.5791 35.3803C68.1972 34.3713 68.02 33.2964 68.0578 32.2182C68.0578 27.2797 71.6464 24.3228 75.1157 24.3228L75.1095 24.3249ZM59.648 24.3249C61.609 24.3249 63.1955 24.8002 64.3704 25.7406C65.1638 26.3734 65.7523 27.2268 66.0618 28.1933C66.0716 28.2344 66.0731 28.277 66.0662 28.3187C66.0593 28.3604 66.0443 28.4003 66.0219 28.4361C65.9995 28.4718 65.9702 28.5028 65.9357 28.5272C65.9013 28.5516 65.8623 28.5689 65.8211 28.5781L63.3868 29.3827C63.2788 29.4238 63.1594 29.4238 63.0514 29.3827C63.0055 29.3615 62.9646 29.3307 62.9316 29.2923C62.8986 29.254 62.8742 29.209 62.8601 29.1605C62.6543 28.3724 61.9464 27.0493 59.6439 27.0493C58.0368 27.0493 57.0738 27.9711 57.0738 28.8642C57.0738 29.4568 57.3804 30.2202 58.829 30.4959L61.504 30.998C64.4939 31.6009 66.2059 33.2368 66.2059 35.5146V35.4756C66.2059 37.739 64.0288 40.1568 59.9834 40.1568C55.2918 40.1568 53.4481 37.5024 53.1086 35.9365C53.0974 35.8547 53.1165 35.7716 53.1624 35.703C53.2083 35.6343 53.2777 35.5849 53.3576 35.564L55.868 34.7821C55.9129 34.7739 55.9589 34.7739 56.0038 34.7821C56.0755 34.7808 56.1463 34.7978 56.2096 34.8315C56.2551 34.8534 56.2953 34.885 56.3273 34.9241C56.3593 34.9632 56.3823 35.0089 56.3948 35.0578C56.7116 36.5641 58.0718 37.4612 60.0287 37.4612C61.8497 37.4612 62.679 36.5085 62.679 35.6443C62.679 34.78 61.9403 34.1442 60.6707 33.8891L57.8557 33.3417C55.2301 32.8458 53.5942 31.2141 53.5942 29.0905C53.5942 26.506 56.3701 24.3249 59.648 24.3249ZM163.058 20.1375C163.185 20.1453 163.305 20.2017 163.393 20.295C163.481 20.3883 163.529 20.5115 163.529 20.6395V24.7549H166.169C166.296 24.7643 166.414 24.8212 166.501 24.9143C166.588 25.0074 166.636 25.1298 166.636 25.257V27.4505C166.637 27.5753 166.588 27.6953 166.5 27.7843C166.413 27.8734 166.294 27.9242 166.169 27.9258H163.529V35.2492C163.529 36.4632 164.01 36.9653 165.249 36.9653C165.532 36.9606 165.813 36.9372 166.093 36.8954C166.16 36.8838 166.23 36.8872 166.296 36.9054C166.362 36.9235 166.423 36.9559 166.476 37.0003C166.525 37.0466 166.565 37.1026 166.593 37.1649C166.621 37.2271 166.635 37.2944 166.636 37.3625V39.4202C166.637 39.5226 166.604 39.6224 166.543 39.7048C166.483 39.7872 166.397 39.8476 166.299 39.877C165.696 40.0459 165.072 40.127 164.447 40.1177C161.8 40.1177 160.16 38.416 160.16 35.671V27.9567H157.876C157.753 27.9492 157.636 27.8964 157.549 27.8083C157.462 27.7201 157.411 27.603 157.405 27.4793V25.2817C157.404 25.1536 157.453 25.0301 157.541 24.9366C157.628 24.8432 157.749 24.787 157.876 24.7796H158.469C159.187 24.7796 160.397 24.5286 160.397 22.8166V20.6395C160.396 20.5114 160.445 20.3879 160.533 20.2945C160.62 20.201 160.74 20.1448 160.868 20.1375H163.058ZM113.508 26.7776C114.024 25.9889 114.737 25.348 115.576 24.9179C116.414 24.4879 117.351 24.2835 118.292 24.3249C120.902 24.3249 123.538 26.1624 123.538 30.177V39.4695C123.531 39.5934 123.479 39.7106 123.392 39.7986C123.305 39.8867 123.188 39.9395 123.064 39.9469H120.659C120.535 39.939 120.419 39.886 120.332 39.798C120.245 39.71 120.194 39.5931 120.188 39.4695V30.4753C120.188 29.3374 119.832 27.4197 117.422 27.4197C115.661 27.4197 114.41 28.8045 114.41 30.8128V39.4695C114.404 39.5932 114.352 39.7104 114.265 39.7985C114.178 39.8866 114.062 39.9395 113.938 39.9469H111.502C111.378 39.9395 111.262 39.8867 111.174 39.7986C111.087 39.7106 111.035 39.5934 111.029 39.4695V30.4753C111.033 29.3374 110.679 27.4114 108.267 27.4114C106.436 27.4114 105.201 28.786 105.201 30.8334V39.4695C105.195 39.5931 105.144 39.71 105.057 39.798C104.97 39.886 104.854 39.939 104.73 39.9469H102.327C102.204 39.9385 102.088 39.8852 102.002 39.7972C101.916 39.7092 101.865 39.5926 101.86 39.4695V25.2261C101.866 25.1033 101.917 24.9869 102.003 24.899C102.089 24.8111 102.204 24.7576 102.327 24.7488H104.64C104.763 24.7567 104.879 24.8097 104.966 24.8977C105.053 24.9857 105.105 25.1026 105.111 25.2261V26.0842C105.626 25.5206 106.255 25.0724 106.955 24.7692C107.656 24.466 108.413 24.3146 109.177 24.3249C110.054 24.2992 110.921 24.5142 111.685 24.9466C112.449 25.379 113.079 26.0123 113.508 26.7776ZM150.158 24.3249C150.927 24.292 151.694 24.4344 152.4 24.7413C153.106 25.0482 153.734 25.5116 154.234 26.0966C155.169 27.3264 155.644 28.8439 155.578 30.3869V39.4695C155.573 39.5924 155.522 39.7089 155.437 39.797C155.351 39.8851 155.236 39.9384 155.113 39.9469H152.679C152.555 39.9391 152.439 39.8861 152.351 39.7981C152.264 39.7102 152.212 39.5932 152.205 39.4695V30.8725C152.205 28.6234 151.148 27.4793 149.139 27.4793C148.702 27.4652 148.268 27.5542 147.872 27.739C147.475 27.9238 147.128 28.1993 146.857 28.5432C146.313 29.3263 146.038 30.2651 146.073 31.2182V39.4695C146.067 39.5931 146.016 39.71 145.929 39.798C145.842 39.886 145.726 39.939 145.602 39.9469H143.172C143.049 39.939 142.932 39.886 142.846 39.798C142.759 39.71 142.707 39.5931 142.701 39.4695V25.2159C142.706 25.0917 142.757 24.9738 142.844 24.8851C142.931 24.7965 143.048 24.7435 143.172 24.7364H145.547C145.669 24.7444 145.785 24.7972 145.871 24.8849C145.957 24.9726 146.008 25.0889 146.014 25.2117V26.2159C146.517 25.6085 147.151 25.1228 147.869 24.7954C148.587 24.4679 149.369 24.307 150.158 24.3249ZM91.672 27.5102C89.3015 27.5102 87.7973 29.1954 87.7973 31.9054C87.7973 34.6154 89.283 36.2986 91.672 36.2986C93.9498 36.2986 95.4849 34.5311 95.4849 31.9054C95.4849 29.2798 93.9498 27.5102 91.672 27.5102ZM75.1342 27.3744C74.2596 27.3593 73.4108 27.6711 72.7539 28.2488C72.097 28.8265 71.6794 29.6286 71.5826 30.498H78.7229C78.5521 28.5699 77.1817 27.3744 75.1342 27.3744ZM132.904 27.3744C132.03 27.3608 131.183 27.6732 130.527 28.2508C129.871 28.8283 129.454 29.6295 129.357 30.498H136.499C136.322 28.5699 134.96 27.3744 132.902 27.3744H132.904Z" fill="#52BD94"/>
<path d="M57.1355 14.6928V19.479H55.7795V14.6928H53.9049V13.5322H59.0306V14.6928H57.1355Z" fill="#52BD94"/>
<path d="M67.4941 19.4996H66.0845L64.7923 15.1167L63.4774 19.4996H62.0967L60.3477 13.5322H61.788L62.8971 17.8308L64.1482 13.5322H65.5886L66.8232 17.8308L67.8974 13.5322H69.2225L67.4941 19.4996Z" fill="#52BD94"/>
<path d="M71.0887 19.479V13.5322H72.4242V19.479H71.0887Z" fill="#52BD94"/>
<path d="M74.8276 19.479V13.5322H76.1837V18.3081H78.5048V19.479H74.8276Z" fill="#52BD94"/>
<path d="M80.5254 19.479V13.5322H81.8711V19.479H80.5254Z" fill="#52BD94"/>
<path d="M86.9063 19.5923C85.2602 19.5923 83.9432 18.4111 83.9432 16.516C83.9432 14.6209 85.2787 13.4294 86.9166 13.4294C88.5545 13.4294 89.8776 14.6106 89.8776 16.516C89.8776 18.4214 88.5525 19.5923 86.9063 19.5923ZM86.9063 14.518C85.8775 14.518 85.2787 15.3657 85.2787 16.5057C85.2787 17.6457 85.896 18.5037 86.9063 18.5037C87.9167 18.5037 88.5113 17.6354 88.5113 16.516C88.5113 15.3966 87.9105 14.518 86.9166 14.518H86.9063Z" fill="#52BD94"/>
</g>
<defs>
<clipPath id="clip0_347_32525">
<rect width="152.463" height="32.7915" fill="white" transform="translate(14.1727 13.4192)"/>
</clipPath>
</defs>
</svg>
