<svg width="240" height="80" viewBox="0 0 240 80" fill="none" xmlns="http://www.w3.org/2000/svg">
<rect width="240" height="80" fill="white"/>
<g clip-path="url(#clip0_25_321)">
<path d="M57.0025 32.5811H34.1411C33.7049 32.5811 33.3514 32.9346 33.3514 33.3707V36.0324C33.3514 36.4685 33.7049 36.822 34.1411 36.822H57.0025C57.4386 36.822 57.7922 36.4685 57.7922 36.0324V33.3707C57.7922 32.9346 57.4386 32.5811 57.0025 32.5811Z" fill="#52BD94"/>
<path d="M41.8803 43.178H19.0188C18.5827 43.178 18.2292 43.5315 18.2292 43.9676V46.6293C18.2292 47.0654 18.5827 47.4189 19.0188 47.4189H41.8803C42.3164 47.4189 42.6699 47.0654 42.6699 46.6293V43.9676C42.6699 43.5315 42.3164 43.178 41.8803 43.178Z" fill="#52BD94"/>
<path fill-rule="evenodd" clip-rule="evenodd" d="M21.1614 35.4829C21.362 35.5347 21.5748 35.5059 21.7544 35.4027C21.934 35.2995 22.066 35.1301 22.1222 34.9307C23.3881 30.9683 26.0888 27.6217 29.6944 25.5474C33.3001 23.473 37.5507 22.8206 41.6124 23.7181C41.809 23.7586 42.0136 23.7222 42.1841 23.6164C42.3547 23.5106 42.4781 23.3434 42.5291 23.1493L43.2194 20.5733C43.2464 20.4699 43.2522 20.3621 43.2364 20.2564C43.2207 20.1506 43.1837 20.0492 43.1277 19.9582C43.0717 19.8671 42.9979 19.7883 42.9107 19.7265C42.8235 19.6648 42.7247 19.6212 42.6202 19.5986C37.4874 18.4433 32.1076 19.2646 27.5533 21.8989C22.999 24.5333 19.6047 28.7871 18.0469 33.8125C18.0176 33.9133 18.0087 34.0189 18.0207 34.1232C18.0326 34.2275 18.0653 34.3284 18.1167 34.4199C18.1681 34.5114 18.2373 34.5918 18.3201 34.6562C18.4029 34.7207 18.4978 34.768 18.5991 34.7954L21.1614 35.4829Z" fill="#52BD94"/>
<path fill-rule="evenodd" clip-rule="evenodd" d="M54.8655 44.506C54.6634 44.4517 54.448 44.4792 54.2661 44.5825C54.0842 44.6859 53.9503 44.8568 53.8936 45.0582C52.6304 49.0233 49.9309 52.373 46.325 54.4501C42.719 56.5271 38.467 57.1814 34.4034 56.2846C34.2067 56.2434 34.0018 56.2795 33.8311 56.3855C33.6604 56.4914 33.5371 56.659 33.4867 56.8534L32.8102 59.4157C32.7828 59.5193 32.7767 59.6273 32.7922 59.7334C32.8078 59.8394 32.8447 59.9412 32.9007 60.0326C32.9567 60.1239 33.0307 60.203 33.1181 60.2649C33.2055 60.3269 33.3046 60.3705 33.4094 60.3931C38.5425 61.5456 43.9213 60.7228 48.475 58.0883C53.0288 55.4538 56.4233 51.2009 57.9827 46.1765C58.0124 46.0758 58.0216 45.9703 58.0097 45.8661C57.9979 45.7618 57.9653 45.661 57.9138 45.5696C57.8623 45.4782 57.793 45.3981 57.71 45.334C57.6269 45.2698 57.5319 45.223 57.4305 45.1963L54.8655 44.506Z" fill="#52BD94"/>
<path d="M50.0944 27.926C51.3783 27.926 52.4192 26.8851 52.4192 25.6012C52.4192 24.3172 51.3783 23.2764 50.0944 23.2764C48.8104 23.2764 47.7696 24.3172 47.7696 25.6012C47.7696 26.8851 48.8104 27.926 50.0944 27.926Z" fill="#52BD94"/>
<path d="M25.9325 56.7209C27.2164 56.7209 28.2573 55.68 28.2573 54.3961C28.2573 53.1121 27.2164 52.0713 25.9325 52.0713C24.6485 52.0713 23.6077 53.1121 23.6077 54.3961C23.6077 55.68 24.6485 56.7209 25.9325 56.7209Z" fill="#52BD94"/>
<path fill-rule="evenodd" clip-rule="evenodd" d="M114.728 35.7839C115.575 34.853 116.611 34.1127 117.766 33.612C118.921 33.1112 120.17 32.8615 121.429 32.8793C123.875 32.8793 125.78 33.6358 126.984 35.0881V33.8843C126.992 33.7179 127.061 33.5603 127.178 33.442C127.296 33.3237 127.453 33.2531 127.619 33.2437H130.844C131.01 33.2537 131.167 33.3245 131.284 33.4427C131.401 33.5609 131.47 33.7181 131.479 33.8843V51.7897C131.579 54.3163 130.798 56.7991 129.27 58.8138C127.531 60.9287 124.891 62 121.423 62C116.602 62 112.798 58.949 112.171 54.5921C112.156 54.4349 112.196 54.2774 112.285 54.1468C112.373 54.0162 112.505 53.9207 112.657 53.877L115.807 53.137C115.824 53.1357 115.84 53.1357 115.857 53.137C115.939 53.1245 116.023 53.1284 116.104 53.1485C116.184 53.1685 116.26 53.2044 116.327 53.2539C116.394 53.3035 116.45 53.3657 116.492 53.4371C116.535 53.5085 116.563 53.5877 116.575 53.6699C116.715 54.8487 117.291 55.9326 118.189 56.7094C119.087 57.4862 120.242 57.8998 121.429 57.8695C125.195 57.8695 126.951 55.9367 126.951 51.8973V50.3291C126.26 51.1035 125.407 51.7166 124.453 52.125C123.498 52.5334 122.466 52.7271 121.429 52.6925C116.07 52.6925 112.182 48.5316 112.182 42.8052C112.134 40.2307 113.041 37.7297 114.728 35.7839ZM177.263 32.6335H177.431C183.193 32.7108 186.763 36.7226 186.763 43.1421C186.763 43.4824 186.744 43.8225 186.708 44.1609C186.69 44.3125 186.617 44.4522 186.503 44.5539C186.389 44.6556 186.242 44.7122 186.09 44.7131H172.392C172.433 46.0958 173.017 47.4069 174.016 48.3631C175.016 49.3193 176.352 49.844 177.735 49.8238C178.818 49.8915 179.892 49.5901 180.782 48.9688C181.672 48.3476 182.326 47.4431 182.636 46.4029C182.693 46.2507 182.807 46.1265 182.953 46.0561C183.1 45.9857 183.268 45.9744 183.422 46.0246L186.148 46.991C186.226 47.0167 186.299 47.0587 186.36 47.1144C186.422 47.1701 186.471 47.2381 186.504 47.314C186.541 47.3873 186.563 47.4674 186.569 47.5495C186.575 47.6315 186.564 47.7139 186.537 47.7917C185.919 49.623 184.729 51.2072 183.142 52.3108C181.555 53.4144 179.656 53.9789 177.724 53.9212C176.436 53.9337 175.159 53.6908 173.966 53.2064C172.773 52.7221 171.688 52.0059 170.774 51.0994C169.776 50.0501 168.998 48.812 168.486 47.4579C167.973 46.1037 167.737 44.6608 167.789 43.2139C167.789 36.5873 172.605 32.6197 177.257 32.6197L177.263 32.6335ZM99.7656 32.6335C105.63 32.6335 109.275 36.6619 109.275 43.1448C109.274 43.4852 109.256 43.8253 109.219 44.1637C109.203 44.3159 109.131 44.4567 109.016 44.5587C108.902 44.6608 108.754 44.7167 108.601 44.7159H94.9034C94.9417 46.1064 95.5284 47.4253 96.5355 48.3848C97.5427 49.3443 98.8884 49.8666 100.279 49.8376C101.363 49.9063 102.437 49.6053 103.328 48.9839C104.218 48.3625 104.871 47.4574 105.18 46.4167C105.236 46.2632 105.349 46.1377 105.496 46.067C105.643 45.9963 105.812 45.986 105.967 46.0384L108.703 47.002C108.782 47.0274 108.855 47.0694 108.916 47.1251C108.977 47.1808 109.026 47.249 109.059 47.325C109.091 47.4008 109.107 47.4819 109.107 47.5639C109.107 47.6458 109.091 47.727 109.059 47.8027C108.441 49.6331 107.252 51.2166 105.666 52.3201C104.081 53.4236 102.183 53.9888 100.252 53.9322C98.9618 53.9461 97.6822 53.7039 96.4869 53.2195C95.2916 52.7351 94.2043 52.0182 93.2881 51.1104C92.2922 50.0599 91.5154 48.8216 91.003 47.4678C90.4905 46.1139 90.2527 44.6716 90.3035 43.2249C90.3035 36.5984 95.1187 32.6308 99.7738 32.6308L99.7656 32.6335ZM79.0191 32.6335C81.6503 32.6335 83.7791 33.2713 85.3557 34.5331C86.4203 35.3823 87.2099 36.5274 87.6252 37.8243C87.6383 37.8794 87.6403 37.9366 87.6311 37.9925C87.6219 38.0484 87.6017 38.1019 87.5716 38.15C87.5416 38.198 87.5023 38.2396 87.456 38.2723C87.4098 38.305 87.3575 38.3282 87.3022 38.3406L84.0359 39.4202C83.891 39.4754 83.7308 39.4754 83.5858 39.4202C83.5242 39.3917 83.4694 39.3504 83.4251 39.2989C83.3808 39.2475 83.3481 39.1872 83.3291 39.122C83.053 38.0645 82.1032 36.2892 79.0136 36.2892C76.8572 36.2892 75.565 37.5261 75.565 38.7244C75.565 39.5196 75.9764 40.5439 77.9202 40.9139L81.5095 41.5876C85.5213 42.3966 87.8185 44.5916 87.8185 47.6481V47.5956C87.8185 50.6328 84.8973 53.877 79.4691 53.877C73.1739 53.877 70.7 50.3153 70.2445 48.2141C70.2294 48.1044 70.2551 47.9929 70.3166 47.9008C70.3782 47.8087 70.4714 47.7424 70.5786 47.7144L73.947 46.6652C74.0073 46.6541 74.069 46.6541 74.1293 46.6652C74.2254 46.6634 74.3205 46.6862 74.4054 46.7314C74.4665 46.7608 74.5204 46.8032 74.5633 46.8557C74.6062 46.9082 74.6372 46.9694 74.6539 47.0351C75.0791 49.0562 76.9041 50.26 79.5299 50.26C81.9734 50.26 83.0861 48.9817 83.0861 47.822C83.0861 46.6624 82.0949 45.8092 80.3913 45.4669L76.6142 44.7324C73.0911 44.067 70.8961 41.8775 70.8961 39.0281C70.8961 35.5602 74.6207 32.6335 79.0191 32.6335ZM217.775 27.0148C217.947 27.0254 218.108 27.101 218.225 27.2262C218.343 27.3514 218.408 27.5168 218.408 27.6885V33.2106H221.95C222.12 33.2231 222.279 33.2995 222.396 33.4245C222.512 33.5494 222.577 33.7136 222.577 33.8843V36.8276C222.578 36.995 222.512 37.156 222.395 37.2755C222.277 37.3949 222.118 37.4632 221.95 37.4654H218.408V47.2919C218.408 48.9209 219.054 49.5946 220.716 49.5946C221.095 49.5883 221.473 49.5569 221.848 49.5008C221.939 49.4853 222.032 49.4899 222.12 49.5142C222.209 49.5385 222.291 49.582 222.361 49.6416C222.428 49.7037 222.482 49.7789 222.519 49.8624C222.556 49.9459 222.576 50.0361 222.577 50.1275V52.8886C222.578 53.026 222.534 53.16 222.453 53.2705C222.371 53.381 222.256 53.4621 222.124 53.5015C221.316 53.7282 220.479 53.837 219.639 53.8245C216.088 53.8245 213.888 51.5412 213.888 47.8579V37.5068H210.823C210.657 37.4967 210.501 37.4258 210.384 37.3076C210.268 37.1893 210.199 37.0322 210.191 36.8662V33.9174C210.19 33.7455 210.255 33.5798 210.372 33.4544C210.49 33.329 210.651 33.2536 210.823 33.2437H211.618C212.582 33.2437 214.205 32.9069 214.205 30.6097V27.6885C214.204 27.5166 214.269 27.3508 214.387 27.2255C214.505 27.1001 214.666 27.0247 214.838 27.0148H217.775ZM151.289 35.9247C151.982 34.8663 152.938 34.0063 154.063 33.4293C155.189 32.8523 156.445 32.578 157.709 32.6335C161.21 32.6335 164.747 35.0991 164.747 40.4859V52.9548C164.738 53.121 164.669 53.2782 164.552 53.3964C164.434 53.5146 164.278 53.5854 164.112 53.5954H160.884C160.718 53.5848 160.562 53.5136 160.446 53.3955C160.329 53.2774 160.26 53.1206 160.252 52.9548V40.8863C160.252 39.3594 159.774 36.7861 156.541 36.7861C154.177 36.7861 152.499 38.6443 152.499 41.3391V52.9548C152.491 53.1208 152.422 53.2779 152.305 53.3962C152.189 53.5144 152.032 53.5854 151.866 53.5954H148.597C148.431 53.5854 148.275 53.5146 148.158 53.3964C148.04 53.2782 147.971 53.121 147.962 52.9548V40.8863C147.968 39.3594 147.493 36.7751 144.257 36.7751C141.8 36.7751 140.143 38.6195 140.143 41.3667V52.9548C140.135 53.1206 140.066 53.2774 139.949 53.3955C139.832 53.5136 139.676 53.5848 139.511 53.5954H136.286C136.121 53.584 135.966 53.5125 135.851 53.3944C135.735 53.2763 135.667 53.1199 135.659 52.9548V33.8429C135.667 33.678 135.736 33.5219 135.851 33.4039C135.967 33.2859 136.121 33.2142 136.286 33.2023H139.389C139.555 33.2129 139.711 33.2841 139.827 33.4022C139.944 33.5203 140.013 33.6771 140.022 33.8429V34.9942C140.713 34.238 141.556 33.6366 142.497 33.2298C143.437 32.8229 144.453 32.6197 145.477 32.6335C146.654 32.5991 147.818 32.8876 148.843 33.4678C149.867 34.048 150.714 34.8977 151.289 35.9247ZM200.466 32.6335C201.499 32.5894 202.527 32.7805 203.475 33.1923C204.423 33.6041 205.264 34.226 205.936 35.0108C207.19 36.6609 207.827 38.6972 207.739 40.7676V52.9548C207.732 53.1196 207.664 53.2761 207.549 53.3942C207.434 53.5124 207.28 53.584 207.115 53.5954H203.849C203.683 53.5848 203.526 53.5138 203.409 53.3957C203.292 53.2777 203.223 53.1208 203.214 52.9548V41.4192C203.214 38.4014 201.794 36.8662 199.1 36.8662C198.513 36.8473 197.93 36.9667 197.398 37.2146C196.866 37.4626 196.4 37.8322 196.038 38.2937C195.307 39.3445 194.938 40.6042 194.986 41.883V52.9548C194.977 53.1206 194.908 53.2774 194.792 53.3955C194.675 53.5136 194.519 53.5848 194.353 53.5954H191.093C190.927 53.5848 190.771 53.5136 190.654 53.3955C190.538 53.2774 190.469 53.1206 190.46 52.9548V33.8291C190.467 33.6624 190.535 33.5042 190.652 33.3853C190.769 33.2664 190.926 33.1952 191.093 33.1857H194.279C194.443 33.1964 194.598 33.2674 194.714 33.385C194.83 33.5027 194.898 33.6588 194.906 33.8235V35.1709C195.581 34.3559 196.432 33.7043 197.395 33.2648C198.358 32.8254 199.408 32.6096 200.466 32.6335ZM121.989 36.9076C118.808 36.9076 116.79 39.1689 116.79 42.8052C116.79 46.4415 118.784 48.7001 121.989 48.7001C125.046 48.7001 127.105 46.3283 127.105 42.8052C127.105 39.2821 125.046 36.9076 121.989 36.9076ZM99.7987 36.7254C98.6251 36.7051 97.4861 37.1235 96.6047 37.8987C95.7233 38.6739 95.1629 39.7501 95.0331 40.9167H104.614C104.385 38.3296 102.546 36.7254 99.7987 36.7254ZM177.315 36.7254C176.143 36.7072 175.005 37.1264 174.125 37.9013C173.245 38.6763 172.685 39.7513 172.555 40.9167H182.139C181.901 38.3296 180.073 36.7254 177.312 36.7254H177.315Z" fill="#52BD94"/>
<path d="M75.6478 19.7091V26.1313H73.8283V19.7091H71.313V18.1519H78.1908V19.7091H75.6478Z" fill="#52BD94"/>
<path d="M89.5469 26.1589H87.6556L85.9217 20.2779L84.1574 26.1589H82.3047L79.9578 18.1519H81.8906L83.3788 23.9197L85.0575 18.1519H86.9902L88.6468 23.9197L90.0881 18.1519H91.8662L89.5469 26.1589Z" fill="#52BD94"/>
<path d="M94.3705 26.1313V18.1519H96.1624V26.1313H94.3705Z" fill="#52BD94"/>
<path d="M99.3873 26.1313V18.1519H101.207V24.5602H104.321V26.1313H99.3873Z" fill="#52BD94"/>
<path d="M107.033 26.1313V18.1519H108.838V26.1313H107.033Z" fill="#52BD94"/>
<path d="M115.595 26.2831C113.386 26.2831 111.619 24.6983 111.619 22.1554C111.619 19.6125 113.411 18.0138 115.608 18.0138C117.806 18.0138 119.582 19.5986 119.582 22.1554C119.582 24.7121 117.803 26.2831 115.595 26.2831ZM115.595 19.4744C114.214 19.4744 113.411 20.6119 113.411 22.1416C113.411 23.6712 114.239 24.8225 115.595 24.8225C116.95 24.8225 117.748 23.6574 117.748 22.1554C117.748 20.6534 116.942 19.4744 115.608 19.4744H115.595Z" fill="#52BD94"/>
</g>
<defs>
<clipPath id="clip0_25_321">
<rect width="204.577" height="44" fill="white" transform="translate(18 18)"/>
</clipPath>
</defs>
</svg>
