<svg width="180" height="61" viewBox="0 0 180 61" fill="none" xmlns="http://www.w3.org/2000/svg">
<rect width="178.863" height="59.6209" transform="translate(0.758087 0.720215)" fill="white"/>
<g clip-path="url(#clip0_25_400)">
<path d="M43.2399 25.0017H26.2021C25.8771 25.0017 25.6136 25.2652 25.6136 25.5902V27.5738C25.6136 27.8989 25.8771 28.1623 26.2021 28.1623H43.2399C43.5649 28.1623 43.8284 27.8989 43.8284 27.5738V25.5902C43.8284 25.2652 43.5649 25.0017 43.2399 25.0017Z" fill="#52BD94"/>
<path d="M31.9698 32.8992H14.9321C14.6071 32.8992 14.3436 33.1627 14.3436 33.4877V35.4713C14.3436 35.7963 14.6071 36.0598 14.9321 36.0598H31.9698C32.2949 36.0598 32.5583 35.7963 32.5583 35.4713V33.4877C32.5583 33.1627 32.2949 32.8992 31.9698 32.8992Z" fill="#52BD94"/>
<path fill-rule="evenodd" clip-rule="evenodd" d="M16.5289 27.1643C16.6783 27.2029 16.837 27.1815 16.9708 27.1045C17.1047 27.0276 17.2031 26.9014 17.2449 26.7528C18.1884 23.7997 20.201 21.3056 22.8882 19.7597C25.5754 18.2138 28.7432 17.7276 31.7703 18.3965C31.9167 18.4266 32.0692 18.3995 32.1963 18.3207C32.3234 18.2418 32.4154 18.1172 32.4534 17.9726L32.9678 16.0527C32.988 15.9757 32.9923 15.8953 32.9805 15.8165C32.9688 15.7377 32.9412 15.6622 32.8995 15.5943C32.8578 15.5264 32.8028 15.4677 32.7378 15.4217C32.6728 15.3756 32.5992 15.3432 32.5213 15.3264C28.696 14.4653 24.6867 15.0774 21.2925 17.0407C17.8984 19.0039 15.3687 22.1742 14.2078 25.9194C14.1859 25.9945 14.1793 26.0732 14.1882 26.151C14.1971 26.2287 14.2215 26.3039 14.2598 26.3721C14.2981 26.4403 14.3496 26.5002 14.4114 26.5482C14.4731 26.5963 14.5438 26.6315 14.6193 26.6519L16.5289 27.1643Z" fill="#52BD94"/>
<path fill-rule="evenodd" clip-rule="evenodd" d="M41.6472 33.889C41.4966 33.8485 41.3361 33.869 41.2005 33.946C41.065 34.0231 40.9652 34.1504 40.9229 34.3005C39.9815 37.2555 37.9697 39.752 35.2823 41.2999C32.5949 42.8478 29.426 43.3355 26.3976 42.6671C26.2511 42.6364 26.0983 42.6633 25.9711 42.7423C25.8439 42.8212 25.752 42.9461 25.7144 43.091L25.2103 45.0006C25.1899 45.0778 25.1853 45.1583 25.1969 45.2374C25.2085 45.3164 25.236 45.3922 25.2777 45.4603C25.3195 45.5284 25.3746 45.5873 25.4397 45.6335C25.5049 45.6797 25.5787 45.7122 25.6568 45.729C29.4823 46.588 33.491 45.9747 36.8847 44.0113C40.2784 42.0479 42.8082 38.8784 43.9704 35.1339C43.9925 35.0589 43.9993 34.9803 43.9905 34.9026C43.9817 34.8249 43.9574 34.7498 43.919 34.6817C43.8806 34.6135 43.829 34.5538 43.7671 34.506C43.7052 34.4582 43.6344 34.4233 43.5588 34.4034L41.6472 33.889Z" fill="#52BD94"/>
<path d="M38.0915 21.5323C39.0484 21.5323 39.8241 20.7566 39.8241 19.7997C39.8241 18.8428 39.0484 18.0671 38.0915 18.0671C37.1346 18.0671 36.3589 18.8428 36.3589 19.7997C36.3589 20.7566 37.1346 21.5323 38.0915 21.5323Z" fill="#52BD94"/>
<path d="M20.0846 42.992C21.0415 42.992 21.8172 42.2163 21.8172 41.2594C21.8172 40.3026 21.0415 39.5269 20.0846 39.5269C19.1277 39.5269 18.352 40.3026 18.352 41.2594C18.352 42.2163 19.1277 42.992 20.0846 42.992Z" fill="#52BD94"/>
<path fill-rule="evenodd" clip-rule="evenodd" d="M86.2602 27.3885C86.892 26.6948 87.6638 26.143 88.5248 25.7699C89.3857 25.3967 90.316 25.2106 91.2542 25.2238C93.0774 25.2238 94.4972 25.7876 95.3943 26.87V25.9728C95.4003 25.8488 95.4519 25.7314 95.5393 25.6432C95.6267 25.5551 95.7437 25.5024 95.8676 25.4954H98.271C98.3948 25.5029 98.5115 25.5557 98.5988 25.6437C98.6861 25.7318 98.7379 25.849 98.7443 25.9728V39.317C98.8188 41.2 98.2369 43.0504 97.0981 44.5518C95.8018 46.128 93.8346 46.9264 91.2501 46.9264C87.6574 46.9264 84.8219 44.6526 84.3548 41.4056C84.3435 41.2884 84.3735 41.171 84.4396 41.0737C84.5057 40.9764 84.6039 40.9052 84.7169 40.8726L87.0648 40.3212C87.0771 40.3202 87.0895 40.3202 87.1018 40.3212C87.1631 40.3119 87.2255 40.3147 87.2856 40.3297C87.3458 40.3446 87.4023 40.3714 87.4521 40.4083C87.5018 40.4452 87.5437 40.4916 87.5754 40.5448C87.6071 40.598 87.628 40.657 87.6368 40.7183C87.7416 41.5968 88.1705 42.4046 88.8396 42.9835C89.5087 43.5624 90.3698 43.8707 91.2542 43.8481C94.061 43.8481 95.3697 42.4077 95.3697 39.3973V38.2285C94.8546 38.8056 94.219 39.2625 93.5078 39.5669C92.7967 39.8713 92.0274 40.0157 91.2542 39.9899C87.2603 39.9899 84.363 36.8889 84.363 32.6213C84.3275 30.7026 85.0033 28.8386 86.2602 27.3885V27.3885ZM132.865 25.0407H132.991C137.285 25.0983 139.946 28.0881 139.946 32.8723C139.945 33.1259 139.932 33.3794 139.904 33.6316C139.891 33.7446 139.837 33.8487 139.752 33.9245C139.667 34.0002 139.557 34.0424 139.444 34.0431H129.235C129.266 35.0736 129.701 36.0507 130.446 36.7633C131.191 37.476 132.186 37.867 133.217 37.8519C134.024 37.9024 134.825 37.6778 135.488 37.2148C136.151 36.7518 136.638 36.0777 136.869 35.3024C136.912 35.1891 136.997 35.0965 137.106 35.044C137.215 34.9915 137.341 34.9831 137.456 35.0205L139.487 35.7407C139.545 35.7599 139.599 35.7913 139.645 35.8327C139.691 35.8742 139.727 35.9249 139.752 35.9815C139.78 36.0361 139.796 36.0958 139.801 36.157C139.805 36.2181 139.797 36.2795 139.777 36.3375C139.316 37.7023 138.429 38.8829 137.247 39.7054C136.064 40.5278 134.649 40.9486 133.209 40.9056C132.249 40.9149 131.297 40.7339 130.408 40.3729C129.519 40.0119 128.711 39.4782 128.029 38.8026C127.286 38.0206 126.706 37.0979 126.324 36.0887C125.942 35.0795 125.766 34.0042 125.805 32.9258C125.805 27.9873 129.394 25.0304 132.861 25.0304L132.865 25.0407ZM75.1095 25.0407C79.4801 25.0407 82.1962 28.0429 82.1962 32.8744C82.1959 33.128 82.1821 33.3815 82.1551 33.6336C82.1429 33.7471 82.089 33.8521 82.0038 33.9281C81.9187 34.0041 81.8083 34.0458 81.6942 34.0452H71.4859C71.5145 35.0815 71.9518 36.0644 72.7023 36.7795C73.4529 37.4946 74.4558 37.8838 75.4923 37.8622C76.2998 37.9134 77.1007 37.6891 77.7642 37.226C78.4276 36.7629 78.9143 36.0884 79.1447 35.3127C79.1861 35.1984 79.2708 35.1048 79.3804 35.0521C79.49 34.9994 79.6159 34.9918 79.7311 35.0308L81.7703 35.749C81.8291 35.7679 81.8833 35.7992 81.929 35.8407C81.9748 35.8822 82.0112 35.933 82.0357 35.9897C82.0591 36.0461 82.0712 36.1066 82.0712 36.1677C82.0712 36.2288 82.0591 36.2893 82.0357 36.3457C81.5753 37.7098 80.6889 38.89 79.5071 39.7124C78.3254 40.5348 76.9108 40.9559 75.4717 40.9138C74.5105 40.9242 73.5569 40.7436 72.6661 40.3826C71.7752 40.0216 70.9649 39.4874 70.2822 38.8108C69.5399 38.0279 68.961 37.105 68.5791 36.0961C68.1972 35.0871 68.02 34.0122 68.0578 32.934C68.0578 27.9955 71.6464 25.0386 75.1157 25.0386L75.1095 25.0407ZM59.648 25.0407C61.609 25.0407 63.1954 25.516 64.3704 26.4564C65.1638 27.0892 65.7523 27.9426 66.0618 28.9092C66.0716 28.9503 66.073 28.9929 66.0662 29.0345C66.0593 29.0762 66.0442 29.1161 66.0219 29.1519C65.9995 29.1877 65.9702 29.2187 65.9357 29.243C65.9012 29.2674 65.8623 29.2847 65.8211 29.294L63.3868 30.0985C63.2788 30.1397 63.1594 30.1397 63.0514 30.0985C63.0055 30.0773 62.9646 30.0465 62.9316 30.0082C62.8986 29.9698 62.8742 29.9249 62.86 29.8763C62.6543 29.0882 61.9464 27.7651 59.6439 27.7651C58.0368 27.7651 57.0738 28.6869 57.0738 29.58C57.0738 30.1726 57.3804 30.936 58.829 31.2117L61.504 31.7138C64.4939 32.3167 66.2059 33.9526 66.2059 36.2305V36.1914C66.2059 38.4548 64.0288 40.8726 59.9834 40.8726C55.2918 40.8726 53.4481 38.2182 53.1086 36.6523C53.0974 36.5705 53.1165 36.4874 53.1624 36.4188C53.2083 36.3502 53.2777 36.3007 53.3576 36.2799L55.868 35.4979C55.9129 35.4897 55.9589 35.4897 56.0038 35.4979C56.0755 35.4966 56.1463 35.5136 56.2096 35.5473C56.2551 35.5692 56.2953 35.6008 56.3273 35.6399C56.3593 35.679 56.3823 35.7247 56.3947 35.7737C56.7116 37.2799 58.0718 38.1771 60.0286 38.1771C61.8497 38.1771 62.679 37.2243 62.679 36.3601C62.679 35.4959 61.9403 34.86 60.6706 34.6049L57.8557 34.0575C55.2301 33.5616 53.5942 31.9299 53.5942 29.8063C53.5942 27.2219 56.3701 25.0407 59.648 25.0407ZM163.058 20.8533C163.185 20.8611 163.305 20.9175 163.393 21.0108C163.481 21.1041 163.529 21.2274 163.529 21.3554V25.4708H166.169C166.296 25.4801 166.414 25.537 166.501 25.6301C166.588 25.7232 166.636 25.8457 166.636 25.9728V28.1663C166.637 28.2912 166.588 28.4111 166.5 28.5002C166.413 28.5892 166.294 28.64 166.169 28.6417H163.529V35.965C163.529 37.1791 164.01 37.6811 165.249 37.6811C165.532 37.6764 165.813 37.653 166.093 37.6112C166.16 37.5996 166.23 37.6031 166.296 37.6212C166.362 37.6393 166.423 37.6717 166.476 37.7161C166.525 37.7625 166.565 37.8184 166.593 37.8807C166.621 37.943 166.635 38.0102 166.636 38.0783V40.136C166.637 40.2384 166.604 40.3383 166.543 40.4206C166.483 40.503 166.397 40.5634 166.299 40.5928C165.696 40.7617 165.072 40.8428 164.447 40.8335C161.8 40.8335 160.16 39.1318 160.16 36.3869V28.6725H157.876C157.753 28.6651 157.636 28.6122 157.549 28.5241C157.462 28.436 157.411 28.3188 157.405 28.1951V25.9975C157.404 25.8694 157.453 25.7459 157.541 25.6525C157.628 25.559 157.748 25.5028 157.876 25.4954H158.469C159.187 25.4954 160.397 25.2444 160.397 23.5324V21.3554C160.396 21.2272 160.445 21.1037 160.533 21.0103C160.62 20.9169 160.74 20.8607 160.868 20.8533H163.058ZM113.508 27.4935C114.024 26.7047 114.737 26.0638 115.576 25.6337C116.414 25.2037 117.351 24.9993 118.292 25.0407V25.0407C120.902 25.0407 123.538 26.8782 123.538 30.8928V40.1854C123.531 40.3092 123.479 40.4264 123.392 40.5145C123.305 40.6025 123.188 40.6553 123.064 40.6628H120.659C120.535 40.6548 120.419 40.6018 120.332 40.5138C120.245 40.4258 120.194 40.3089 120.188 40.1854V31.1912C120.188 30.0532 119.832 28.1355 117.422 28.1355C115.661 28.1355 114.41 29.5203 114.41 31.5286V40.1854C114.404 40.309 114.352 40.4262 114.265 40.5143C114.178 40.6024 114.062 40.6553 113.938 40.6628H111.502C111.378 40.6553 111.262 40.6025 111.174 40.5145C111.087 40.4264 111.035 40.3092 111.029 40.1854V31.1912C111.033 30.0532 110.679 28.1272 108.267 28.1272C106.436 28.1272 105.201 29.5018 105.201 31.5492V40.1854C105.195 40.3089 105.144 40.4258 105.057 40.5138C104.97 40.6018 104.854 40.6548 104.73 40.6628H102.327C102.204 40.6543 102.088 40.601 102.002 40.513C101.916 40.425 101.865 40.3084 101.86 40.1854V25.942C101.866 25.8191 101.917 25.7028 102.003 25.6148C102.089 25.5269 102.204 25.4735 102.327 25.4646H104.64C104.763 25.4725 104.879 25.5255 104.966 25.6135C105.053 25.7016 105.104 25.8184 105.111 25.942V26.8C105.626 26.2364 106.255 25.7883 106.955 25.485C107.656 25.1818 108.413 25.0304 109.177 25.0407C110.054 25.015 110.921 25.23 111.685 25.6624C112.449 26.0948 113.079 26.7281 113.508 27.4935V27.4935ZM150.158 25.0407C150.927 25.0078 151.694 25.1502 152.4 25.4571C153.106 25.764 153.734 26.2275 154.234 26.8124C155.168 28.0422 155.644 29.5597 155.578 31.1027V40.1854C155.573 40.3082 155.522 40.4248 155.437 40.5128C155.351 40.6009 155.236 40.6543 155.113 40.6628H152.679C152.555 40.6549 152.439 40.6019 152.351 40.514C152.264 40.426 152.212 40.3091 152.205 40.1854V31.5883C152.205 29.3392 151.148 28.1951 149.139 28.1951C148.702 28.1811 148.268 28.27 147.872 28.4548C147.475 28.6396 147.128 28.9151 146.857 29.259C146.313 30.0421 146.038 30.9809 146.073 31.934V40.1854C146.067 40.3089 146.016 40.4258 145.929 40.5138C145.842 40.6018 145.726 40.6548 145.602 40.6628H143.172C143.049 40.6548 142.932 40.6018 142.846 40.5138C142.759 40.4258 142.707 40.3089 142.701 40.1854V25.9317C142.706 25.8075 142.757 25.6896 142.844 25.601C142.931 25.5123 143.048 25.4593 143.172 25.4522H145.547C145.669 25.4602 145.785 25.5131 145.871 25.6007C145.957 25.6884 146.008 25.8048 146.014 25.9276V26.9317C146.517 26.3243 147.151 25.8387 147.869 25.5112C148.587 25.1837 149.369 25.0228 150.158 25.0407ZM91.672 28.226C89.3015 28.226 87.7973 29.9113 87.7973 32.6213C87.7973 35.3313 89.283 37.0145 91.672 37.0145C93.9498 37.0145 95.4849 35.2469 95.4849 32.6213C95.4849 29.9956 93.9498 28.226 91.672 28.226ZM75.1342 28.0902C74.2596 28.0751 73.4108 28.3869 72.7539 28.9646C72.097 29.5423 71.6794 30.3444 71.5826 31.2138H78.7229C78.5521 29.2857 77.1816 28.0902 75.1342 28.0902V28.0902ZM132.904 28.0902C132.03 28.0766 131.183 28.389 130.527 28.9666C129.871 29.5441 129.454 30.3453 129.357 31.2138H136.499C136.322 29.2857 134.96 28.0902 132.902 28.0902H132.904Z" fill="#52BD94"/>
<path d="M57.1355 15.4086V20.1948H55.7795V15.4086H53.9049V14.248H59.0307V15.4086H57.1355Z" fill="#52BD94"/>
<path d="M67.494 20.2154H66.0845L64.7922 15.8325L63.4774 20.2154H62.0966L60.3476 14.248H61.788L62.8971 18.5466L64.1482 14.248H65.5886L66.8232 18.5466L67.8973 14.248H69.2225L67.494 20.2154Z" fill="#52BD94"/>
<path d="M71.0888 20.1948V14.248H72.4242V20.1948H71.0888Z" fill="#52BD94"/>
<path d="M74.8276 20.1948V14.248H76.1836V19.024H78.5047V20.1948H74.8276Z" fill="#52BD94"/>
<path d="M80.5254 20.1948V14.248H81.8711V20.1948H80.5254Z" fill="#52BD94"/>
<path d="M86.9063 20.3081C85.2602 20.3081 83.9432 19.127 83.9432 17.2318C83.9432 15.3367 85.2787 14.1453 86.9166 14.1453C88.5545 14.1453 89.8777 15.3264 89.8777 17.2318C89.8777 19.1372 88.5525 20.3081 86.9063 20.3081ZM86.9063 15.2338C85.8775 15.2338 85.2787 16.0816 85.2787 17.2215C85.2787 18.3615 85.896 19.2196 86.9063 19.2196C87.9167 19.2196 88.5113 18.3512 88.5113 17.2318C88.5113 16.1124 87.9105 15.2338 86.9166 15.2338H86.9063Z" fill="#52BD94"/>
</g>
<defs>
<clipPath id="clip0_25_400">
<rect width="152.463" height="32.7915" fill="white" transform="translate(14.1728 14.135)"/>
</clipPath>
</defs>
</svg>
