<svg width="180" height="60" viewBox="0 0 180 60" fill="none" xmlns="http://www.w3.org/2000/svg">
<g clip-path="url(#clip0_347_32526)">
<rect width="178.863" height="59.6209" transform="translate(0.789062 0.00439453)" fill="white"/>
<path fill-rule="evenodd" clip-rule="evenodd" d="M48.603 25.4276C46.9613 25.4226 45.3698 25.994 44.1061 27.0421V25.5901H39.9993V41.584H44.2686V31.3657C44.7278 30.7682 45.3141 30.2804 45.985 29.9374C46.6559 29.5945 47.3947 29.405 48.1479 29.3827C48.7304 29.3509 49.3132 29.4394 49.86 29.6428V25.5359C49.4452 25.4618 49.0244 25.4255 48.603 25.4276" fill="#293E40"/>
<path fill-rule="evenodd" clip-rule="evenodd" d="M11.3705 36.7077C12.5832 37.7302 14.1186 38.2906 15.7048 38.2897C16.8535 38.2897 17.742 37.7263 17.742 36.9352C17.7745 34.5297 10.0593 35.4182 10.0593 30.2386C10.0593 27.172 13.0175 25.2649 16.1708 25.2649C18.0957 25.2627 19.9791 25.824 21.5888 26.8795L19.5516 30.0002C18.6675 29.3356 17.6012 28.9574 16.4959 28.9166C15.3147 28.9166 14.3287 29.3826 14.3287 30.2061C14.3287 32.2866 22.0439 31.4631 22.0439 37.0003C22.0439 40.0343 19.0532 41.9198 15.7048 41.9198C13.3962 41.884 11.1567 41.1262 9.30078 39.7526L11.3705 36.7077Z" fill="#293E40"/>
<path fill-rule="evenodd" clip-rule="evenodd" d="M38.1788 33.4352C38.1788 28.9816 35.058 25.2649 30.6477 25.2649C25.9233 25.2649 22.9 29.155 22.9 33.5978C22.8506 34.7056 23.0327 35.8116 23.4348 36.8452C23.8369 37.8787 24.4501 38.817 25.2353 39.6001C26.0205 40.3832 26.9604 40.994 27.995 41.3934C29.0295 41.7929 30.136 41.9721 31.2437 41.9198C32.468 41.9291 33.6804 41.679 34.801 41.1859C35.9216 40.6929 36.9251 39.968 37.7453 39.0591L35.3072 36.5993C34.7978 37.1618 34.1802 37.6158 33.4913 37.9342C32.8024 38.2525 32.0564 38.4287 31.2979 38.4523C30.2271 38.4957 29.1805 38.1265 28.374 37.4208C27.5675 36.7151 27.0626 35.7268 26.9635 34.6597H38.0704C38.1416 34.2554 38.1778 33.8457 38.1788 33.4352ZM27.2344 31.5281C27.3882 30.7363 27.8131 30.0229 28.4361 29.5107C29.0591 28.9984 29.8412 28.7194 30.6477 28.7216C31.426 28.7216 32.177 29.0075 32.7584 29.5249C33.3397 30.0423 33.7107 30.7551 33.801 31.5281H27.2344Z" fill="#293E40"/>
<path fill-rule="evenodd" clip-rule="evenodd" d="M60.0347 35.3531L64.4016 25.5898H68.8443L61.5083 41.5837H58.561L51.2358 25.5898H55.6678L60.0347 35.3531Z" fill="#293E40"/>
<path fill-rule="evenodd" clip-rule="evenodd" d="M72.4203 18.0807C72.9606 18.0892 73.4864 18.2572 73.9315 18.5636C74.3766 18.87 74.7212 19.3011 74.922 19.8027C75.1229 20.3044 75.1711 20.8542 75.0604 21.3831C74.9498 21.912 74.6853 22.3964 74.3003 22.7755C73.9152 23.1546 73.4267 23.4114 72.8961 23.5137C72.3655 23.616 71.8165 23.5593 71.3181 23.3506C70.8197 23.1419 70.3941 22.7905 70.0947 22.3407C69.7953 21.8908 69.6356 21.3625 69.6355 20.8222C69.6355 20.4585 69.7078 20.0984 69.8483 19.7629C69.9887 19.4275 70.1945 19.1233 70.4537 18.8681C70.7129 18.613 71.0203 18.412 71.3579 18.2768C71.6955 18.1416 72.0567 18.0749 72.4203 18.0807" fill="#293E40"/>
<path d="M74.5553 25.5898H70.2859V41.5837H74.5553V25.5898Z" fill="#293E40"/>
<path fill-rule="evenodd" clip-rule="evenodd" d="M92.2176 38.3222C91.4093 39.4779 90.3243 40.4126 89.0618 41.0411C87.7992 41.6695 86.3994 41.9716 84.99 41.9197C82.7829 41.9197 80.6661 41.043 79.1054 39.4823C77.5448 37.9216 76.668 35.8049 76.668 33.5977C76.668 31.3906 77.5448 29.2738 79.1054 27.7132C80.6661 26.1525 82.7829 25.2757 84.99 25.2757C86.2817 25.2712 87.5574 25.5617 88.7198 26.1251C89.8822 26.6884 90.9007 27.5098 91.6975 28.5265L88.7067 31.0838C88.2834 30.5011 87.73 30.0252 87.0903 29.6942C86.4507 29.3631 85.7427 29.1859 85.0225 29.1766C84.4487 29.1766 83.8806 29.2905 83.3512 29.5117C82.8218 29.7329 82.3415 30.057 81.9383 30.4652C81.5351 30.8735 81.217 31.3577 81.0024 31.8899C80.7878 32.422 80.6809 32.9915 80.6881 33.5652C80.6712 34.1446 80.7739 34.7212 80.9898 35.259C81.2058 35.7969 81.5303 36.2844 81.9432 36.6912C82.3561 37.098 82.8484 37.4152 83.3894 37.6232C83.9304 37.8311 84.5085 37.9252 85.0875 37.8996C85.8474 37.8852 86.5922 37.6851 87.2571 37.3168C87.9219 36.9485 88.4866 36.4232 88.9018 35.7866L92.2176 38.3222Z" fill="#293E40"/>
<path fill-rule="evenodd" clip-rule="evenodd" d="M107.724 39.0483C106.904 39.9572 105.9 40.682 104.78 41.1751C103.659 41.6682 102.447 41.9183 101.222 41.909C100.116 41.9595 99.0113 41.7794 97.9783 41.38C96.9453 40.9807 96.0066 40.3708 95.2219 39.5892C94.4373 38.8076 93.8238 37.8713 93.4204 36.8399C93.017 35.8084 92.8326 34.7043 92.8788 33.5978C92.8788 29.155 95.902 25.2649 100.637 25.2649C105.037 25.2649 108.158 28.9816 108.158 33.4352C108.16 33.8454 108.127 34.2551 108.06 34.6597H96.9856C97.0847 35.7268 97.5896 36.7151 98.3961 37.4208C99.2026 38.1265 100.249 38.4957 101.32 38.4523C102.079 38.4287 102.825 38.2525 103.513 37.9342C104.202 37.6158 104.82 37.1618 105.329 36.5993L107.724 39.0483ZM103.758 31.5281C103.653 30.7616 103.277 30.0578 102.699 29.5434C102.121 29.0289 101.378 28.7375 100.605 28.7216C99.7964 28.7169 99.0118 28.9947 98.3865 29.5072C97.7613 30.0197 97.3348 30.7345 97.1807 31.5281H103.758Z" fill="#293E40"/>
<path fill-rule="evenodd" clip-rule="evenodd" d="M109.815 41.5837V25.5898H113.922V26.8793C115.188 25.828 116.784 25.2563 118.43 25.2647C119.481 25.2617 120.521 25.4902 121.474 25.9341C122.427 26.3779 123.271 27.0262 123.945 27.8329C125.029 29.0898 125.592 30.7044 125.592 33.4351V41.5837H121.312V33.11C121.371 32.5717 121.318 32.0269 121.156 31.5103C120.994 30.9936 120.726 30.5162 120.369 30.1084C119.717 29.5058 118.852 29.1863 117.964 29.2199C117.213 29.2417 116.477 29.4299 115.808 29.771C115.139 30.112 114.554 30.5974 114.095 31.192V41.5837H109.815Z" fill="#293E40"/>
<path fill-rule="evenodd" clip-rule="evenodd" d="M136.58 25.2649C134.707 25.2627 132.877 25.8228 131.327 26.8727C129.776 27.9226 128.576 29.4138 127.883 31.1534C127.189 32.8929 127.034 34.8006 127.437 36.6293C127.84 38.4581 128.783 40.1237 130.144 41.4105C130.463 41.7154 130.881 41.896 131.322 41.9198C131.763 41.9437 132.199 41.8091 132.549 41.5405C133.7 40.6831 135.096 40.2199 136.531 40.2199C137.966 40.2199 139.363 40.6831 140.514 41.5405C140.867 41.8085 141.305 41.9416 141.748 41.9158C142.191 41.8899 142.61 41.7069 142.93 41.3997C144.282 40.1173 145.219 38.4605 145.623 36.6417C146.026 34.8229 145.877 32.925 145.195 31.1913C144.513 29.4577 143.328 27.9674 141.793 26.9115C140.258 25.8555 138.443 25.2822 136.58 25.2649V25.2649ZM136.58 39.2758C135.965 39.2922 135.353 39.1832 134.782 38.9554C134.211 38.7276 133.692 38.3858 133.257 37.9508C132.822 37.5158 132.48 36.9968 132.252 36.4254C132.024 35.854 131.915 35.2421 131.932 34.6272C131.901 33.9971 131.999 33.3674 132.219 32.7763C132.439 32.1852 132.777 31.6449 133.212 31.1882C133.648 30.7315 134.171 30.368 134.751 30.1196C135.331 29.8712 135.955 29.7431 136.586 29.7431C137.216 29.7431 137.841 29.8712 138.42 30.1196C139 30.368 139.524 30.7315 139.959 31.1882C140.394 31.6449 140.732 32.1852 140.952 32.7763C141.172 33.3674 141.27 33.9971 141.24 34.6272C141.256 35.2431 141.147 35.8558 140.918 36.428C140.69 37.0001 140.347 37.5197 139.911 37.9548C139.475 38.39 138.954 38.7315 138.382 38.9587C137.809 39.1858 137.196 39.2937 136.58 39.2758" fill="#81B5A1"/>
<path fill-rule="evenodd" clip-rule="evenodd" d="M154.297 41.5837H151.111L144.772 25.5898H149.031L152.509 34.7354L155.922 25.5898H159.487L162.868 34.7354L166.368 25.5898H170.638L164.288 41.5837H161.113L157.7 32.4815L154.297 41.5837Z" fill="#293E40"/>
<path d="M168.297 39.5576V39.9044H167.755V41.5839H167.365V39.9044H166.823V39.5576H168.297Z" fill="#293E40"/>
<path d="M169.619 40.7712L170.356 39.5576H170.638V41.5839H170.248V40.4462L169.76 41.248H169.478L169.002 40.4462V41.5839H168.601V39.5576H168.882L169.619 40.7712Z" fill="#293E40"/>
</g>
<defs>
<clipPath id="clip0_347_32526">
<rect width="178.863" height="59.6209" fill="white" transform="translate(0.789062 0.00439453)"/>
</clipPath>
</defs>
</svg>
