<svg width="180" height="61" viewBox="0 0 180 61" fill="none" xmlns="http://www.w3.org/2000/svg">
<g clip-path="url(#clip0_25_401)">
<rect width="178.863" height="59.6209" transform="translate(0.789185 0.720215)" fill="white"/>
<path fill-rule="evenodd" clip-rule="evenodd" d="M48.603 26.1434C46.9613 26.1384 45.3698 26.7098 44.1061 27.758V26.3059H39.9993V42.2998H44.2686V32.0815C44.7278 31.4841 45.3141 30.9962 45.985 30.6532C46.6559 30.3103 47.3947 30.1208 48.1479 30.0985C48.7304 30.0667 49.3132 30.1553 49.86 30.3586V26.2518C49.4452 26.1776 49.0244 26.1413 48.603 26.1434" fill="#293E40"/>
<path fill-rule="evenodd" clip-rule="evenodd" d="M11.3706 37.4235C12.5833 38.446 14.1187 39.0064 15.705 39.0056C16.8536 39.0056 17.7421 38.4421 17.7421 37.6511C17.7747 35.2455 10.0594 36.134 10.0594 30.9544C10.0594 27.8879 13.0177 25.9807 16.1709 25.9807C18.0958 25.9786 19.9792 26.5398 21.5889 27.5953L19.5518 30.716C18.6677 30.0514 17.6013 29.6733 16.496 29.6324C15.3149 29.6324 14.3288 30.0984 14.3288 30.9219C14.3288 33.0024 22.044 32.1789 22.044 37.7161C22.044 40.7502 19.0533 42.6356 15.705 42.6356C13.3963 42.5999 11.1568 41.842 9.30092 40.4684L11.3706 37.4235Z" fill="#293E40"/>
<path fill-rule="evenodd" clip-rule="evenodd" d="M38.1788 34.151C38.1788 29.6975 35.058 25.9807 30.6478 25.9807C25.9233 25.9807 22.9001 29.8708 22.9001 34.3136C22.8506 35.4215 23.0327 36.5275 23.4348 37.561C23.837 38.5945 24.4502 39.5328 25.2354 40.3159C26.0205 41.0991 26.9604 41.7098 27.995 42.1093C29.0295 42.5087 30.136 42.6879 31.2438 42.6356C32.468 42.6449 33.6804 42.3948 34.801 41.9017C35.9216 41.4087 36.9251 40.6838 37.7453 39.7749L35.3072 37.3151C34.7978 37.8776 34.1802 38.3316 33.4913 38.65C32.8024 38.9683 32.0565 39.1446 31.2979 39.1681C30.2271 39.2116 29.1805 38.8423 28.374 38.1366C27.5675 37.4309 27.0626 36.4426 26.9635 35.3755H38.0704C38.1416 34.9712 38.1779 34.5615 38.1788 34.151ZM27.2344 32.2439C27.3882 31.4521 27.8131 30.7387 28.4361 30.2265C29.0591 29.7142 29.8412 29.4352 30.6478 29.4374C31.426 29.4374 32.1771 29.7233 32.7584 30.2407C33.3397 30.7581 33.7107 31.471 33.801 32.2439H27.2344Z" fill="#293E40"/>
<path fill-rule="evenodd" clip-rule="evenodd" d="M60.035 36.0689L64.4019 26.3057H68.8446L61.5087 42.2996H58.5613L51.2361 26.3057H55.6681L60.035 36.0689Z" fill="#293E40"/>
<path fill-rule="evenodd" clip-rule="evenodd" d="M72.4205 18.7965C72.9608 18.805 73.4865 18.973 73.9316 19.2794C74.3767 19.5858 74.7213 20.0169 74.9222 20.5185C75.123 21.0202 75.1712 21.57 75.0606 22.0989C74.9499 22.6278 74.6855 23.1122 74.3004 23.4913C73.9153 23.8704 73.4268 24.1272 72.8962 24.2296C72.3656 24.3319 71.8167 24.2751 71.3182 24.0664C70.8198 23.8577 70.3942 23.5063 70.0948 23.0565C69.7954 22.6066 69.6357 22.0783 69.6356 21.538C69.6356 21.1743 69.7079 20.8142 69.8484 20.4788C69.9888 20.1433 70.1947 19.8391 70.4538 19.584C70.713 19.3288 71.0204 19.1278 71.358 18.9926C71.6957 18.8574 72.0568 18.7907 72.4205 18.7965" fill="#293E40"/>
<path d="M74.5552 26.3057H70.2858V42.2996H74.5552V26.3057Z" fill="#293E40"/>
<path fill-rule="evenodd" clip-rule="evenodd" d="M92.2178 39.038C91.4095 40.1937 90.3245 41.1285 89.062 41.7569C87.7994 42.3853 86.3996 42.6874 84.9902 42.6356C82.7831 42.6356 80.6663 41.7588 79.1056 40.1981C77.545 38.6374 76.6682 36.5207 76.6682 34.3135C76.6682 32.1064 77.545 29.9897 79.1056 28.429C80.6663 26.8683 82.7831 25.9915 84.9902 25.9915C86.2819 25.987 87.5576 26.2775 88.72 26.8409C89.8824 27.4043 90.9009 28.2256 91.6977 29.2423L88.707 31.7996C88.2837 31.2169 87.7302 30.7411 87.0906 30.41C86.451 30.0789 85.7429 29.9017 85.0227 29.8925C84.4489 29.8924 83.8809 30.0063 83.3514 30.2275C82.822 30.4487 82.3417 30.7728 81.9385 31.1811C81.5353 31.5893 81.2172 32.0735 81.0026 32.6057C80.788 33.1378 80.6812 33.7073 80.6883 34.281C80.6714 34.8604 80.7741 35.437 80.99 35.9749C81.206 36.5127 81.5305 37.0003 81.9434 37.407C82.3563 37.8138 82.8486 38.1311 83.3896 38.339C83.9306 38.5469 84.5087 38.641 85.0877 38.6154C85.8476 38.601 86.5925 38.4009 87.2573 38.0326C87.9221 37.6643 88.4868 37.139 88.902 36.5024L92.2178 39.038Z" fill="#293E40"/>
<path fill-rule="evenodd" clip-rule="evenodd" d="M107.724 39.7641C106.904 40.673 105.9 41.3978 104.78 41.8909C103.659 42.384 102.447 42.6341 101.223 42.6248C100.116 42.6753 99.0113 42.4952 97.9783 42.0959C96.9453 41.6965 96.0066 41.0866 95.222 40.305C94.4373 39.5234 93.8238 38.5871 93.4204 37.5557C93.017 36.5242 92.8326 35.4201 92.8788 34.3136C92.8788 29.8708 95.902 25.9807 100.637 25.9807C105.037 25.9807 108.158 29.6975 108.158 34.151C108.16 34.5612 108.127 34.9709 108.06 35.3755H96.9856C97.0847 36.4426 97.5896 37.4309 98.3961 38.1366C99.2026 38.8423 100.249 39.2116 101.32 39.1681C102.079 39.1446 102.825 38.9683 103.513 38.65C104.202 38.3316 104.82 37.8776 105.329 37.3151L107.724 39.7641ZM103.758 32.2439C103.653 31.4774 103.277 30.7736 102.699 30.2592C102.121 29.7448 101.378 29.4534 100.605 29.4374C99.7965 29.4327 99.0118 29.7106 98.3866 30.223C97.7613 30.7355 97.3348 31.4503 97.1807 32.2439H103.758Z" fill="#293E40"/>
<path fill-rule="evenodd" clip-rule="evenodd" d="M109.815 42.2995V26.3056H113.922V27.5951C115.188 26.5438 116.784 25.9721 118.43 25.9806C119.482 25.9775 120.521 26.2061 121.474 26.6499C122.427 27.0937 123.271 27.742 123.946 28.5487C125.029 29.8057 125.593 31.4202 125.593 34.1509V42.2995H121.312V33.8258C121.372 33.2875 121.318 32.7427 121.156 32.2261C120.994 31.7094 120.726 31.232 120.37 30.8242C119.717 30.2216 118.852 29.9021 117.964 29.9357C117.214 29.9575 116.477 30.1457 115.808 30.4868C115.139 30.8278 114.554 31.3132 114.096 31.9078V42.2995H109.815Z" fill="#293E40"/>
<path fill-rule="evenodd" clip-rule="evenodd" d="M136.58 25.9807C134.708 25.9785 132.877 26.5386 131.327 27.5885C129.776 28.6384 128.576 30.1296 127.883 31.8692C127.189 33.6087 127.034 35.5164 127.437 37.3452C127.84 39.1739 128.783 40.8396 130.144 42.1263C130.463 42.4312 130.881 42.6118 131.323 42.6356C131.764 42.6595 132.199 42.525 132.549 42.2564C133.7 41.3989 135.097 40.9357 136.532 40.9357C137.967 40.9357 139.363 41.3989 140.514 42.2564C140.867 42.5244 141.305 42.6574 141.748 42.6316C142.191 42.6058 142.61 42.4228 142.93 42.1155C144.282 40.8331 145.219 39.1763 145.623 37.3575C146.027 35.5387 145.878 33.6408 145.195 31.9071C144.513 30.1735 143.329 28.6832 141.794 27.6273C140.259 26.5714 138.443 25.998 136.58 25.9807V25.9807ZM136.58 39.9916C135.965 40.008 135.354 39.899 134.782 39.6712C134.211 39.4434 133.692 39.1016 133.257 38.6666C132.822 38.2316 132.48 37.7126 132.252 37.1412C132.024 36.5698 131.915 35.9579 131.932 35.343C131.901 34.7129 131.999 34.0832 132.219 33.4921C132.439 32.901 132.777 32.3607 133.212 31.904C133.648 31.4474 134.171 31.0838 134.751 30.8354C135.331 30.587 135.955 30.4589 136.586 30.4589C137.217 30.4589 137.841 30.587 138.421 30.8354C139 31.0838 139.524 31.4474 139.959 31.904C140.394 32.3607 140.732 32.901 140.952 33.4921C141.172 34.0832 141.27 34.7129 141.24 35.343C141.256 35.9589 141.147 36.5716 140.918 37.1438C140.69 37.716 140.347 38.2355 139.911 38.6706C139.475 39.1058 138.955 39.4474 138.382 39.6745C137.809 39.9016 137.196 40.0095 136.58 39.9916" fill="#81B5A1"/>
<path fill-rule="evenodd" clip-rule="evenodd" d="M154.297 42.2996H151.111L144.772 26.3057H149.031L152.509 35.4512L155.923 26.3057H159.488L162.868 35.4512L166.368 26.3057H170.638L164.288 42.2996H161.113L157.7 33.1973L154.297 42.2996Z" fill="#293E40"/>
<path d="M168.297 40.2734V40.6202H167.755V42.2998H167.365V40.6202H166.824V40.2734H168.297Z" fill="#293E40"/>
<path d="M169.619 41.4871L170.356 40.2734H170.638V42.2998H170.248V41.162L169.76 41.9638H169.478L169.002 41.162V42.2998H168.601V40.2734H168.882L169.619 41.4871Z" fill="#293E40"/>
</g>
<defs>
<clipPath id="clip0_25_401">
<rect width="178.863" height="59.6209" fill="white" transform="translate(0.789185 0.720215)"/>
</clipPath>
</defs>
</svg>
