<svg width="121" height="61" viewBox="0 0 121 61" fill="none" xmlns="http://www.w3.org/2000/svg">
<g clip-path="url(#clip0_25_402)">
<rect width="119.242" height="59.6209" transform="translate(0.820312 0.720215)" fill="white"/>
<path d="M37.0717 23.2685C37.0549 23.1513 36.9544 23.0843 36.8707 23.0843C36.787 23.0843 35.129 23.0508 35.129 23.0508C35.129 23.0508 33.7391 21.711 33.6051 21.5603C33.4711 21.4264 33.2032 21.4598 33.1027 21.4933C33.1027 21.4933 32.8347 21.5771 32.3993 21.711C32.3323 21.4766 32.2151 21.1919 32.0644 20.8905C31.5787 19.9526 30.8419 19.4502 29.971 19.4502C29.904 19.4502 29.8538 19.4502 29.7868 19.467C29.7533 19.4335 29.7366 19.4 29.7031 19.3832C29.3179 18.9813 28.8323 18.7804 28.2461 18.7971C27.1241 18.8306 26.002 19.6512 25.081 21.0914C24.4446 22.113 23.9589 23.3857 23.8082 24.3738C22.5187 24.7757 21.6144 25.0604 21.5809 25.0604C20.9278 25.2614 20.911 25.2781 20.8273 25.8977C20.7938 26.3666 19.0856 39.5798 19.0856 39.5798L33.4209 42.0584L39.6339 40.5177C39.6172 40.5177 37.0884 23.3857 37.0717 23.2685ZM31.6792 21.9455C31.3443 22.046 30.9758 22.1632 30.5739 22.2972C30.5739 21.7278 30.4902 20.9239 30.239 20.2541C31.0931 20.3881 31.5117 21.3594 31.6792 21.9455ZM29.8203 22.5149C29.0667 22.7493 28.2461 23.0005 27.4255 23.2518C27.66 22.3642 28.0954 21.4933 28.6313 20.9072C28.8323 20.6895 29.1169 20.455 29.4351 20.3211C29.7701 20.9742 29.8371 21.8953 29.8203 22.5149ZM28.2796 19.5507C28.5476 19.5507 28.7653 19.601 28.9495 19.7349C28.648 19.8856 28.3466 20.1201 28.0786 20.4215C27.3585 21.1919 26.8059 22.3809 26.5882 23.5364C25.9016 23.7542 25.2317 23.9551 24.6288 24.1393C25.0307 22.3139 26.5547 19.601 28.2796 19.5507Z" fill="#95BF47"/>
<path d="M36.8707 23.0845C36.787 23.0845 35.1291 23.051 35.1291 23.051C35.1291 23.051 33.7391 21.7113 33.6051 21.5605C33.5549 21.5103 33.4879 21.4768 33.4209 21.4768V42.0586L39.6339 40.5179C39.6339 40.5179 37.1052 23.3859 37.0884 23.2687C37.0549 23.1515 36.9545 23.0845 36.8707 23.0845Z" fill="#5E8E3E"/>
<path d="M29.9711 26.2832L29.251 28.9794C29.251 28.9794 28.4471 28.611 27.4925 28.6779C26.0858 28.7617 26.0858 29.6493 26.0858 29.867C26.1696 31.0727 29.3347 31.3407 29.5189 34.1709C29.6529 36.3982 28.3466 37.9222 26.4375 38.0394C24.1599 38.1566 22.9039 36.8169 22.9039 36.8169L23.3896 34.757C23.3896 34.757 24.6623 35.7116 25.6671 35.6446C26.3203 35.6111 26.5715 35.0585 26.538 34.69C26.4375 33.1158 23.8585 33.2163 23.691 30.6206C23.5571 28.4435 24.9805 26.2497 28.1289 26.0487C29.3514 25.965 29.9711 26.2832 29.9711 26.2832Z" fill="white"/>
<path d="M48.0408 32.0269C47.3207 31.6418 46.9523 31.3068 46.9523 30.8547C46.9523 30.2853 47.4714 29.9168 48.2753 29.9168C49.2131 29.9168 50.0504 30.302 50.0504 30.302L50.7036 28.2924C50.7036 28.2924 50.1007 27.8235 48.3255 27.8235C45.847 27.8235 44.1221 29.247 44.1221 31.2398C44.1221 32.3786 44.9259 33.2327 45.9977 33.8523C46.8686 34.338 47.17 34.6897 47.17 35.2088C47.17 35.7447 46.7346 36.1801 45.9307 36.1801C44.7417 36.1801 43.6029 35.5605 43.6029 35.5605L42.8996 37.5701C42.8996 37.5701 43.9379 38.2735 45.6963 38.2735C48.2418 38.2735 50.0839 37.0175 50.0839 34.7566C50.0672 33.5341 49.1461 32.6633 48.0408 32.0269Z" fill="black"/>
<path d="M58.1894 27.7899C56.9334 27.7899 55.9453 28.3927 55.1917 29.2971L55.1582 29.2803L56.2467 23.5864H53.4165L50.6533 38.0891H53.4835L54.4213 33.1321C54.7898 31.2564 55.7611 30.1009 56.6654 30.1009C57.3018 30.1009 57.553 30.5363 57.553 31.156C57.553 31.5411 57.5195 32.0268 57.4358 32.412L56.364 38.0891H59.1942L60.2995 32.2278C60.4167 31.6081 60.5004 30.8713 60.5004 30.3689C60.5172 28.7612 59.6798 27.7899 58.1894 27.7899Z" fill="black"/>
<path d="M66.9312 27.79C63.5148 27.79 61.254 30.8714 61.254 34.3045C61.254 36.4984 62.6105 38.2735 65.156 38.2735C68.5054 38.2735 70.7662 35.2758 70.7662 31.759C70.7829 29.7327 69.5939 27.79 66.9312 27.79ZM65.5412 36.1132C64.5699 36.1132 64.168 35.2926 64.168 34.2543C64.168 32.6299 65.0053 29.9839 66.546 29.9839C67.5508 29.9839 67.8857 30.8547 67.8857 31.692C67.8857 33.4337 67.0317 36.1132 65.5412 36.1132Z" fill="black"/>
<path d="M78.0343 27.79C76.1252 27.79 75.0366 29.4815 75.0366 29.4815H75.0031L75.1706 27.9575H72.6586C72.5413 28.9791 72.3069 30.5533 72.0892 31.7255L70.1131 42.1085H72.9433L73.7304 37.9051H73.7974C73.7974 37.9051 74.3835 38.2735 75.4553 38.2735C78.7879 38.2735 80.965 34.8572 80.965 31.4073C80.965 29.4982 80.1109 27.79 78.0343 27.79ZM75.3213 36.1467C74.5845 36.1467 74.149 35.728 74.149 35.728L74.6179 33.082C74.9529 31.3069 75.874 30.1346 76.862 30.1346C77.7328 30.1346 78.0008 30.9384 78.0008 31.692C78.0008 33.5342 76.9123 36.1467 75.3213 36.1467Z" fill="black"/>
<path d="M85.0177 23.7205C84.1134 23.7205 83.3932 24.4406 83.3932 25.3616C83.3932 26.199 83.9291 26.7851 84.733 26.7851H84.7665C85.6541 26.7851 86.4077 26.1822 86.4244 25.1439C86.4244 24.3233 85.8718 23.7205 85.0177 23.7205Z" fill="black"/>
<path d="M81.0487 38.0722H83.8789L85.8048 28.0242H82.9578L81.0487 38.0722Z" fill="black"/>
<path d="M93.0226 28.0076H91.0465L91.147 27.5387C91.3144 26.5674 91.8838 25.7133 92.8384 25.7133C93.3408 25.7133 93.7427 25.864 93.7427 25.864L94.2954 23.6367C94.2954 23.6367 93.8097 23.3855 92.7547 23.3855C91.7499 23.3855 90.7451 23.6702 89.9747 24.3233C89.0034 25.1439 88.5512 26.3329 88.3335 27.5387L88.2498 28.0076H86.9268L86.5081 30.1512H87.8311L86.3239 38.0892H89.1541L90.6613 30.1512H92.6207L93.0226 28.0076Z" fill="black"/>
<path d="M99.8553 28.0242C99.8553 28.0242 98.0801 32.4956 97.293 34.9406H97.2596C97.2093 34.1535 96.5562 28.0242 96.5562 28.0242H93.5753L95.2834 37.2516C95.3169 37.4526 95.3002 37.5866 95.2164 37.7205C94.8815 38.3569 94.3289 38.9766 93.6757 39.4287C93.1398 39.8139 92.537 40.0651 92.0681 40.2326L92.8552 42.6441C93.4245 42.5269 94.6303 42.0412 95.6351 41.1034C96.9246 39.8976 98.1304 38.022 99.3529 35.4765L102.819 28.0242H99.8553Z" fill="black"/>
</g>
<defs>
<clipPath id="clip0_25_402">
<rect width="119.242" height="59.6209" fill="white" transform="translate(0.820312 0.720215)"/>
</clipPath>
</defs>
</svg>
