<svg width="121" height="60" viewBox="0 0 121 60" fill="none" xmlns="http://www.w3.org/2000/svg">
<g clip-path="url(#clip0_347_32527)">
<rect width="119.242" height="59.6209" transform="translate(0.820312 0.00439453)" fill="white"/>
<path d="M37.0717 22.5527C37.055 22.4354 36.9545 22.3685 36.8708 22.3685C36.787 22.3685 35.1291 22.335 35.1291 22.335C35.1291 22.335 33.7391 20.9952 33.6051 20.8445C33.4712 20.7105 33.2032 20.744 33.1027 20.7775C33.1027 20.7775 32.8348 20.8613 32.3994 20.9952C32.3324 20.7608 32.2152 20.4761 32.0644 20.1746C31.5788 19.2368 30.8419 18.7344 29.9711 18.7344C29.9041 18.7344 29.8539 18.7344 29.7869 18.7512C29.7534 18.7177 29.7366 18.6842 29.7031 18.6674C29.318 18.2655 28.8323 18.0645 28.2462 18.0813C27.1241 18.1148 26.0021 18.9354 25.081 20.3756C24.4447 21.3971 23.959 22.6699 23.8083 23.658C22.5188 24.0599 21.6145 24.3446 21.581 24.3446C20.9278 24.5455 20.9111 24.5623 20.8274 25.1819C20.7939 25.6508 19.0857 38.864 19.0857 38.864L33.4209 41.3426L39.634 39.8018C39.6172 39.8018 37.0885 22.6699 37.0717 22.5527ZM31.6793 21.2297C31.3443 21.3302 30.9759 21.4474 30.574 21.5814C30.574 21.012 30.4902 20.2081 30.239 19.5383C31.0931 19.6722 31.5118 20.6435 31.6793 21.2297ZM29.8204 21.7991C29.0668 22.0335 28.2462 22.2847 27.4256 22.5359C27.66 21.6484 28.0955 20.7775 28.6314 20.1914C28.8323 19.9737 29.117 19.7392 29.4352 19.6052C29.7701 20.2584 29.8371 21.1794 29.8204 21.7991ZM28.2797 18.8349C28.5476 18.8349 28.7653 18.8851 28.9495 19.0191C28.6481 19.1698 28.3467 19.4043 28.0787 19.7057C27.3586 20.4761 26.806 21.6651 26.5882 22.8206C25.9016 23.0383 25.2318 23.2393 24.6289 23.4235C25.0308 21.5981 26.5548 18.8851 28.2797 18.8349Z" fill="#95BF47"/>
<path d="M36.871 22.3687C36.7872 22.3687 35.1293 22.3352 35.1293 22.3352C35.1293 22.3352 33.7393 20.9954 33.6054 20.8447C33.5551 20.7945 33.4881 20.761 33.4211 20.761V41.3428L39.6342 39.8021C39.6342 39.8021 37.1054 22.6701 37.0887 22.5529C37.0552 22.4357 36.9547 22.3687 36.871 22.3687Z" fill="#5E8E3E"/>
<path d="M29.9712 25.5673L29.2511 28.2636C29.2511 28.2636 28.4472 27.8951 27.4927 27.9621C26.0859 28.0459 26.0859 28.9334 26.0859 29.1511C26.1697 30.3569 29.3348 30.6249 29.519 33.4551C29.653 35.6824 28.3468 37.2063 26.4376 37.3236C24.1601 37.4408 22.9041 36.1011 22.9041 36.1011L23.3897 34.0412C23.3897 34.0412 24.6625 34.9958 25.6673 34.9288C26.3204 34.8953 26.5716 34.3426 26.5381 33.9742C26.4376 32.4 23.8586 32.5005 23.6912 29.9048C23.5572 27.7277 24.9807 25.5338 28.129 25.3329C29.3516 25.2492 29.9712 25.5673 29.9712 25.5673Z" fill="white"/>
<path d="M48.0407 31.3111C47.3206 30.9259 46.9521 30.591 46.9521 30.1388C46.9521 29.5694 47.4713 29.201 48.2751 29.201C49.2129 29.201 50.0503 29.5862 50.0503 29.5862L50.7034 27.5766C50.7034 27.5766 50.1005 27.1077 48.3254 27.1077C45.8468 27.1077 44.1219 28.5311 44.1219 30.524C44.1219 31.6628 44.9258 32.5169 45.9976 33.1365C46.8684 33.6222 47.1698 33.9738 47.1698 34.493C47.1698 35.0289 46.7344 35.4643 45.9306 35.4643C44.7416 35.4643 43.6028 34.8447 43.6028 34.8447L42.8994 36.8543C42.8994 36.8543 43.9377 37.5577 45.6961 37.5577C48.2416 37.5577 50.0838 36.3016 50.0838 34.0408C50.067 32.8183 49.146 31.9475 48.0407 31.3111Z" fill="black"/>
<path d="M58.1891 27.074C56.9331 27.074 55.9451 27.6769 55.1915 28.5813L55.158 28.5645L56.2465 22.8706H53.4163L50.6531 37.3733H53.4833L54.4211 32.4163C54.7895 30.5406 55.7608 29.3851 56.6652 29.3851C57.3015 29.3851 57.5527 29.8205 57.5527 30.4401C57.5527 30.8253 57.5193 31.311 57.4355 31.6962L56.3637 37.3733H59.1939L60.2992 31.5119C60.4164 30.8923 60.5002 30.1554 60.5002 29.653C60.5169 28.0454 59.6796 27.074 58.1891 27.074Z" fill="black"/>
<path d="M66.9313 27.0742C63.515 27.0742 61.2542 30.1556 61.2542 33.5887C61.2542 35.7825 62.6106 37.5577 65.1561 37.5577C68.5055 37.5577 70.7663 34.56 70.7663 31.0432C70.7831 29.0168 69.594 27.0742 66.9313 27.0742ZM65.5413 35.3974C64.57 35.3974 64.1681 34.5768 64.1681 33.5385C64.1681 31.914 65.0054 29.268 66.5461 29.268C67.5509 29.268 67.8859 30.1389 67.8859 30.9762C67.8859 32.7179 67.0318 35.3974 65.5413 35.3974Z" fill="black"/>
<path d="M78.0343 27.0742C76.1251 27.0742 75.0366 28.7656 75.0366 28.7656H75.0031L75.1706 27.2417H72.6585C72.5413 28.2632 72.3069 29.8374 72.0892 31.0097L70.113 41.3927H72.9432L73.7303 37.1893H73.7973C73.7973 37.1893 74.3835 37.5577 75.4553 37.5577C78.7879 37.5577 80.9649 34.1414 80.9649 30.6915C80.9649 28.7824 80.1109 27.0742 78.0343 27.0742ZM75.3213 35.4309C74.5844 35.4309 74.149 35.0122 74.149 35.0122L74.6179 32.3662C74.9529 30.591 75.8739 29.4188 76.862 29.4188C77.7328 29.4188 78.0008 30.2226 78.0008 30.9762C78.0008 32.8184 76.9122 35.4309 75.3213 35.4309Z" fill="black"/>
<path d="M85.0175 23.0046C84.1132 23.0046 83.3931 23.7247 83.3931 24.6458C83.3931 25.4832 83.929 26.0693 84.7328 26.0693H84.7663C85.6539 26.0693 86.4075 25.4664 86.4242 24.4281C86.4242 23.6075 85.8716 23.0046 85.0175 23.0046Z" fill="black"/>
<path d="M81.0486 37.3564H83.8788L85.8047 27.3083H82.9577L81.0486 37.3564Z" fill="black"/>
<path d="M93.0224 27.2918H91.0463L91.1468 26.8229C91.3143 25.8516 91.8837 24.9975 92.8382 24.9975C93.3406 24.9975 93.7425 25.1482 93.7425 25.1482L94.2952 22.9209C94.2952 22.9209 93.8095 22.6697 92.7545 22.6697C91.7497 22.6697 90.7449 22.9544 89.9745 23.6075C89.0032 24.4281 88.5511 25.6171 88.3333 26.8229L88.2496 27.2918H86.9266L86.5079 29.4354H87.8309L86.3237 37.3733H89.1539L90.6611 29.4354H92.6205L93.0224 27.2918Z" fill="black"/>
<path d="M99.8551 27.3083C99.8551 27.3083 98.08 31.7797 97.2929 34.2248H97.2594C97.2091 33.4377 96.556 27.3083 96.556 27.3083H93.5751L95.2833 36.5358C95.3167 36.7368 95.3 36.8708 95.2163 37.0047C94.8813 37.6411 94.3287 38.2607 93.6756 38.7129C93.1397 39.0981 92.5368 39.3493 92.0679 39.5167L92.855 41.9283C93.4244 41.8111 94.6301 41.3254 95.6349 40.3876C96.9244 39.1818 98.1302 37.3062 99.3527 34.7607L102.819 27.3083H99.8551Z" fill="black"/>
</g>
<defs>
<clipPath id="clip0_347_32527">
<rect width="119.242" height="59.6209" fill="white" transform="translate(0.820312 0.00439453)"/>
</clipPath>
</defs>
</svg>
