<svg width="23" height="24" viewBox="0 0 23 24" fill="none" xmlns="http://www.w3.org/2000/svg">
<path fill-rule="evenodd" clip-rule="evenodd" d="M4.27845 15.4645C5.17706 14.5268 6.39584 14 7.66667 14H15.3333C16.6042 14 17.8229 14.5268 18.7216 15.4645C19.6202 16.4021 20.125 17.6739 20.125 19V21C20.125 21.5523 19.6959 22 19.1667 22C18.6374 22 18.2083 21.5523 18.2083 21V19C18.2083 18.2044 17.9054 17.4413 17.3663 16.8787C16.8271 16.3161 16.0958 16 15.3333 16H7.66667C6.90417 16 6.1729 16.3161 5.63373 16.8787C5.09457 17.4413 4.79167 18.2044 4.79167 19V21C4.79167 21.5523 4.36261 22 3.83333 22C3.30406 22 2.875 21.5523 2.875 21V19C2.875 17.6739 3.37983 16.4021 4.27845 15.4645Z" fill="#13357F"/>
<path fill-rule="evenodd" clip-rule="evenodd" d="M11.5 4C9.91222 4 8.62504 5.34315 8.62504 7C8.62504 8.65685 9.91222 10 11.5 10C13.0879 10 14.375 8.65685 14.375 7C14.375 5.34315 13.0879 4 11.5 4ZM6.70837 7C6.70837 4.23858 8.85368 2 11.5 2C14.1464 2 16.2917 4.23858 16.2917 7C16.2917 9.76142 14.1464 12 11.5 12C8.85368 12 6.70837 9.76142 6.70837 7Z" fill="#13357F"/>
</svg>
