<svg width="25" height="24" viewBox="0 0 25 24" fill="none" xmlns="http://www.w3.org/2000/svg">
<path fill-rule="evenodd" clip-rule="evenodd" d="M5.2028 15.4645C6.1316 14.5268 7.39132 14 8.70485 14H16.6291C17.9426 14 19.2023 14.5268 20.1311 15.4645C21.0599 16.4021 21.5817 17.6739 21.5817 19V21C21.5817 21.5523 21.1383 22 20.5912 22C20.0442 22 19.6007 21.5523 19.6007 21V19C19.6007 18.2044 19.2876 17.4413 18.7303 16.8787C18.173 16.3161 17.4172 16 16.6291 16H8.70485C7.91673 16 7.1609 16.3161 6.60362 16.8787C6.04633 17.4413 5.73326 18.2044 5.73326 19V21C5.73326 21.5523 5.28978 22 4.74273 22C4.19567 22 3.7522 21.5523 3.7522 21V19C3.7522 17.6739 4.27399 16.4021 5.2028 15.4645Z" fill="#13357F"/>
<path fill-rule="evenodd" clip-rule="evenodd" d="M12.6668 4C11.0256 4 9.69517 5.34315 9.69517 7C9.69517 8.65685 11.0256 10 12.6668 10C14.3079 10 15.6384 8.65685 15.6384 7C15.6384 5.34315 14.3079 4 12.6668 4ZM7.71411 7C7.71411 4.23858 9.93149 2 12.6668 2C15.402 2 17.6194 4.23858 17.6194 7C17.6194 9.76142 15.402 12 12.6668 12C9.93149 12 7.71411 9.76142 7.71411 7Z" fill="#13357F"/>
</svg>
