<svg width="14" height="13" viewBox="0 0 14 13" fill="none" xmlns="http://www.w3.org/2000/svg">
<path opacity="0.1" d="M7.17716 0.0725098C3.40892 0.0725098 0.354248 2.86065 0.354248 6.30008C0.354295 7.1179 0.530821 7.9277 0.873748 8.68325C1.21667 9.4388 1.71929 10.1253 2.35289 10.7035C2.98648 11.2818 3.73866 11.7405 4.56648 12.0534C5.39429 12.3663 6.28152 12.5274 7.17752 12.5273C8.07352 12.5273 8.96073 12.3662 9.78851 12.0532C10.6163 11.7402 11.3684 11.2814 12.0019 10.7031C12.6355 10.1248 13.138 9.43823 13.4809 8.68265C13.8237 7.92707 14.0001 7.11725 14.0001 6.29944C14.0001 2.86065 10.9447 0.0725098 7.17716 0.0725098ZM7.06985 9.93219H7.0336C6.47782 9.91727 6.0855 9.54296 6.10184 9.04281C6.11748 8.55109 6.51904 8.19366 7.05634 8.19366L7.08904 8.19495C7.66045 8.20987 8.04851 8.58028 8.03216 9.09471C8.01581 9.58772 7.62136 9.93219 7.06985 9.93219V9.93219ZM9.40883 5.69549C9.27805 5.86415 8.99092 6.07563 8.62846 6.33317L8.22903 6.58422C8.01013 6.73991 7.87793 6.88716 7.82889 7.03053C7.78909 7.1434 7.77062 7.17389 7.76706 7.40418V7.46256H6.24257L6.24683 7.3445C6.26602 6.86186 6.27881 6.57643 6.49843 6.34095C6.84313 5.97249 7.6036 5.52488 7.63558 5.50607C7.73991 5.4365 7.83092 5.35167 7.90494 5.25502C8.06485 5.05327 8.13522 4.89499 8.13522 4.7406C8.13522 4.52393 8.06557 4.32348 7.92697 4.14638C7.79336 3.97383 7.53963 3.8882 7.1729 3.8882C6.80901 3.8882 6.55955 3.99329 6.41101 4.20995C6.25749 4.43116 6.18002 4.66405 6.18002 4.90212V4.9618H4.60862L4.61146 4.89953C4.65197 4.02183 4.99596 3.38934 5.63135 3.02023C6.03148 2.78605 6.5297 2.66733 7.11036 2.66733C7.86941 2.66733 8.5119 2.836 9.01651 3.16813C9.52894 3.50481 9.78835 4.0095 9.78835 4.66729C9.78764 5.03511 9.66042 5.38087 9.40883 5.69549V5.69549Z" fill="black"/>
</svg>
