<svg width="19" height="14" viewBox="0 0 19 14" fill="none" xmlns="http://www.w3.org/2000/svg">
<path d="M16.2622 2.29163L17.33 1.04578C17.6391 0.708361 17.7234 0.448808 17.7515 0.319032C16.9085 0.786227 16.1217 0.941959 15.6159 0.941959H15.4192L15.3068 0.838138C14.6324 0.293077 13.7894 0.00756836 12.8902 0.00756836C10.9233 0.00756836 9.37779 1.51298 9.37779 3.25198C9.37779 3.3558 9.37779 3.51153 9.40589 3.61535L9.49019 4.13446L8.90009 4.10851C5.30334 4.00468 2.35288 1.1496 1.87518 0.656451C1.08839 1.95422 1.53799 3.20007 2.01568 3.97873L2.97107 5.43223L1.45369 4.65357C1.48179 5.74369 1.93138 6.60021 2.80247 7.22314L3.56116 7.74225L2.80247 8.02776C3.28017 9.35148 4.34795 9.89654 5.13474 10.1042L6.17443 10.3637L5.19094 10.9867C3.61736 12.0249 1.65039 11.947 0.779297 11.8691C2.54957 13.0112 4.65705 13.2707 6.11823 13.2707C7.21412 13.2707 8.029 13.1669 8.2257 13.089C16.0936 11.376 16.4589 4.88716 16.4589 3.5894V3.40771L16.6275 3.30389C17.5829 2.47332 17.9763 2.03208 18.2011 1.77253C18.1168 1.79848 18.0044 1.85039 17.892 1.87635L16.2622 2.29163Z" fill="white"/>
</svg>
