<svg width="18" height="18" viewBox="0 0 18 18" fill="none" xmlns="http://www.w3.org/2000/svg">
<path d="M16.7824 0.0600586H1.84872C1.14297 0.0600586 0.578369 0.610143 0.578369 1.29775V15.875C0.578369 16.5351 1.14297 17.1127 1.84872 17.1127H16.7259C17.4316 17.1127 17.9962 16.5626 17.9962 15.875V1.27025C18.0527 0.610144 17.4881 0.0600586 16.7824 0.0600586ZM5.74445 14.5548H3.17552V6.44104H5.74445V14.5548ZM4.44587 5.31337C3.59897 5.31337 2.94968 4.65327 2.94968 3.85564C2.94968 3.05802 3.6272 2.39792 4.44587 2.39792C5.26454 2.39792 5.94206 3.05802 5.94206 3.85564C5.94206 4.65327 5.321 5.31337 4.44587 5.31337ZM15.4838 14.5548H12.9149V10.6217C12.9149 9.68654 12.8866 8.44885 11.5598 8.44885C10.2048 8.44885 10.0072 9.49401 10.0072 10.5392V14.5548H7.43824V6.44104H9.95071V7.56872H9.97894C10.3459 6.90862 11.1646 6.24851 12.4349 6.24851C15.0603 6.24851 15.5402 7.89877 15.5402 10.1541V14.5548H15.4838Z" fill="white"/>
</svg>
