<svg width="10" height="18" viewBox="0 0 10 18" fill="none" xmlns="http://www.w3.org/2000/svg">
<path d="M9.00007 6.93385H7.50006H6.96434V6.38376V4.6785V4.12841H7.50006H8.62507C8.91971 4.12841 9.16078 3.90838 9.16078 3.57833V0.662878C9.16078 0.360331 8.9465 0.112793 8.62507 0.112793H6.66969C4.55361 0.112793 3.08038 1.65303 3.08038 3.93588V6.32875V6.87884H2.54466H0.72322C0.348217 6.87884 0 7.18138 0 7.62145V9.60176C0 9.98682 0.294645 10.3444 0.72322 10.3444H2.49109H3.02681V10.8945V16.4228C3.02681 16.8079 3.32145 17.1654 3.75003 17.1654H6.26791C6.42862 17.1654 6.56255 17.0829 6.66969 16.9729C6.77684 16.8629 6.8572 16.6703 6.8572 16.5053V10.922V10.3719H7.4197H8.62507C8.97328 10.3719 9.24114 10.1518 9.29471 9.82179V9.79429V9.76678L9.66972 7.86899C9.6965 7.67646 9.66972 7.45643 9.509 7.23639C9.45543 7.09887 9.21436 6.96135 9.00007 6.93385Z" fill="white"/>
</svg>
