<svg width="45" height="43" viewBox="0 0 45 43" fill="none" xmlns="http://www.w3.org/2000/svg">
<path d="M22.5 0C10.0935 0 0 9.637 0 21.4824V30.3825C0 32.5823 2.01825 34.3718 4.5 34.3718H6.75C7.34674 34.3718 7.91903 34.1455 8.34099 33.7426C8.76295 33.3397 9 32.7933 9 32.2236V21.1752C9 20.6054 8.76295 20.059 8.34099 19.6562C7.91903 19.2533 7.34674 19.0269 6.75 19.0269H4.707C5.958 10.7133 13.4505 4.29648 22.5 4.29648C31.5495 4.29648 39.042 10.7133 40.293 19.0269H38.25C37.6533 19.0269 37.081 19.2533 36.659 19.6562C36.2371 20.059 36 20.6054 36 21.1752V34.3718C36 36.7413 33.9818 38.6683 31.5 38.6683H27V36.5201H18V42.9648H31.5C36.4635 42.9648 40.5 39.1108 40.5 34.3718C42.9818 34.3718 45 32.5823 45 30.3825V21.4824C45 9.637 34.9065 0 22.5 0Z" fill="#A3D4C3"/>
</svg>
