<svg width="43" height="44" viewBox="0 0 43 44" fill="none" xmlns="http://www.w3.org/2000/svg">
<path d="M30.7543 0.213864C31.0726 0.313715 31.3358 0.528928 31.4862 0.81217C31.6365 1.09541 31.6617 1.42349 31.556 1.72424L30.2915 5.30898C30.1855 5.61004 29.9573 5.859 29.6571 6.00107C29.3569 6.14314 29.0092 6.1667 28.6906 6.06655C28.372 5.96641 28.1086 5.75077 27.9582 5.46707C27.8079 5.18337 27.7829 4.85486 27.8889 4.55379L29.1534 0.96905C29.206 0.820084 29.2891 0.68237 29.398 0.563779C29.507 0.445189 29.6396 0.348049 29.7882 0.277912C29.9369 0.207776 30.0988 0.16602 30.2645 0.15503C30.4303 0.14404 30.5967 0.164032 30.7543 0.213864ZM40.1042 4.58247C40.2218 4.47137 40.3151 4.33948 40.3787 4.19432C40.4423 4.04917 40.4751 3.89359 40.4751 3.73647C40.4751 3.57935 40.4423 3.42378 40.3787 3.27862C40.3151 3.13346 40.2218 3.00157 40.1042 2.89047C39.9867 2.77937 39.8471 2.69125 39.6935 2.63112C39.5399 2.57099 39.3752 2.54005 39.209 2.54005C39.0427 2.54005 38.878 2.57099 38.7244 2.63112C38.5708 2.69125 38.4312 2.77937 38.3137 2.89047L33.2556 7.67013C33.138 7.78107 33.0447 7.91281 32.981 8.05782C32.9173 8.20283 32.8845 8.35828 32.8844 8.51528C32.8841 8.83237 33.0172 9.13656 33.2543 9.36093C33.4914 9.5853 33.8131 9.71148 34.1487 9.71171C34.4842 9.71193 34.8062 9.58618 35.0436 9.36213L40.1017 4.58247H40.1042ZM14.1865 5.27791C14.5396 4.57603 15.0684 3.96608 15.7272 3.50091C16.386 3.03574 17.1549 2.72938 17.9673 2.60838C18.7797 2.48739 19.611 2.55539 20.3893 2.80652C21.1676 3.05764 21.8693 3.4843 22.4338 4.04954L39.0926 20.7305C39.6485 21.2871 40.0549 21.9617 40.2775 22.6975C40.5001 23.4333 40.5325 24.2089 40.3719 24.9591C40.2113 25.7092 39.8624 26.4119 39.3546 27.0081C38.8468 27.6043 38.1949 28.0766 37.4538 28.3852L27.4969 32.5339C27.866 33.7778 27.9255 35.0855 27.6708 36.3547C27.4161 37.624 26.8541 38.8203 26.0288 39.8502C25.2034 40.8801 24.1371 41.7155 22.9132 42.2912C21.6894 42.8669 20.3411 43.1672 18.974 43.1686C17.4672 43.1694 15.9852 42.8065 14.6685 42.1143C13.3518 41.4221 12.244 40.4236 11.4501 39.2135L8.41521 40.4753C7.71803 40.7658 6.94443 40.8512 6.19516 40.7203C5.4459 40.5894 4.7557 40.2484 4.21446 39.7416L1.12396 36.8475C0.565132 36.3245 0.192175 35.6502 0.0566986 34.9181C-0.0787773 34.186 0.029928 33.4321 0.367771 32.7609L14.1865 5.2803V5.27791ZM13.797 38.2336C14.6364 39.3659 15.8654 40.1882 17.2745 40.5601C18.6835 40.9321 20.1855 40.8307 21.5244 40.2734C22.8633 39.7161 23.9562 38.7373 24.6168 37.5038C25.2775 36.2703 25.465 34.8585 25.1474 33.5089L13.797 38.2336ZM20.5951 5.68896C20.3127 5.40668 19.9618 5.19371 19.5726 5.06848C19.1835 4.94325 18.768 4.90954 18.3619 4.97027C17.9559 5.03099 17.5717 5.18433 17.2425 5.417C16.9133 5.64966 16.6491 5.95465 16.4728 6.30554L2.6515 33.7886C2.53958 34.0121 2.50379 34.2629 2.54909 34.5065C2.59439 34.75 2.71853 34.9743 2.90441 35.1484L5.99491 38.0401C6.175 38.2089 6.40467 38.3227 6.65409 38.3666C6.90351 38.4105 7.16113 38.3825 7.39348 38.2862L36.4321 26.2009C36.8026 26.0467 37.1286 25.8108 37.3826 25.5129C37.6366 25.215 37.8112 24.8639 37.8917 24.489C37.9723 24.114 37.9564 23.7263 37.8454 23.3584C37.7344 22.9905 37.5316 22.6532 37.254 22.3747L20.5951 5.69374V5.68896ZM37.9419 12.1009C37.6065 12.1009 37.2849 12.2268 37.0477 12.4509C36.8106 12.6749 36.6774 12.9789 36.6774 13.2958C36.6774 13.6127 36.8106 13.9166 37.0477 14.1407C37.2849 14.3648 37.6065 14.4907 37.9419 14.4907H41.7355C42.0708 14.4907 42.3925 14.3648 42.6296 14.1407C42.8668 13.9166 43 13.6127 43 13.2958C43 12.9789 42.8668 12.6749 42.6296 12.4509C42.3925 12.2268 42.0708 12.1009 41.7355 12.1009H37.9419Z" fill="#FF9191"/>
</svg>
