<svg width="43" height="44" viewBox="0 0 43 44" fill="none" xmlns="http://www.w3.org/2000/svg">
<path d="M30.7543 0.420577C31.0726 0.520307 31.3358 0.735262 31.4862 1.01816C31.6365 1.30106 31.6617 1.62874 31.556 1.92913L30.2915 5.50956C30.1855 5.81026 29.9573 6.05891 29.6571 6.20082C29.3569 6.34272 29.0092 6.36625 28.6906 6.26622C28.372 6.1662 28.1086 5.95082 27.9582 5.66746C27.8079 5.38411 27.7829 5.05598 27.8889 4.75528L29.1534 1.17485C29.206 1.02607 29.2891 0.888519 29.398 0.770071C29.507 0.651623 29.6396 0.5546 29.7882 0.484548C29.9369 0.414496 30.0988 0.37279 30.2645 0.361813C30.4303 0.350837 30.5967 0.370805 30.7543 0.420577ZM40.1042 4.78393C40.2218 4.67296 40.3151 4.54123 40.3787 4.39624C40.4423 4.25126 40.4751 4.09587 40.4751 3.93894C40.4751 3.78202 40.4423 3.62663 40.3787 3.48164C40.3151 3.33666 40.2218 3.20493 40.1042 3.09396C39.9867 2.983 39.8471 2.89498 39.6935 2.83492C39.5399 2.77487 39.3752 2.74396 39.209 2.74396C39.0427 2.74396 38.878 2.77487 38.7244 2.83492C38.5708 2.89498 38.4312 2.983 38.3137 3.09396L33.2556 7.86787C33.138 7.97867 33.0447 8.11025 32.981 8.25509C32.9173 8.39993 32.8845 8.55519 32.8844 8.712C32.8841 9.02871 33.0172 9.33253 33.2543 9.55663C33.4914 9.78074 33.8131 9.90676 34.1487 9.90699C34.4842 9.90721 34.8062 9.78162 35.0436 9.55783L40.1017 4.78393H40.1042ZM14.1865 5.47853C14.5396 4.77749 15.0684 4.16827 15.7272 3.70366C16.386 3.23905 17.1549 2.93307 17.9673 2.81221C18.7797 2.69136 19.611 2.75929 20.3893 3.01011C21.1676 3.26093 21.8693 3.68708 22.4338 4.25163L39.0926 20.9126C39.6485 21.4684 40.0549 22.1422 40.2775 22.8772C40.5001 23.6121 40.5325 24.3868 40.3719 25.136C40.2113 25.8852 39.8624 26.5871 39.3546 27.1826C38.8468 27.7781 38.1949 28.2497 37.4538 28.558L27.4969 32.7017C27.866 33.9441 27.9255 35.2502 27.6708 36.518C27.4161 37.7857 26.8541 38.9806 26.0288 40.0092C25.2034 41.0378 24.1371 41.8723 22.9132 42.4473C21.6894 43.0223 20.3411 43.3222 18.974 43.3237C17.4672 43.3244 15.9852 42.962 14.6685 42.2706C13.3518 41.5793 12.244 40.582 11.4501 39.3732L8.41521 40.6336C7.71803 40.9237 6.94443 41.009 6.19516 40.8783C5.4459 40.7476 4.7557 40.4069 4.21446 39.9008L1.12396 37.0102C0.565132 36.4877 0.192175 35.8143 0.0566986 35.083C-0.0787773 34.3518 0.029928 33.5989 0.367771 32.9285L14.1865 5.48092V5.47853ZM13.797 38.3946C14.6364 39.5255 15.8654 40.3468 17.2745 40.7183C18.6835 41.0898 20.1855 40.9886 21.5244 40.4319C22.8633 39.8753 23.9562 38.8976 24.6168 37.6656C25.2775 36.4336 25.465 35.0235 25.1474 33.6756L13.797 38.3946ZM20.5951 5.88908C20.3127 5.60715 19.9618 5.39443 19.5726 5.26935C19.1835 5.14427 18.768 5.1106 18.3619 5.17125C17.9559 5.23191 17.5717 5.38506 17.2425 5.61745C16.9133 5.84983 16.6491 6.15445 16.4728 6.50492L2.6515 33.9549C2.53958 34.1781 2.50379 34.4287 2.54909 34.6719C2.59439 34.9152 2.71853 35.1392 2.90441 35.313L5.99491 38.2013C6.175 38.3699 6.40467 38.4836 6.65409 38.5274C6.90351 38.5713 7.16113 38.5433 7.39348 38.4471L36.4321 26.3763C36.8026 26.2224 37.1286 25.9867 37.3826 25.6892C37.6366 25.3917 37.8112 25.0409 37.8917 24.6665C37.9723 24.292 37.9564 23.9048 37.8454 23.5373C37.7344 23.1698 37.5316 22.8329 37.254 22.5548L20.5951 5.89386V5.88908ZM37.9419 12.2933C37.6065 12.2933 37.2849 12.419 37.0477 12.6428C36.8106 12.8667 36.6774 13.1702 36.6774 13.4868C36.6774 13.8033 36.8106 14.1068 37.0477 14.3307C37.2849 14.5545 37.6065 14.6802 37.9419 14.6802H41.7355C42.0708 14.6802 42.3925 14.5545 42.6296 14.3307C42.8668 14.1068 43 13.8033 43 13.4868C43 13.1702 42.8668 12.8667 42.6296 12.6428C42.3925 12.419 42.0708 12.2933 41.7355 12.2933H37.9419Z" fill="#FF9191"/>
</svg>
