<svg width="29" height="22" viewBox="0 0 29 22" fill="none" xmlns="http://www.w3.org/2000/svg">
<path d="M25.3269 3.7325L27.0294 1.72529C27.5222 1.18167 27.6566 0.763499 27.7014 0.554415C26.3574 1.30712 25.1029 1.55802 24.2964 1.55802H23.9828L23.8036 1.39075C22.7284 0.512598 21.3843 0.0526123 19.9506 0.0526123C16.8145 0.0526123 14.3504 2.47799 14.3504 5.27972C14.3504 5.44699 14.3504 5.69789 14.3952 5.86516L14.5296 6.70149L13.5887 6.65968C7.85403 6.49241 3.14979 1.89255 2.38816 1.09803C1.13369 3.18888 1.85053 5.19609 2.61217 6.45059L4.13544 8.79234L1.71612 7.53783C1.76093 9.29414 2.47776 10.6741 3.86663 11.6777L5.07629 12.514L3.86663 12.974C4.62827 15.1067 6.33075 15.9848 7.58522 16.3194L9.2429 16.7375L7.67482 17.7411C5.1659 19.4138 2.02974 19.2884 0.640869 19.1629C3.46341 21.0029 6.82358 21.421 9.15329 21.421C10.9006 21.421 12.1998 21.2538 12.5135 21.1283C25.0581 18.3684 25.6405 7.91418 25.6405 5.82334V5.53062L25.9093 5.36336C27.4326 4.02522 28.0598 3.31433 28.4183 2.89616C28.2838 2.93798 28.1046 3.02161 27.9254 3.06343L25.3269 3.7325Z" fill="#13357F"/>
</svg>
