<svg width="29" height="22" viewBox="0 0 29 22" fill="none" xmlns="http://www.w3.org/2000/svg">
<path d="M25.327 3.7325L27.0294 1.72529C27.5223 1.18167 27.6567 0.763499 27.7015 0.554415C26.3574 1.30712 25.1029 1.55802 24.2965 1.55802H23.9829L23.8037 1.39075C22.7284 0.512598 21.3844 0.0526123 19.9507 0.0526123C16.8145 0.0526123 14.3504 2.47799 14.3504 5.27972C14.3504 5.44699 14.3504 5.69789 14.3952 5.86516L14.5296 6.70149L13.5888 6.65968C7.85409 6.49241 3.14986 1.89255 2.38822 1.09803C1.13375 3.18888 1.85059 5.19609 2.61223 6.45059L4.1355 8.79234L1.71618 7.53783C1.76099 9.29414 2.47782 10.6741 3.86669 11.6777L5.07635 12.514L3.86669 12.974C4.62833 15.1067 6.33081 15.9848 7.58528 16.3194L9.24296 16.7375L7.67488 17.7411C5.16596 19.4138 2.0298 19.2884 0.64093 19.1629C3.46347 21.0029 6.82364 21.421 9.15335 21.421C10.9006 21.421 12.1999 21.2538 12.5135 21.1283C25.0581 18.3684 25.6406 7.91418 25.6406 5.82334V5.53062L25.9094 5.36336C27.4327 4.02522 28.0599 3.31433 28.4183 2.89616C28.2839 2.93798 28.1047 3.02161 27.9255 3.06343L25.327 3.7325Z" fill="#13357F"/>
</svg>
