<svg width="14" height="13" viewBox="0 0 14 13" fill="none" xmlns="http://www.w3.org/2000/svg">
<path opacity="0.1" d="M7.17716 0.152573C3.40892 0.152573 0.354248 2.94071 0.354248 6.38015C0.354295 7.19796 0.530821 8.00776 0.873748 8.76331C1.21667 9.51886 1.71929 10.2054 2.35289 10.7836C2.98648 11.3619 3.73866 11.8205 4.56648 12.1335C5.39429 12.4464 6.28152 12.6074 7.17752 12.6074C8.07352 12.6074 8.96073 12.4462 9.78851 12.1332C10.6163 11.8202 11.3684 11.3615 12.0019 10.7832C12.6355 10.2048 13.138 9.51829 13.4809 8.76271C13.8237 8.00713 14.0001 7.19731 14.0001 6.3795C14.0001 2.94071 10.9447 0.152573 7.17716 0.152573ZM7.06985 10.0123H7.0336C6.47782 9.99733 6.0855 9.62303 6.10184 9.12287C6.11748 8.63116 6.51904 8.27372 7.05634 8.27372L7.08904 8.27502C7.66045 8.28994 8.04851 8.66035 8.03216 9.17477C8.01581 9.66779 7.62136 10.0123 7.06985 10.0123V10.0123ZM9.40883 5.77555C9.27805 5.94422 8.99092 6.15569 8.62846 6.41323L8.22903 6.66428C8.01013 6.81997 7.87793 6.96723 7.82889 7.11059C7.78909 7.22346 7.77062 7.25395 7.76706 7.48424V7.54263H6.24257L6.24683 7.42456C6.26602 6.94193 6.27881 6.6565 6.49843 6.42102C6.84313 6.05255 7.6036 5.60494 7.63558 5.58613C7.73991 5.51656 7.83092 5.43174 7.90494 5.33508C8.06485 5.13333 8.13522 4.97505 8.13522 4.82066C8.13522 4.60399 8.06557 4.40354 7.92697 4.22644C7.79336 4.05389 7.53963 3.96826 7.1729 3.96826C6.80901 3.96826 6.55955 4.07335 6.41101 4.29002C6.25749 4.51123 6.18002 4.74411 6.18002 4.98219V5.04187H4.60862L4.61146 4.97959C4.65197 4.10189 4.99596 3.4694 5.63135 3.10029C6.03148 2.86611 6.5297 2.7474 7.11036 2.7474C7.86941 2.7474 8.5119 2.91606 9.01651 3.2482C9.52894 3.58487 9.78835 4.08957 9.78835 4.74735C9.78764 5.11517 9.66042 5.46093 9.40883 5.77555V5.77555Z" fill="black"/>
</svg>
