<svg width="14" height="13" viewBox="0 0 14 13" fill="none" xmlns="http://www.w3.org/2000/svg">
<path opacity="0.1" d="M7.17716 0.232544C3.40892 0.232544 0.354248 3.02068 0.354248 6.46012C0.354295 7.27794 0.530821 8.08774 0.873748 8.84328C1.21667 9.59883 1.71929 10.2853 2.35289 10.8636C2.98648 11.4418 3.73866 11.9005 4.56648 12.2134C5.39429 12.5264 6.28152 12.6874 7.17752 12.6874C8.07352 12.6873 8.96073 12.5262 9.78851 12.2132C10.6163 11.9002 11.3684 11.4414 12.0019 10.8631C12.6355 10.2848 13.138 9.59826 13.4809 8.84268C13.8237 8.0871 14.0001 7.27729 14.0001 6.45947C14.0001 3.02068 10.9447 0.232544 7.17716 0.232544ZM7.06985 10.0922H7.0336C6.47782 10.0773 6.0855 9.703 6.10184 9.20285C6.11748 8.71113 6.51904 8.35369 7.05634 8.35369L7.08904 8.35499C7.66045 8.36991 8.04851 8.74032 8.03216 9.25474C8.01581 9.74776 7.62136 10.0922 7.06985 10.0922V10.0922ZM9.40883 5.85552C9.27805 6.02419 8.99092 6.23567 8.62846 6.4932L8.22903 6.74425C8.01013 6.89994 7.87793 7.0472 7.82889 7.19056C7.78909 7.30344 7.77062 7.33392 7.76706 7.56422V7.6226H6.24257L6.24683 7.50453C6.26602 7.0219 6.27881 6.73647 6.49843 6.50099C6.84313 6.13252 7.6036 5.68492 7.63558 5.6661C7.73991 5.59654 7.83092 5.51171 7.90494 5.41505C8.06485 5.21331 8.13522 5.05502 8.13522 4.90063C8.13522 4.68396 8.06557 4.48351 7.92697 4.30642C7.79336 4.13386 7.53963 4.04823 7.1729 4.04823C6.80901 4.04823 6.55955 4.15332 6.41101 4.36999C6.25749 4.5912 6.18002 4.82408 6.18002 5.06216V5.12184H4.60862L4.61146 5.05956C4.65197 4.18186 4.99596 3.54938 5.63135 3.18026C6.03148 2.94608 6.5297 2.82737 7.11036 2.82737C7.86941 2.82737 8.5119 2.99603 9.01651 3.32817C9.52894 3.66485 9.78835 4.16954 9.78835 4.82733C9.78764 5.19514 9.66042 5.5409 9.40883 5.85552V5.85552Z" fill="black"/>
</svg>
