<svg width="46" height="44" viewBox="0 0 46 44" fill="none" xmlns="http://www.w3.org/2000/svg">
<path d="M22.8333 0.0421143C10.4268 0.0421143 0.333252 9.69072 0.333252 21.5504V30.4613C0.333252 32.6637 2.3515 34.4553 4.83325 34.4553H7.08325C7.67999 34.4553 8.25229 34.2287 8.67424 33.8254C9.0962 33.422 9.33325 32.875 9.33325 32.3045V21.2428C9.33325 20.6724 9.0962 20.1253 8.67424 19.7219C8.25229 19.3186 7.67999 19.092 7.08325 19.092H5.04025C6.29125 10.7683 13.7838 4.34377 22.8333 4.34377C31.8828 4.34377 39.3753 10.7683 40.6263 19.092H38.5833C37.9865 19.092 37.4142 19.3186 36.9923 19.7219C36.5703 20.1253 36.3333 20.6724 36.3333 21.2428V34.4553C36.3333 36.8277 34.315 38.757 31.8333 38.757H27.3333V36.6062H18.3333V43.0586H31.8333C36.7968 43.0586 40.8333 39.2001 40.8333 34.4553C43.315 34.4553 45.3333 32.6637 45.3333 30.4613V21.5504C45.3333 9.69072 35.2398 0.0421143 22.8333 0.0421143Z" fill="#A3D4C3"/>
</svg>
