<svg width="14" height="13" viewBox="0 0 14 13" fill="none" xmlns="http://www.w3.org/2000/svg">
<path opacity="0.1" d="M7.17716 0.152588C3.40892 0.152588 0.354248 2.94073 0.354248 6.38016C0.354295 7.19798 0.530821 8.00778 0.873748 8.76333C1.21667 9.51888 1.71929 10.2054 2.35289 10.7836C2.98648 11.3619 3.73866 11.8206 4.56648 12.1335C5.39429 12.4464 6.28152 12.6075 7.17752 12.6074C8.07352 12.6074 8.96073 12.4462 9.78851 12.1332C10.6163 11.8202 11.3684 11.3615 12.0019 10.7832C12.6355 10.2049 13.138 9.51831 13.4809 8.76273C13.8237 8.00715 14.0001 7.19733 14.0001 6.37951C14.0001 2.94072 10.9447 0.152588 7.17716 0.152588ZM7.06985 10.0123H7.0336C6.47782 9.99735 6.0855 9.62304 6.10184 9.12289C6.11748 8.63117 6.51904 8.27373 7.05634 8.27373L7.08904 8.27503C7.66045 8.28995 8.04851 8.66036 8.03216 9.17479C8.01581 9.6678 7.62136 10.0123 7.06985 10.0123V10.0123ZM9.40883 5.77557C9.27805 5.94423 8.99092 6.15571 8.62846 6.41325L8.22903 6.6643C8.01013 6.81998 7.87793 6.96724 7.82889 7.11061C7.78909 7.22348 7.77062 7.25397 7.76706 7.48426V7.54264H6.24257L6.24683 7.42458C6.26602 6.94194 6.27881 6.65651 6.49843 6.42103C6.84313 6.05257 7.6036 5.60496 7.63558 5.58615C7.73991 5.51658 7.83092 5.43175 7.90494 5.3351C8.06485 5.13335 8.13522 4.97507 8.13522 4.82067C8.13522 4.60401 8.06557 4.40356 7.92697 4.22646C7.79336 4.0539 7.53963 3.96827 7.1729 3.96827C6.80901 3.96827 6.55955 4.07336 6.41101 4.29003C6.25749 4.51124 6.18002 4.74413 6.18002 4.9822V5.04188H4.60862L4.61146 4.97961C4.65197 4.10191 4.99596 3.46942 5.63135 3.10031C6.03148 2.86612 6.5297 2.74741 7.11036 2.74741C7.86941 2.74741 8.5119 2.91607 9.01651 3.24821C9.52894 3.58489 9.78835 4.08958 9.78835 4.74737C9.78764 5.11519 9.66042 5.46095 9.40883 5.77557V5.77557Z" fill="black"/>
</svg>
