<svg width="14" height="13" viewBox="0 0 14 13" fill="none" xmlns="http://www.w3.org/2000/svg">
<path opacity="0.1" d="M7.17716 0.232605C3.40892 0.232605 0.354248 3.02074 0.354248 6.46018C0.354295 7.278 0.530821 8.0878 0.873748 8.84334C1.21667 9.59889 1.71929 10.2854 2.35289 10.8636C2.98648 11.4419 3.73866 11.9006 4.56648 12.2135C5.39429 12.5264 6.28152 12.6875 7.17752 12.6874C8.07352 12.6874 8.96073 12.5263 9.78851 12.2133C10.6163 11.9003 11.3684 11.4415 12.0019 10.8632C12.6355 10.2849 13.138 9.59833 13.4809 8.84275C13.8237 8.08716 14.0001 7.27735 14.0001 6.45953C14.0001 3.02074 10.9447 0.232605 7.17716 0.232605ZM7.06985 10.0923H7.0336C6.47782 10.0774 6.0855 9.70306 6.10184 9.20291C6.11748 8.71119 6.51904 8.35375 7.05634 8.35375L7.08904 8.35505C7.66045 8.36997 8.04851 8.74038 8.03216 9.2548C8.01581 9.74782 7.62136 10.0923 7.06985 10.0923V10.0923ZM9.40883 5.85559C9.27805 6.02425 8.99092 6.23573 8.62846 6.49326L8.22903 6.74431C8.01013 6.9 7.87793 7.04726 7.82889 7.19062C7.78909 7.3035 7.77062 7.33399 7.76706 7.56428V7.62266H6.24257L6.24683 7.5046C6.26602 7.02196 6.27881 6.73653 6.49843 6.50105C6.84313 6.13258 7.6036 5.68498 7.63558 5.66616C7.73991 5.5966 7.83092 5.51177 7.90494 5.41511C8.06485 5.21337 8.13522 5.05508 8.13522 4.90069C8.13522 4.68402 8.06557 4.48357 7.92697 4.30648C7.79336 4.13392 7.53963 4.04829 7.1729 4.04829C6.80901 4.04829 6.55955 4.15338 6.41101 4.37005C6.25749 4.59126 6.18002 4.82414 6.18002 5.06222V5.1219H4.60862L4.61146 5.05962C4.65197 4.18193 4.99596 3.54944 5.63135 3.18032C6.03148 2.94614 6.5297 2.82743 7.11036 2.82743C7.86941 2.82743 8.5119 2.99609 9.01651 3.32823C9.52894 3.66491 9.78835 4.1696 9.78835 4.82739C9.78764 5.1952 9.66042 5.54096 9.40883 5.85559V5.85559Z" fill="black"/>
</svg>
