<svg width="28" height="28" viewBox="0 0 28 28" fill="none" xmlns="http://www.w3.org/2000/svg">
<path d="M26.0585 0.526321H2.24823C1.12298 0.526321 0.222778 1.41257 0.222778 2.52038V26.0059C0.222778 27.0694 1.12298 28 2.24823 28H25.9685C27.0937 28 27.9939 27.1138 27.9939 26.0059V2.47607C28.084 1.41257 27.1838 0.526321 26.0585 0.526321ZM8.4596 23.879H4.3637V10.8068H8.4596V23.879ZM6.38914 8.98999C5.03885 8.98999 4.00362 7.92649 4.00362 6.64143C4.00362 5.35637 5.08385 4.29288 6.38914 4.29288C7.69443 4.29288 8.77467 5.35637 8.77467 6.64143C8.77467 7.92649 7.78445 8.98999 6.38914 8.98999ZM23.988 23.879H19.8921V17.5423C19.8921 16.0357 19.8471 14.0416 17.7317 14.0416C15.5712 14.0416 15.2561 15.7255 15.2561 17.4093V23.879H11.1602V10.8068H15.1661V12.6236H15.2111C15.7962 11.5601 17.1015 10.4966 19.127 10.4966C23.3129 10.4966 24.0781 13.1554 24.0781 16.789V23.879H23.988Z" fill="#13357F"/>
</svg>
