<svg width="35" height="24" viewBox="0 0 35 24" fill="none" xmlns="http://www.w3.org/2000/svg">
<path d="M31.1821 0.611572H3.83838C2.08838 0.611572 0.666504 2.03345 0.666504 3.78345V20.5725C0.666504 22.3225 2.08838 23.7444 3.83838 23.7444H31.1821C32.9321 23.7444 34.354 22.3225 34.354 20.5725V3.78345C34.354 2.03345 32.9321 0.611572 31.1821 0.611572ZM31.1821 2.52563C31.4556 2.52563 31.6743 2.58032 31.8931 2.74438L18.2759 11.0022C17.7837 11.2756 17.2368 11.2756 16.7446 11.0022L3.12744 2.74438C3.34619 2.63501 3.56494 2.52563 3.83838 2.52563H31.1821ZM31.1821 21.7756H3.83838C3.18213 21.7756 2.58057 21.2288 2.58057 20.5178V4.65845L15.7056 12.6428C16.2524 12.9709 16.854 13.135 17.4556 13.135C18.0571 13.135 18.6587 12.9709 19.2056 12.6428L32.3306 4.65845V20.5178C32.4399 21.2288 31.8384 21.7756 31.1821 21.7756Z" fill="white"/>
</svg>
