<svg width="14" height="13" viewBox="0 0 14 13" fill="none" xmlns="http://www.w3.org/2000/svg">
<path opacity="0.1" d="M7.17716 0.0725632C3.40892 0.0725632 0.354248 2.8607 0.354248 6.30014C0.354295 7.11795 0.530821 7.92775 0.873748 8.6833C1.21667 9.43885 1.71929 10.1253 2.35289 10.7036C2.98648 11.2819 3.73866 11.7405 4.56648 12.0535C5.39429 12.3664 6.28152 12.5274 7.17752 12.5274C8.07352 12.5273 8.96073 12.3662 9.78851 12.0532C10.6163 11.7402 11.3684 11.2815 12.0019 10.7031C12.6355 10.1248 13.138 9.43828 13.4809 8.6827C13.8237 7.92712 14.0001 7.11731 14.0001 6.29949C14.0001 2.8607 10.9447 0.0725632 7.17716 0.0725632ZM7.06985 9.93224H7.0336C6.47782 9.91732 6.0855 9.54302 6.10184 9.04286C6.11748 8.55115 6.51904 8.19371 7.05634 8.19371L7.08904 8.19501C7.66045 8.20993 8.04851 8.58034 8.03216 9.09476C8.01581 9.58778 7.62136 9.93224 7.06985 9.93224ZM9.40883 5.69554C9.27805 5.86421 8.99092 6.07569 8.62846 6.33322L8.22903 6.58427C8.01013 6.73996 7.87793 6.88722 7.82889 7.03058C7.78909 7.14346 7.77062 7.17394 7.76706 7.40423V7.46262H6.24257L6.24683 7.34455C6.26602 6.86192 6.27881 6.57649 6.49843 6.34101C6.84313 5.97254 7.6036 5.52493 7.63558 5.50612C7.73991 5.43655 7.83092 5.35173 7.90494 5.25507C8.06485 5.05333 8.13522 4.89504 8.13522 4.74065C8.13522 4.52398 8.06557 4.32353 7.92697 4.14643C7.79336 3.97388 7.53963 3.88825 7.1729 3.88825C6.80901 3.88825 6.55955 3.99334 6.41101 4.21001C6.25749 4.43122 6.18002 4.6641 6.18002 4.90218V4.96186H4.60862L4.61146 4.89958C4.65197 4.02188 4.99596 3.38939 5.63135 3.02028C6.03148 2.7861 6.5297 2.66739 7.11036 2.66739C7.86941 2.66739 8.5119 2.83605 9.01651 3.16819C9.52894 3.50486 9.78835 4.00956 9.78835 4.66735C9.78764 5.03516 9.66042 5.38092 9.40883 5.69554Z" fill="black"/>
</svg>
