<svg width="14" height="14" viewBox="0 0 14 14" fill="none" xmlns="http://www.w3.org/2000/svg">
<path opacity="0.1" d="M7.17716 0.992676C3.40892 0.992676 0.354248 3.78081 0.354248 7.22025C0.354295 8.03807 0.530821 8.84787 0.873748 9.60342C1.21667 10.359 1.71929 11.0455 2.35289 11.6237C2.98648 12.202 3.73866 12.6607 4.56648 12.9736C5.39429 13.2865 6.28152 13.4475 7.17752 13.4475C8.07352 13.4475 8.96073 13.2863 9.78851 12.9733C10.6163 12.6603 11.3684 12.2016 12.0019 11.6233C12.6355 11.0449 13.138 10.3584 13.4809 9.60282C13.8237 8.84724 14.0001 8.03742 14.0001 7.2196C14.0001 3.78081 10.9447 0.992676 7.17716 0.992676ZM7.06985 10.8524H7.0336C6.47782 10.8374 6.0855 10.4631 6.10184 9.96298C6.11748 9.47126 6.51904 9.11382 7.05634 9.11382L7.08904 9.11512C7.66045 9.13004 8.04851 9.50045 8.03216 10.0149C8.01581 10.5079 7.62136 10.8524 7.06985 10.8524V10.8524ZM9.40883 6.61566C9.27805 6.78432 8.99092 6.9958 8.62846 7.25333L8.22903 7.50438C8.01013 7.66007 7.87793 7.80733 7.82889 7.95069C7.78909 8.06357 7.77062 8.09406 7.76706 8.32435V8.38273H6.24257L6.24683 8.26467C6.26602 7.78203 6.27881 7.4966 6.49843 7.26112C6.84313 6.89265 7.6036 6.44505 7.63558 6.42623C7.73991 6.35667 7.83092 6.27184 7.90494 6.17519C8.06485 5.97344 8.13522 5.81515 8.13522 5.66076C8.13522 5.44409 8.06557 5.24364 7.92697 5.06655C7.79336 4.89399 7.53963 4.80836 7.1729 4.80836C6.80901 4.80836 6.55955 4.91345 6.41101 5.13012C6.25749 5.35133 6.18002 5.58421 6.18002 5.82229V5.88197H4.60862L4.61146 5.81969C4.65197 4.942 4.99596 4.30951 5.63135 3.94039C6.03148 3.70621 6.5297 3.5875 7.11036 3.5875C7.86941 3.5875 8.5119 3.75616 9.01651 4.0883C9.52894 4.42498 9.78835 4.92967 9.78835 5.58746C9.78764 5.95527 9.66042 6.30103 9.40883 6.61566V6.61566Z" fill="black"/>
</svg>
