<svg width="14" height="13" viewBox="0 0 14 13" fill="none" xmlns="http://www.w3.org/2000/svg">
<path opacity="0.1" d="M7.17716 0.232582C3.40892 0.232582 0.354248 3.02072 0.354248 6.46016C0.354295 7.27797 0.530821 8.08777 0.873748 8.84332C1.21667 9.59887 1.71929 10.2854 2.35289 10.8636C2.98648 11.4419 3.73866 11.9006 4.56648 12.2135C5.39429 12.5264 6.28152 12.6874 7.17752 12.6874C8.07352 12.6874 8.96073 12.5262 9.78851 12.2132C10.6163 11.9002 11.3684 11.4415 12.0019 10.8632C12.6355 10.2848 13.138 9.5983 13.4809 8.84272C13.8237 8.08714 14.0001 7.27732 14.0001 6.45951C14.0001 3.02072 10.9447 0.232582 7.17716 0.232582ZM7.06985 10.0923H7.0336C6.47782 10.0773 6.0855 9.70304 6.10184 9.20288C6.11748 8.71117 6.51904 8.35373 7.05634 8.35373L7.08904 8.35503C7.66045 8.36995 8.04851 8.74036 8.03216 9.25478C8.01581 9.7478 7.62136 10.0923 7.06985 10.0923V10.0923ZM9.40883 5.85556C9.27805 6.02423 8.99092 6.2357 8.62846 6.49324L8.22903 6.74429C8.01013 6.89998 7.87793 7.04724 7.82889 7.1906C7.78909 7.30347 7.77062 7.33396 7.76706 7.56425V7.62264H6.24257L6.24683 7.50457C6.26602 7.02194 6.27881 6.73651 6.49843 6.50102C6.84313 6.13256 7.6036 5.68495 7.63558 5.66614C7.73991 5.59657 7.83092 5.51175 7.90494 5.41509C8.06485 5.21334 8.13522 5.05506 8.13522 4.90067C8.13522 4.684 8.06557 4.48355 7.92697 4.30645C7.79336 4.1339 7.53963 4.04827 7.1729 4.04827C6.80901 4.04827 6.55955 4.15336 6.41101 4.37003C6.25749 4.59124 6.18002 4.82412 6.18002 5.0622V5.12188H4.60862L4.61146 5.0596C4.65197 4.1819 4.99596 3.54941 5.63135 3.1803C6.03148 2.94612 6.5297 2.8274 7.11036 2.8274C7.86941 2.8274 8.5119 2.99607 9.01651 3.32821C9.52894 3.66488 9.78835 4.16958 9.78835 4.82736C9.78764 5.19518 9.66042 5.54094 9.40883 5.85556V5.85556Z" fill="black"/>
</svg>
