<svg width="16" height="28" viewBox="0 0 16 28" fill="none" xmlns="http://www.w3.org/2000/svg">
<path d="M14.3498 10.9895H11.9581H11.104V10.1032V7.35586V6.46961H11.9581H13.7519C14.2216 6.46961 14.606 6.11511 14.606 5.58336V0.886248C14.606 0.398812 14.2643 0 13.7519 0H10.6342C7.2603 0 4.91138 2.48149 4.91138 6.15942V10.0146V10.9008H4.05722H1.15311C0.555199 10.9008 0 11.3883 0 12.0973V15.2878C0 15.9082 0.469784 16.4842 1.15311 16.4842H3.97181H4.82596V17.3705V26.2773C4.82596 26.8976 5.29574 27.4737 5.97907 27.4737H9.99358C10.2498 27.4737 10.4634 27.3407 10.6342 27.1635C10.805 26.9862 10.9332 26.6761 10.9332 26.4102V17.4148V16.5285H11.83H13.7519C14.3071 16.5285 14.7341 16.174 14.8195 15.6423V15.598V15.5537L15.4175 12.4961C15.4602 12.1859 15.4175 11.8314 15.1612 11.4769C15.0758 11.2553 14.6914 11.0338 14.3498 10.9895Z" fill="#13357F"/>
</svg>
