<svg width="14" height="14" viewBox="0 0 14 14" fill="none" xmlns="http://www.w3.org/2000/svg">
<path opacity="0.1" d="M7.17716 0.992554C3.40892 0.992554 0.354248 3.78069 0.354248 7.22013C0.354295 8.03795 0.530821 8.84775 0.873748 9.60329C1.21667 10.3588 1.71929 11.0453 2.35289 11.6236C2.98648 12.2018 3.73866 12.6605 4.56648 12.9735C5.39429 13.2864 6.28152 13.4474 7.17752 13.4474C8.07352 13.4473 8.96073 13.2862 9.78851 12.9732C10.6163 12.6602 11.3684 12.2014 12.0019 11.6231C12.6355 11.0448 13.138 10.3583 13.4809 9.60269C13.8237 8.84711 14.0001 8.0373 14.0001 7.21948C14.0001 3.78069 10.9447 0.992554 7.17716 0.992554ZM7.06985 10.8522H7.0336C6.47782 10.8373 6.0855 10.463 6.10184 9.96286C6.11748 9.47114 6.51904 9.1137 7.05634 9.1137L7.08904 9.115C7.66045 9.12992 8.04851 9.50033 8.03216 10.0148C8.01581 10.5078 7.62136 10.8522 7.06985 10.8522V10.8522ZM9.40883 6.61553C9.27805 6.7842 8.99092 6.99568 8.62846 7.25321L8.22903 7.50426C8.01013 7.65995 7.87793 7.80721 7.82889 7.95057C7.78909 8.06345 7.77062 8.09393 7.76706 8.32423V8.38261H6.24257L6.24683 8.26454C6.26602 7.78191 6.27881 7.49648 6.49843 7.261C6.84313 6.89253 7.6036 6.44493 7.63558 6.42611C7.73991 6.35654 7.83092 6.27172 7.90494 6.17506C8.06485 5.97332 8.13522 5.81503 8.13522 5.66064C8.13522 5.44397 8.06557 5.24352 7.92697 5.06643C7.79336 4.89387 7.53963 4.80824 7.1729 4.80824C6.80901 4.80824 6.55955 4.91333 6.41101 5.13C6.25749 5.35121 6.18002 5.58409 6.18002 5.82217V5.88185H4.60862L4.61146 5.81957C4.65197 4.94187 4.99596 4.30939 5.63135 3.94027C6.03148 3.70609 6.5297 3.58738 7.11036 3.58738C7.86941 3.58738 8.5119 3.75604 9.01651 4.08818C9.52894 4.42486 9.78835 4.92955 9.78835 5.58734C9.78764 5.95515 9.66042 6.30091 9.40883 6.61553V6.61553Z" fill="black"/>
</svg>
